<svg width="33" height="32" viewBox="0 0 33 32" fill="none" xmlns="http://www.w3.org/2000/svg">
<path fill-rule="evenodd" clip-rule="evenodd" d="M11.5 6H26.5V22.5C26.5 24.9853 24.4853 27 22 27H12C11.7239 27 11.5 26.7761 11.5 26.5C11.5 26.2239 11.7239 26 12 26H22C23.933 26 25.5 24.433 25.5 22.5V7H12.5V20C12.5 20.2761 12.2761 20.5 12 20.5C11.7239 20.5 11.5 20.2761 11.5 20V6Z" fill="#664B42"/>
<path fill-rule="evenodd" clip-rule="evenodd" d="M8 19.5H22.5V20.5H9V23.25C9 24.7688 10.2312 26 11.75 26H22C22.2761 26 22.5 26.2239 22.5 26.5C22.5 26.7761 22.2761 27 22 27H11.75C9.67893 27 8 25.3211 8 23.25V19.5Z" fill="#664B42"/>
<path fill-rule="evenodd" clip-rule="evenodd" d="M24.5 16.5C24.7761 16.5 25 16.7239 25 17V22.5C25 23.4665 24.2165 24.25 23.25 24.25C22.2835 24.25 21.5 23.4665 21.5 22.5V20H22.5V22.5C22.5 22.9142 22.8358 23.25 23.25 23.25C23.6642 23.25 24 22.9142 24 22.5V17C24 16.7239 24.2239 16.5 24.5 16.5Z" fill="#664B42"/>
<path d="M3.28275 9.78016C3.36103 10.6777 3.79526 11.4816 4.49398 12.035L8.9102 15.7454C9.83033 16.5184 10.9964 16.8869 12.1943 16.7824L12.9221 16.7189L11.8241 15.7971C10.9935 15.8033 10.1959 15.5193 9.55313 14.9796L5.12536 11.2604C4.63314 10.8707 4.3331 10.3139 4.27897 9.69327C4.17119 8.45747 5.08917 7.36408 6.32498 7.2563C6.94562 7.20217 7.54524 7.4016 8.02565 7.82848L9.12665 8.75194L9.86677 10.4607L9.76445 9.28741L11.8333 11.0234L12.5745 12.734L12.4723 11.5617C13.171 12.1611 13.6009 12.9931 13.681 13.9119L13.77 14.9315L8.73735 10.7062L8.09442 11.472L15.2932 17.5159L15.9362 16.7501L14.8531 15.8408L14.6773 13.825C14.5728 12.6275 14.0086 11.5423 13.0875 10.7699L8.67924 7.07254C8.00234 6.47008 7.13569 6.1818 6.23809 6.26008C4.45287 6.41577 3.12706 7.99493 3.28275 9.78016Z" fill="#FD9F32"/>
</svg>
