<svg width="33" height="32" viewBox="0 0 33 32" fill="none" xmlns="http://www.w3.org/2000/svg">
<path d="M18.9013 18.7605C18.031 18.7605 17.1802 18.5153 16.4566 18.056C15.733 17.5966 15.169 16.9438 14.8359 16.1799C14.5029 15.4161 14.4157 14.5756 14.5855 13.7647C14.7553 12.9538 15.1744 12.2089 15.7898 11.6243C16.4052 11.0397 17.1892 10.6415 18.0428 10.4802C18.8964 10.3189 19.7812 10.4017 20.5852 10.7181C21.3892 11.0345 22.0765 11.5703 22.56 12.2577C23.0435 12.9452 23.3016 13.7534 23.3016 14.5802C23.3016 15.6889 22.838 16.7521 22.0128 17.5361C21.1875 18.3201 20.0683 18.7605 18.9013 18.7605ZM18.9013 11.7933C18.3211 11.7933 17.7539 11.9568 17.2715 12.263C16.7891 12.5692 16.4131 13.0045 16.191 13.5137C15.969 14.0229 15.9109 14.5833 16.0241 15.1239C16.1373 15.6645 16.4167 16.161 16.827 16.5508C17.2372 16.9405 17.7599 17.206 18.329 17.3135C18.898 17.421 19.4879 17.3658 20.0239 17.1549C20.5599 16.944 21.0181 16.5868 21.3404 16.1285C21.6628 15.6702 21.8348 15.1314 21.8348 14.5802C21.8348 13.8411 21.5257 13.1322 20.9756 12.6096C20.4255 12.0869 19.6793 11.7933 18.9013 11.7933Z" fill="#664B42"/>
<path fill-rule="evenodd" clip-rule="evenodd" d="M4.38006 24.1791L7.43741 20.2535L9.01163 22.1443L11.2478 19.2641L14.9408 24.188V18.321H4.38006V24.1791ZM3.73739 25.3615C3.69664 25.2914 3.66058 25.2183 3.62965 25.1427C3.5461 24.9382 3.5 24.7149 3.5 24.4814V17.4409H15.8208V26.2415H5.26012C4.61206 26.2415 4.04287 25.8866 3.73739 25.3615ZM9.03558 23.5485L7.46027 21.6564L5.26012 24.4814H14.0607L11.2357 20.7147L9.03558 23.5485Z" fill="#FD9F32"/>
<path fill-rule="evenodd" clip-rule="evenodd" d="M15.8208 21.8411H28.2988C28.4905 21.8411 28.6743 21.765 28.8099 21.6301C28.9455 21.4952 29.0217 21.3121 29.0217 21.1209V8.88039C29.0217 8.68917 28.9455 8.50611 28.8099 8.37118C28.6743 8.23582 28.4905 8.16019 28.2988 8.16019H23.6288L22.3926 6.32401C22.3271 6.22517 22.238 6.14353 22.1334 6.08723C22.0288 6.03051 21.9117 6.00043 21.7926 6H16.0093C15.8903 6.00043 15.7732 6.03051 15.6685 6.08723C15.5639 6.14353 15.4748 6.22517 15.4093 6.32401L14.1731 8.16019H9.50316C9.39155 8.16019 9.28261 8.18554 9.18431 8.23367C9.11373 8.26847 9.04863 8.31445 8.99202 8.37118C8.85644 8.50611 8.78027 8.68917 8.78027 8.88039V17.4408H10.2261V9.60017H14.5635C14.6825 9.59974 14.7996 9.56966 14.9044 9.51336C15.009 9.45664 15.0981 9.37543 15.1635 9.27616L16.3997 7.43998H21.4022L22.6384 9.27616C22.7038 9.37543 22.7929 9.45664 22.8975 9.51336C22.974 9.55462 23.0571 9.58169 23.1428 9.59372C23.1744 9.59802 23.2063 9.60017 23.2384 9.60017H27.5759V20.4011H15.8208V21.8411Z" fill="#664B42"/>
</svg>
