<?xml version="1.0" encoding="utf-8"?>
<!-- Generator: Adobe Illustrator 23.0.0, SVG Export Plug-In . SVG Version: 6.00 Build 0)  -->
<svg version="1.1" id="Layer_1" xmlns="http://www.w3.org/2000/svg" xmlns:xlink="http://www.w3.org/1999/xlink" x="0px" y="0px"
	 viewBox="0 0 120 120" style="enable-background:new 0 0 120 120;" xml:space="preserve">
<style type="text/css">
	.st0{fill:#FD9F32;}
	.st1{fill:#F5EFE6;}
	.st2{fill-rule:evenodd;clip-rule:evenodd;fill:#B69D86;}
</style>
<path class="st0" d="M104.7,79.8l-64.1,28.9c-4.1,1.8-8.9-0.3-10.6-4.2L5.8,50.8C4,46.6,6.2,42.3,10,40.6l14.5-6.5
	c-1.8-9.4,3.2-19.3,11.9-23.3c8.7-3.9,19.5-1.1,25.3,6.5l12.3-5.5c3.9-1.7,8.4-0.4,10.2,3.7l24.1,53.6
	C110.4,73.3,108.5,78.1,104.7,79.8z M11.8,44.5c-1.8,0.8-2.8,2.8-2,4.5l24.1,53.6c0.8,1.7,3.1,2.9,4.9,2.1l64.1-28.9
	c1.7-0.8,2.4-3.2,1.6-5L80.4,17.2c-0.4-0.9-2.1-2.6-4.5-1.5L61.9,22c-1,0.4-2.1,0.1-2.7-0.8c-4.3-6.8-13.8-9.7-21-6.4
	c-7.3,3.3-11.4,12.2-9.1,20c0.3,1-0.2,2.1-1.2,2.6L11.8,44.5z"/>
<path class="st0" d="M52.3,46c-7.9,3.6-17.2,0-20.8-7.9c-3.6-7.9,0-17.2,7.9-20.8c7.9-3.6,17.2,0,20.8,7.9
	C63.7,33.1,60.2,42.4,52.3,46z M41.1,21.3c-5.7,2.6-8.3,9.3-5.7,15.1c2.6,5.7,9.3,8.3,15.1,5.7c5.7-2.6,8.3-9.3,5.7-15.1
	C53.6,21.3,46.9,18.7,41.1,21.3z"/>
<path class="st0" d="M45.1,34.6L37.6,27l9.9,4c1.1,0.5,1.7,1.7,1.2,2.9c-0.5,1.1-1.7,1.7-2.9,1.2C45.6,35,45.3,34.8,45.1,34.6z"/>
<path class="st1" d="M71,32.1C63.9,38,55.3,54,61.4,61.3c6,7.3,23.2,1.8,30.3-4.1c7.2-5.9,16.6-22.3,10.5-29.6
	C96.2,20.3,78.2,26.2,71,32.1z"/>
<path class="st2" d="M101.2,42.6c-2.5,5.7-6.5,11.1-10,14c-3.5,2.9-9.4,5.7-15.3,6.8c-2.9,0.6-5.8,0.8-8.2,0.4
	c-2.5-0.4-4.5-1.4-5.8-3C60.5,59.1,60,57,60,54.5c0.1-2.5,0.8-5.3,1.9-8c2.2-5.5,6.1-10.9,9.6-13.7c3.5-2.9,9.7-5.8,15.7-7.1
	c3-0.6,6-0.9,8.5-0.5c2.5,0.4,4.6,1.3,6,2.9c1.4,1.6,1.9,3.8,1.7,6.4C103.3,37,102.5,39.8,101.2,42.6z M104.8,34.5
	c0.2-2.8-0.4-5.4-2.1-7.4c-1.7-2-4.1-3.1-6.9-3.4c-2.8-0.4-5.9-0.1-9,0.5c-6.2,1.3-12.6,4.3-16.3,7.4c-3.7,3-7.7,8.6-10,14.3
	c-1.2,2.9-1.9,5.8-2,8.5c-0.1,2.7,0.6,5.3,2.2,7.3c1.6,2,4,3.1,6.7,3.5c2.7,0.4,5.7,0.2,8.7-0.4c6-1.2,12.2-4.1,15.9-7.1
	c3.7-3,7.9-8.7,10.4-14.5C103.8,40.3,104.7,37.3,104.8,34.5z"/>
<path class="st2" d="M98,31.3c-0.2-0.3-0.7-0.3-1-0.1l-6.5,5.3c-0.3,0.2-0.3,0.7-0.1,1c0.2,0.3,0.7,0.3,1,0.1l6.5-5.3
	C98.2,32.1,98.3,31.6,98,31.3z"/>
<path class="st2" d="M88.3,39.3c-0.2-0.3-0.7-0.3-1-0.1L68,55.2c-0.3,0.2-0.3,0.7-0.1,1c0.2,0.3,0.7,0.3,1,0.1l19.4-16
	C88.5,40.1,88.6,39.6,88.3,39.3z"/>
<path class="st1" d="M42.6,60.3c-6.4-4.6-21.4-8.1-26-1.5c-4.7,6.6,3.6,19.4,10,24c6.4,4.6,22,8.7,26.6,2.1
	C57.9,78.3,49,64.9,42.6,60.3z"/>
<path class="st2" d="M40.6,87.4c-5.2-0.8-10.6-2.9-13.7-5.1c-3.1-2.2-6.7-6.5-9-11c-1.1-2.3-1.9-4.6-2.1-6.7c-0.2-2.1,0.1-4,1.2-5.5
	c1.1-1.5,2.7-2.4,4.8-2.9c2.1-0.5,4.5-0.5,7-0.2c5,0.6,10.3,2.6,13.4,4.8c3.1,2.2,6.9,6.7,9.3,11.4c1.2,2.3,2,4.7,2.3,6.9
	c0.3,2.2-0.1,4.1-1.1,5.5c-1.1,1.5-2.7,2.4-4.9,2.8C45.7,87.8,43.2,87.8,40.6,87.4z M48.1,88.5c2.3-0.5,4.3-1.5,5.6-3.3
	c1.3-1.8,1.6-4,1.3-6.4c-0.3-2.3-1.2-4.9-2.4-7.3c-2.5-4.8-6.4-9.4-9.7-11.8c-3.3-2.4-8.7-4.4-14-5c-2.6-0.3-5.2-0.3-7.4,0.3
	c-2.3,0.5-4.2,1.6-5.5,3.4c-1.3,1.8-1.6,4-1.4,6.3c0.2,2.3,1.1,4.7,2.2,7.1c2.3,4.7,6.1,9.1,9.4,11.5c3.3,2.4,8.9,4.6,14.2,5.3
	C43.1,89,45.8,89,48.1,88.5z"/>
<path class="st2" d="M49.2,82.3c0.2-0.3,0.1-0.6-0.1-0.8l-5.8-4.1c-0.3-0.2-0.6-0.1-0.8,0.1c-0.2,0.3-0.1,0.6,0.1,0.8l5.8,4.1
	C48.6,82.6,49,82.5,49.2,82.3z"/>
<path class="st2" d="M40.5,76.1c0.2-0.3,0.1-0.6-0.1-0.8L23,62.8c-0.3-0.2-0.6-0.1-0.8,0.1c-0.2,0.3-0.1,0.6,0.1,0.8l17.4,12.4
	C39.9,76.4,40.3,76.3,40.5,76.1z"/>
</svg>
