<?xml version="1.0" encoding="utf-8"?>
<!-- Generator: Adobe Illustrator 23.0.0, SVG Export Plug-In . SVG Version: 6.00 Build 0)  -->
<svg version="1.1" id="Layer_1" xmlns="http://www.w3.org/2000/svg" xmlns:xlink="http://www.w3.org/1999/xlink" x="0px" y="0px"
	 viewBox="0 0 120 120" style="enable-background:new 0 0 120 120;" xml:space="preserve">
<style type="text/css">
	.st0{fill:#F5EFE6;stroke:#B69D86;stroke-width:2;}
	.st1{fill:#B69D86;}
	.st2{clip-path:url(#SVGID_2_);}
	.st3{fill-rule:evenodd;clip-rule:evenodd;fill:#FD9F32;}
</style>
<path class="st0" d="M31.1,37C18.9,42,0.7,60,5.8,72.4c5.1,12.4,30.6,12.2,42.8,7.2c12.2-5,31.8-23.3,26.7-35.7
	C70.2,31.5,43.3,32.1,31.1,37z"/>
<path class="st1" d="M66.7,46.7c0.5-0.2,1.1,0,1.3,0.5c0.2,0.5,0,1.1-0.5,1.3L66.7,46.7z M56.5,53.1c-0.5,0.2-1.1,0-1.3-0.5
	c-0.2-0.5,0-1.1,0.5-1.3L56.5,53.1z M67.5,48.6l-11,4.5l-0.8-1.9l11-4.5L67.5,48.6z"/>
<path class="st1" d="M50.2,53.5c0.5-0.2,1.1,0,1.3,0.5c0.2,0.5,0,1.1-0.5,1.3L50.2,53.5z M18,68.8c-0.5,0.2-1.1,0-1.3-0.5
	c-0.2-0.5,0-1.1,0.5-1.3L18,68.8z M51,55.3L18,68.8L17.3,67l33-13.5L51,55.3z"/>
<g>
	<defs>
		<path id="SVGID_1_" d="M70.6,17L70.6,17c20.4,0,37,16.6,37,37l0,0c0,20.4-16.6,37-37,37l0,0c-20.4,0-37-16.6-37-37l0,0
			C33.6,33.6,50.2,17,70.6,17z"/>
	</defs>
	<clipPath id="SVGID_2_">
		<use xlink:href="#SVGID_1_"  style="overflow:visible;"/>
	</clipPath>
	<g class="st2">
		<path class="st0" d="M33.1,32.2C18.7,38.1-3,59.5,3.1,74.2c6,14.7,36.3,14.5,50.8,8.6c14.5-5.9,37.8-27.6,31.7-42.4
			C79.5,25.7,47.6,26.3,33.1,32.2z"/>
		<path class="st1" d="M75.5,43.9c0.5-0.2,1.1,0,1.3,0.5c0.2,0.5,0,1.1-0.5,1.3L75.5,43.9z M63.2,51.1c-0.5,0.2-1.1,0-1.3-0.5
			c-0.2-0.5,0-1.1,0.5-1.3L63.2,51.1z M76.2,45.7l-13,5.3l-0.8-1.9l13-5.3L76.2,45.7z"/>
		<path class="st1" d="M55.9,51.9c0.5-0.2,1.1,0,1.3,0.5c0.2,0.5,0,1.1-0.5,1.3L55.9,51.9z M17.5,69.8c-0.5,0.2-1.1,0-1.3-0.5
			c-0.2-0.5,0-1.1,0.5-1.3L17.5,69.8z M56.7,53.8l-39.1,16l-0.8-1.9l39.1-16L56.7,53.8z"/>
	</g>
</g>
<path class="st3" d="M71.3,17.5c-9.4,0-18.5,3.8-25.2,10.5c-6.7,6.7-10.4,15.8-10.4,25.4S39.4,72,46.1,78.7
	c6.7,6.7,15.7,10.5,25.2,10.5c9.4,0,18.5-3.8,25.2-10.5c6.7-6.7,10.4-15.8,10.4-25.4S103.2,34.7,96.5,28
	C89.8,21.3,80.8,17.5,71.3,17.5z M43,24.8C50.5,17.3,60.7,13,71.3,13s20.8,4.3,28.3,11.8c7.5,7.6,11.7,17.8,11.7,28.5
	c0,9.3-3.2,18.3-9,25.5c-0.7,0.8-0.6,2,0.1,2.8l15.7,15.9c0.8,0.8,0.8,2,0,2.8l-0.3,0.3c-0.8,0.8-2.1,0.8-2.8,0L99.4,84.8
	c-0.8-0.8-2-0.8-2.8-0.1c-7.1,5.8-16,9-25.3,9c-10.6,0-20.8-4.3-28.3-11.8C35.4,74.3,31.2,64,31.2,53.3C31.2,42.6,35.4,32.4,43,24.8
	z"/>
</svg>
