<?xml version="1.0" encoding="utf-8"?>
<!-- Generator: Adobe Illustrator 23.0.0, SVG Export Plug-In . SVG Version: 6.00 Build 0)  -->
<svg version="1.1" id="Layer_1" xmlns="http://www.w3.org/2000/svg" xmlns:xlink="http://www.w3.org/1999/xlink" x="0px" y="0px"
	 viewBox="0 0 120 120" style="enable-background:new 0 0 120 120;" xml:space="preserve">
<style type="text/css">
	.st0{fill:#FD9F32;}
	.st1{fill:#FFF176;}
	.st2{fill:#F5EFE6;stroke:#B69D86;stroke-width:2;}
	.st3{fill:#B69D86;}
</style>
<g>
	<g>
		<path class="st0" d="M20.8,105.5l94.8-38.2L106,43.6l-4.4,1.8l-3,1.2l-3,1.2l-3,1.2l-3,1.2l-3,1.2l-3,1.2l-3,1.2l-3,1.2l-3,1.2
			l-3,1.2l-3,1.2l-3,1.2l-3,1.2l-3,1.2l-3,1.2l-3,1.2l-3,1.2l-3,1.2l-3,1.2l-3,1.2l-3,1.2l-3,1.2l-3,1.2l-3,1.2l-3,1.2l-3,1.2
			l-3,1.2l-3,1.2l-7.4,3L20.8,105.5z M19.7,81.4l3-1.2l1.3,3.3l3-1.2l-1.4-3.2l3-1.2l1.3,3.3l3-1.2l-1.3-3.3l3-1.2l1.3,3.3l3-1.2
			l-1.3-3.3l3-1.2l1.3,3.3l3-1.2l-1.3-3.3l3-1.2l2.5,6.3l3-1.2l-2.5-6.3l3-1.2l1.3,3.3l3-1.2l-1.3-3.3l3-1.2l1.3,3.3l3-1.2l-1.3-3.3
			l3-1.2l1.3,3.3l3-1.2l-1.3-3.3l3-1.2l1.3,3.3l3-1.2l-1.3-3.3l3-1.2l2.5,6.3l3-1.2l-2.5-6.3l3-1.2l1.3,3.3l3-1.2l-1.3-3.3l3-1.2
			l1.3,3.3l3-1.2l-1.3-3.3l3-1.2l1.3,3.3l3-1.2l-1.3-3.3l3-1.2l1.3,3.3l3-1.2l-2.3-3.2l1.8-0.7l7.4,18.5l-89.5,36l-7.4-18.5l1.8-0.7
			l2.5,6.3l3-1.2L19.7,81.4z"/>
		<path class="st1" d="M101,52.5l3-1.2l-1.4-3.3l-3,1.2L101,52.5z"/>
		<path class="st1" d="M95.1,54.9l3-1.2l-1.3-3.3l-3,1.2L95.1,54.9z"/>
		<path class="st1" d="M89.2,57.3l3-1.2l-1.3-3.3l-3,1.2L89.2,57.3z"/>
		<path class="st1" d="M83.2,59.7l3-1.2l-1.3-3.3l-3,1.2L83.2,59.7z"/>
		<path class="st1" d="M78.5,65l3-1.2L79,57.5l-3,1.2L78.5,65z"/>
		<path class="st1" d="M71.4,64.4l3-1.2l-1.3-3.3l-3,1.2L71.4,64.4z"/>
		<path class="st1" d="M65.5,66.8l3-1.2l-1.3-3.3l-3,1.2L65.5,66.8z"/>
		<path class="st1" d="M59.5,69.2l3-1.2l-1.3-3.3l-3,1.2L59.5,69.2z"/>
		<path class="st1" d="M53.6,71.6l3-1.2l-1.3-3.3l-3,1.2L53.6,71.6z"/>
		<path class="st1" d="M48.9,77l3-1.2l-2.5-6.3l-3,1.2L48.9,77z"/>
		<path class="st1" d="M41.8,76.4l3-1.2l-1.3-3.3l-3,1.2L41.8,76.4z"/>
		<path class="st1" d="M35.8,78.8l3-1.2l-1.3-3.3l-3,1.2L35.8,78.8z"/>
		<path class="st1" d="M29.9,81.2l3-1.2l-1.3-3.3l-3,1.2L29.9,81.2z"/>
		<path class="st1" d="M24,83.6l3-1.2l-1.4-3.3l-3,1.2L24,83.6z"/>
		<path class="st1" d="M19.2,88.9l3-1.2l-2.5-6.3l-3,1.2L19.2,88.9z"/>
		<path class="st0" d="M101,52.5l3-1.2l-2.4-5.9l-3,1.2L101,52.5z"/>
		<path class="st0" d="M92.7,49l3-1.2l2.4,5.9l-3,1.2l-1.3-3.3L92.7,49z"/>
		<path class="st0" d="M86.8,51.3l3-1.2l1.1,2.6l1.3,3.3l-3,1.2L86.8,51.3z"/>
		<path class="st0" d="M83.2,59.7l3-1.2l-2.4-5.9l-3,1.2L83.2,59.7z"/>
		<path class="st0" d="M78.5,65l3-1.2l-3.6-8.9l-3,1.2L78.5,65z"/>
		<path class="st0" d="M71.4,64.4l3-1.2L72,57.3l-3,1.2L71.4,64.4z"/>
		<path class="st0" d="M63.1,60.9l3-1.2l2.4,5.9l-3,1.2l-1.3-3.3L63.1,60.9z"/>
		<path class="st0" d="M57.1,63.3l3-1.2l1.1,2.6l1.3,3.3l-3,1.2L57.1,63.3z"/>
		<path class="st0" d="M53.6,71.6l3-1.2l-2.4-5.9l-3,1.2L53.6,71.6z"/>
		<path class="st0" d="M48.9,77l3-1.2l-3.6-8.9l-3,1.2L48.9,77z"/>
		<path class="st0" d="M41.8,76.4l3-1.2l-2.4-5.9l-3,1.2L41.8,76.4z"/>
		<path class="st0" d="M33.4,72.9l3-1.2l2.4,5.9l-3,1.2l-1.3-3.3L33.4,72.9z"/>
		<path class="st0" d="M27.5,75.2l3-1.2l1.1,2.6l1.3,3.3l-3,1.2L27.5,75.2z"/>
		<path class="st0" d="M24,83.6l3-1.2l-2.4-6l-3,1.2L24,83.6z"/>
		<path class="st0" d="M19.2,88.9l3-1.2l-3.6-8.9l-3,1.2L19.2,88.9z"/>
	</g>
</g>
<path class="st2" d="M29.2,27.4c-9.3,7.7-20.4,28.3-12.6,37.7c7.8,9.5,30,2.4,39.3-5.3c9.3-7.6,21.5-28.8,13.7-38.3
	S38.4,19.8,29.2,27.4z"/>
<path class="st3" d="M62.8,26.2c0.4-0.3,1-0.3,1.3,0.1c0.3,0.4,0.3,1-0.1,1.3L62.8,26.2z M55.6,34.5c-0.4,0.3-1,0.3-1.3-0.1
	c-0.3-0.4-0.3-1,0.1-1.3L55.6,34.5z M64,27.6l-8.4,6.9l-1.2-1.4l8.4-6.9L64,27.6z"/>
<path class="st3" d="M50.3,36.6c0.4-0.3,1-0.3,1.3,0.1c0.3,0.4,0.3,1-0.1,1.3L50.3,36.6z M26.3,58.7c-0.4,0.3-1,0.3-1.3-0.1
	c-0.3-0.4-0.3-1,0.1-1.3L26.3,58.7z M51.5,38L26.3,58.7l-1.2-1.4l25.1-20.7L51.5,38z"/>
</svg>
