<svg width="100" height="100" viewBox="0 0 100 100" fill="none" xmlns="http://www.w3.org/2000/svg">
<path fill-rule="evenodd" clip-rule="evenodd" d="M20.7715 86.6061V13.3927C20.7715 11.5194 22.2915 9.99939 24.1648 9.99939H53.8293L79.2293 35.3994V86.6061C79.2293 88.4794 77.7093 89.9994 75.8359 89.9994H24.1648C22.2915 89.9994 20.7715 88.4794 20.7715 86.6061Z" fill="#B69D86"/>
<path fill-rule="evenodd" clip-rule="evenodd" d="M53.8291 9.99892L79.2291 35.3989H57.2224C55.3491 35.3989 53.8291 33.8789 53.8291 32.0056V9.99892Z" fill="#FD9F32"/>
<path d="M29.7246 80.0001V67.4668H35.5735C36.9839 67.4668 38.0505 67.8105 38.7735 68.4979C39.5083 69.1735 39.8757 70.1038 39.8757 71.289C39.8757 72.4624 39.5083 73.3986 38.7735 74.0979C38.0505 74.7853 36.9839 75.129 35.5735 75.129H32.4979V80.0001H29.7246ZM32.4979 72.9779H35.2179C35.8816 72.9779 36.3735 72.8298 36.6935 72.5335C37.0254 72.2372 37.1913 71.8224 37.1913 71.289C37.1913 70.7557 37.0254 70.3468 36.6935 70.0624C36.3735 69.7661 35.8816 69.6179 35.2179 69.6179H32.4979V72.9779Z" fill="white"/>
<path d="M41.7211 80.0001V67.4668H46.5034C47.9611 67.4668 49.1937 67.7157 50.2011 68.2135C51.2085 68.7112 51.9671 69.4283 52.4767 70.3646C52.9982 71.289 53.2589 72.409 53.2589 73.7246C53.2589 75.0283 52.9982 76.1483 52.4767 77.0846C51.9671 78.0209 51.2085 78.7438 50.2011 79.2535C49.1937 79.7512 47.9611 80.0001 46.5034 80.0001H41.7211ZM44.4945 77.7246H46.3434C47.7419 77.7246 48.7789 77.3986 49.4545 76.7468C50.1419 76.0831 50.4856 75.0757 50.4856 73.7246C50.4856 72.3616 50.1419 71.3542 49.4545 70.7024C48.7789 70.0505 47.7419 69.7246 46.3434 69.7246H44.4945V77.7246Z" fill="white"/>
<path d="M55.4364 80.0001V67.4668H63.952V69.6179H58.2098V72.6757H63.5431V74.809H58.2098V80.0001H55.4364Z" fill="white"/>
</svg>
