<svg width="22" height="22" viewBox="0 0 22 22" fill="none" xmlns="http://www.w3.org/2000/svg">
<path d="M16.5 8.9375H15.125C15.1245 8.39066 14.907 7.86637 14.5203 7.4797C14.1336 7.09302 13.6093 6.87555 13.0625 6.875V5.5C13.9738 5.50109 14.8476 5.86361 15.492 6.50803C16.1364 7.15245 16.4989 8.02615 16.5 8.9375V8.9375Z" fill="#664B42"/>
<path d="M19.25 8.9375H17.875C17.8736 7.66159 17.3661 6.43836 16.4639 5.53616C15.5617 4.63395 14.3384 4.12646 13.0625 4.125V2.75C14.703 2.75182 16.2758 3.4043 17.4357 4.56429C18.5957 5.72427 19.2482 7.29703 19.25 8.9375V8.9375ZM17.875 19.9375H17.7581C4.24878 19.1606 2.33065 7.76188 2.06252 4.28313C2.02062 3.73776 2.19706 3.19809 2.55303 2.78281C2.909 2.36753 3.41536 2.11066 3.96071 2.06869C4.01525 2.06456 4.07002 2.0625 4.12502 2.0625H7.74815C8.02353 2.06223 8.29265 2.14466 8.52065 2.29911C8.74864 2.45356 8.92501 2.67291 9.0269 2.92875L10.0719 5.5C10.1725 5.74994 10.1975 6.02393 10.1437 6.28794C10.0899 6.55195 9.95977 6.79434 9.7694 6.985L8.30502 8.46313C8.53284 9.76341 9.15504 10.9622 10.0873 11.8969C11.0195 12.8315 12.2166 13.4569 13.5163 13.6881L15.0081 12.21C15.2017 12.0217 15.4464 11.8946 15.7117 11.8445C15.977 11.7944 16.2511 11.8234 16.5 11.9281L19.0919 12.9663C19.3439 13.0714 19.5589 13.2491 19.7095 13.4768C19.8601 13.7046 19.9395 13.972 19.9375 14.245V17.875C19.9375 18.422 19.7202 18.9466 19.3334 19.3334C18.9466 19.7202 18.422 19.9375 17.875 19.9375ZM4.12502 3.4375C4.03474 3.43723 3.94529 3.45474 3.86177 3.48904C3.77826 3.52334 3.70232 3.57376 3.63828 3.63741C3.57425 3.70105 3.52338 3.77669 3.48858 3.86C3.45378 3.94331 3.43573 4.03265 3.43546 4.12294C3.43546 4.14219 3.43615 4.16121 3.43752 4.18C3.75377 8.25 5.7819 17.875 17.8338 18.5625C18.0157 18.5734 18.1946 18.5116 18.331 18.3907C18.4674 18.2697 18.5502 18.0996 18.5611 17.9176L18.5625 17.875V14.245L15.9706 13.2069L13.9975 15.1662L13.6675 15.125C7.68627 14.3756 6.87502 8.39438 6.87502 8.3325L6.83377 8.0025L8.78627 6.02938L7.75502 3.4375H4.12502Z" fill="#664B42"/>
</svg>
