<svg width="740" height="193" fill="none" xmlns="http://www.w3.org/2000/svg"><path d="M0 192h740" stroke="#A18173"/><g clip-path="url(#a)"><path d="m186.76 26.24-4.96-2.05-3.98-.5-.55-6.12.44-11.22 2.43-1H704.5l2.43 1.44-.4 17.13-519.76 2.32Z" fill="#F4EEE5"/><path d="M181.35 137.76V24.08h516.9v116.33l-516.9-2.65Z" fill="#FD9F32"/><path d="m172.42 151.57 5.07-11.87 4.8-1.66H697l9.26 12.6-3.8 1.2-78.55.4-9.98-1.11-9.44.55-13.07-.1-13.57-.17H455.06l-6.46-3.1-8.16 1.1-7.61 2.27h-48.16l-60.84-.66-37.23-.17-20.52.83-17.76.89-22.5-.17-17.66-.44-9.43-.94 11.47 13.64" fill="#F4EEE5"/><path d="M729.25 136.77c-.82-1.05-5.35-2.76-5.9-2.05-1.21 1.6-2.87 1.33-4.52 1.38-1.32.06-2.7-.33-3.92.4.11.65.44.71.83.82.6.17 1.6-.28 1.77.83.05.27-.28.66-.5.88-.83.78-1.32-.1-1.82-.55-.94-.77-2.04-.66-3.15-.72-1.98-.05-3.03-.1-3.64-.6h-3.91c-.83.38-1.99.38-3.59 0-.93-.23-1.43-.72-1.49-1.66-.05-.67-.05-1.27-.05-1.94V29c0-3.65.22-3.76 3.3-3.92.5-.06.9 0 1.28.05v-.33h3.75V10.6c0-5.3-.66-5.96-5.8-5.96h-85.77c-1.21 0-2.81.5-3.53-.88-.94-1.72-2.37-1.77-3.97-1.77-1.16 0-2.6.38-3.47-.39C603.38.11 601.39.17 599.4.33c-5.85.44-11.8-1.16-17.6 1.5-2.1.93-5.18-.62-6.67 2.48-.17.33-1.21.28-1.82.28h-43.85c-.83 0-1.88.22-2.26-.61-1.05-2.38-3.04-1.94-4.91-2-1-.05-2.32.17-2.93-.32-1.76-1.6-3.75-1.27-5.73-1.33-2.38 0-4.86.33-7.17-.05-5.08-.89-9.55 2.15-14.46 1.87-.38 0-.99.28-1.15.61-1 2.21-2.93 1.88-4.75 1.88-24.38 0-48.7.17-73.08-.11-5.02-.06-10.65 2.26-15-2.38-4.04.72-7.45-2.26-11.48-1.82-5.85.55-11.8-1.16-17.6 1.55-1.98.94-5.02-.6-6.4 2.43-.16.33-1.2.33-1.82.33h-53.78c-.93 0-1.93.06-2.37-1-.66-1.6-2.04-1.65-3.42-1.65-1.27 0-2.81.44-3.75-.39-1.86-1.55-3.9-1.27-6-1.27-2.48 0-5.02.33-7.45-.05-4.96-.83-9.32 2.37-14.23 1.87-.39-.05-1.05.28-1.16.61-.83 2.21-2.65 1.88-4.36 1.88h-78.32c-1.77 0-3.48-.06-5.24.06-2.15.1-3.48 1.26-3.53 3.42-.06 4.86-.06 9.78 0 14.64v.16h.16v1.05c.17.56.55 1 1.38 1.05 2.15.17 2.37 1.55 2.37 3.26 0 35.24-.05 70.54.06 105.78 0 2.6-1 3.26-3.42 3.32h-.33v.05h-6.01c-.67.33-1.71.39-3.31.44-1.82 0-3.48.06-4.47 2-.39.71-1.22.71-1.93.77-1.93.16-2.7-1.22-3.53-2.55-1.05-1.54-1.6-4.08-3.8-3.97-4.53.27-9.66-2.27-13.25 2.7-.22.34-.82.34-1.21.56-.83.38-1.21 1.05-1.43 1.93-1.27 5.3 1.54 9.67 3.08 14.36.11.39.67.77 1.05.83 1 .22 1.6.66 1.99 1.22H146c.6-.94 2.04-.61 5.57-.61 1.76 0 3.7-.22 4.08-2.05.83-3.59 3.25-3.7 6.07-3.53 1.6.1 3.53-.22 1.6 2.37-.5.67-.22 1.6.16 2.38.22.5.67 1.27.11 1.49-2.15.83-1.7 3.1-2.7 4.53-4.03 5.96-5.85 12.65-6.23 19.72-.11 1.6 0 3.48 2.04 4.09 2.04.6 2.65-1.05 3.47-2.38 1-1.49.78-2.98.39-4.53-1.21-4.64 2.04-12.26 5.18-15.74 2.49-2.76 5.02-4.03 8.44-5.25 3.81-1.38 7.23-.72 11.7-1.21-5.57 5.9-8.39 12.04-7.83 19.5.55 7.56 4.8 12.7 10.86 17.73.22.05.44.16.66.27.28.17.44.33.56.61h19.85c.72-.22 1.5-.44 2.21-.72.55-.22 1.1-.44 1.65-.55 1.71-1.66 3.04-3.15 4.64-4.36 2.26-1.72 5.13-1.38 7.66-1.44 9.93-.28 19.86-.11 29.8-.11 4.79 0 8.87 1.5 11.9 5.41l.78.33c.38.11.77.17 1.16.22.93.12 1.82.28 2.75.5 1.5.33 2.98.66 4.53.78h13.46c.05 0 .1-.06.16-.06.77-.28 1.55-.55 2.26-.88.33-.17.66-.28 1-.45a64.47 64.47 0 0 0 2.64-2.48c8-7.79 9.71-17.73 4.75-27.73-1.33-2.65-1.1-2.98 1.65-3.15 11.92-.88 23.83-.83 35.75-.55 7.44.16 14.89.88 22.28.44 7.17-.39 14.29-.6 21.46-.55 1.49 0 2.92-.06 4.13 1.1.89.83 2.1.61 3.2.61 13.35 0 26.64-.16 40 .06a9.45 9.45 0 0 1 8.05 4.86c1.1 1.88 2.2 2.32 3.8.5 1.22-1.33 7.4-1.55 9.16-.34.77.56 1.43 1.33 2.43.78 1.04-.56.99-1.72 1.04-2.71.06-.39-.1-.72-.1-1.1.05-1.05-.12-2.82.88-2.88 1.6-.05.82 1.6.88 2.6.05.94.44 1.27 1.27 1.44 2.98.66 7.28-.17 10.15-2.1.55 2.98 1.65 5.3 5.35 4.58 1.21-.22 1.49 1.05 1.98 1.93 1 1.83 1.82 3.87 4.42 4.15 1.7.16 3.14-.22 4.13-1.6 1.38-1.94 2.76-3.87 3.86-5.92.56-.99 1.16-.99 2-.82.98.16 1.98.44 2.97.44 2.48-.06 3.25-1.55 1.93-3.65-1.55-2.54-1.43-2.81 1.49-2.87 1.93-.06 3.86 0 5.74.44 7.11 1.66 14.34 1.22 21.56 1.1v-.05h9.55c.38 0 .71-.05 1.1 0h24.88v.17h10.75c1.82 0 2.54.22 1.5 2.26-6.24 11.71-3.7 23.1 6.72 30.93.17.12.22.34.44.61l.6.17a5.24 5.24 0 0 1 1.71.83h18.7c.23-.06.4-.06.61-.11 1.16-.28 2.27-.72 3.37-1.05 3.42-4.2 7.45-6.13 12.46-6.08 4.14.06 8.28 0 12.42 0 .6 0 .99.11 1.32.28h2.32a2.7 2.7 0 0 1 1.26-.28c6.13-.11 12.36-.44 18.37.77 2.87.61 4.36 3.7 6.95 5.09 0 .05-.05.1-.05.16h.05c.44.22 1.05.39 1.66.6.6.17 1.27.4 1.93.5h18.48c.27-.1.5-.16.77-.27l.39-.17c.05-.05.1-.05.22-.1.27-.12.6-.28.88-.45v-.1h.1l-.05-.12c4.25-2.76 7.45-6.3 9.1-11.1 2.82-8.34 2.05-16.13-3.86-23.04-.55-.66-1.7-1.21-1.2-2.2.38-.83 1.48-.45 2.25-.45 2.87.06 4.7-.05 5.74.06 1.1-.06 2.26-.17 3.36-.17.11-.05.22-.05.39-.05.83 0 1.65.1 2.43.27a1.04 1.04 0 0 1 .44-.1h.05c.11 0 .22 0 .33.05h.11c.11 0 .22.05.33.1.06.06.17.12.23.17h.38v.23a17.67 17.67 0 0 1 3.64 1.93c.28.16.55.33.88.5 1.27.71 1.83 2.1 2.87 2.81 4.64 3.15 5.8 8.01 6.79 12.98.38 1.83-.39 3.43-.6 5.14-.23 1.93.82 3.37 2.09 4.59.71.71 1.76.66 2.59.1 1.49-1.1 1.54-2.81 1.38-4.47-.17-1.99-.5-3.92-.88-5.9a34.44 34.44 0 0 0-4.8-12.22c-1.16-1.7-1.38-3.8-1.99-5.69-.5-1.49.28-2.54 1.88-3.14 1.87-.72 1.65.71 2.04 1.65.27.72.71 1.44 1.43 1.6 2.26.45 4.52 1.05 6.79.94 1.65-.1 1.93-2.2 2.7-3.53.22-.39.5-.89.88-1.05 2.26-1.05 2.2-2.98 2.48-5.08.67-4.04-.82-7.18-3.2-10.11ZM702.78 8.07c0-.95 0-2 1.27-2.1 1.27-.12 1.82.82 1.87 1.93a577.9 577.9 0 0 1 0 13.8c0 .95-.44 1.61-1.49 1.67-1.21.05-1.6-.72-1.6-1.77v-7.18a81.8 81.8 0 0 1-.05-6.36ZM163.26 161.9c-2.7 3.6-3.97 7.73-4.96 12.04-.11.44-.33.89-.88 1-.89-.17-.83-.94-.72-1.5 1.05-4.36 2.43-8.61 5.07-12.31.33-.45.72-1 1.33-.67.66.34.5 1 .16 1.44Zm-10.59-26.79c.33-.06.72.06 1.05.06v.33c-.33.05-.66.05-1 .16-.65.11-1.7-.05-1.65 1 .11.94 1.16.6 1.82.72.72.1 1.5.05 2.15.22 1.27.27 2.38 1.16 2.21 2.37-.16 1.1-1.54.5-2.37.6-.72.12-1.43.06-2.2 0-2.77-.05-3.43-.87-3.48-3.7.1-2.86 2.2-1.43 3.47-1.76Zm0 18.45c-2.92.33-5.84.39-8.77-.06-1-.16-1.76-.94-1.98-2.04-.06-.33.05-.83.27-1 1.05-.6 1.66.45 2.43.72.17.06.33.22.5.28.88.28 1.82 1.6 2.64.66.78-.88-1.21-1.16-1.04-2.43 1.87-.5 3.75-.27 5.51-.22.94 0 2.54-.6 2.6 1.1.16 1.33-.61 2.82-2.16 2.99Zm15.06-3.6c-1.16-1.26-.33-2.59-1-3.64-.87-.27.28 1.83-1.32 1.05-3.03-1.38-6.23-1.16-9.32.06-3.09 1.21-5.9-.5-8.82-.89-1.5-.22-3.42-1.49-3.37 1.66 0 .6-.66.39-1.1.22-2.81-.94-4.64-6.63-2.98-9.11.55-.77 1.16-.89 1.76-.06.5.67.83 1.44 1.27 2.1 1.88 3.04 4.09 3.48 7.23 1.6a5.73 5.73 0 0 1 5.8-.16 9.5 9.5 0 0 0 9.31-.06c1.5-.83 2.82-.5 2.87 1.5.11 1.76.33 3.59-.33 5.74ZM663.51 5.75c11.74.06 23.5.06 35.24 0 1.99 0 2.81.67 2.81 2.71a221.8 221.8 0 0 0 0 12.1c.06 2.2-.93 2.87-2.97 2.87-5.85-.05-11.75 0-17.6 0-5.8 0-11.58-.05-17.32 0-2.1.06-3.03-.72-2.98-2.87.11-3.92.11-7.9 0-11.88-.1-2.04.6-2.92 2.81-2.92Zm2.8 61.2c0-1.98.28-2.59 2.6-2.42 8 .66 16 .22 24 .22 1.65 0 2.97-.77 2.97-2.54 0-1.94-1.54-2.27-3.14-2.27-8 0-16-.05-24 .11-1.87.06-2.37-.5-2.37-2.26-.1-5.53-.16-5.53 5.3-5.53h19.58c1 0 2.04-.05 2.98-.33 1.05-.33 1.7-1.16 1.6-2.32-.06-1.05-.72-1.7-1.71-1.93-1-.22-1.99-.39-2.98-.39l-22.9.17c-.16 0-.38.1-.54.05-2.82-1.6-.83-4.25-1.27-6.35-.28-1.27.33-1.82 1.93-1.77 8 .17 16 .22 24 .22 1.76 0 3.52-.5 3.47-2.65-.11-1.99-1.77-2.37-3.48-2.37-8 .05-16 .05-24 .22-1.53.05-1.98-.44-1.98-1.82v-.28c.11-8.9-1.1-7.4 7.06-7.51 6.62-.06 13.24 0 19.86 0 4.3 0 4.36 0 4.36 4.2v104.1c0 3.81 0 3.81-3.86 3.81-8.11 0-16.16-.06-24.27.06-2.43.05-3.15-.83-3.15-3.2 0-22.5 0-44.86-.05-67.23Zm1.66-4.8c.06-.88 1.05-.83 1.82-.83 7.45-.05 14.9-.1 22.34-.1.78 0 1.88 0 1.82 1.15-.05.94-1.04.83-1.76.83h-22.34c-.83 0-1.99.17-1.88-1.05Zm0-12.26c0-1.22 1.16-1 1.88-1 7.39-.05 14.84 0 22.23 0 .71 0 1.7-.05 1.76.89.11 1.16-.94 1.21-1.76 1.21-3.64.06-7.34 0-10.98 0h-11.25c-.77-.05-1.88 0-1.88-1.1Zm.06-12.82c-.06-1.43 1.54-1.32 2.53-1.38 3.48-.05 6.96 0 10.49 0v.06c3.47 0 6.95-.06 10.48.05.93 0 2.37 0 2.37 1.27 0 1.33-1.38.89-2.2.94-7.07.67-14.13.22-21.19.28-.94-.06-2.43 0-2.48-1.21Zm-2.93 44.3v51.93c0 .94 0 1.82-.16 2.76-.17 1-1 1.22-1.93 1.16-.83-.06-1.44-.39-1.55-1.27-.1-.83-.1-1.66-.1-2.49V27.18c0-1.16.43-2 1.7-2 1.44-.05 1.93.84 1.93 2.1v1.94c.11 17.34.11 34.74.11 52.14Zm-4.96-53.19a34013.63 34013.63 0 0 0 0 105.95c0 2.48-1 3.15-3.3 3.09-8.12-.11-16.17-.11-24.28 0-2.7.06-3.42-1-3.42-3.59.06-17.57.06-35.13.06-52.7V28.78c0-3.65.1-3.81 3.64-3.81 8 0 16 .05 24 0 2.36.05 3.3.77 3.3 3.2Zm-42.53-7.73c.11-4.03.06-8.12 0-12.15 0-1.72.66-2.49 2.43-2.49 11.2.06 22.45.06 33.65 0 1.7 0 2.53.66 2.53 2.43a489.13 489.13 0 0 0 0 12.7c0 1.94-.93 2.55-2.75 2.55-5.52-.06-11.04 0-16.55 0-5.4 0-10.87-.06-16.27.05-2.16 0-3.1-.77-3.04-3.1Zm10.43 60.98v51.87c0 .83 0 1.66-.06 2.48-.1 1.05-.77 1.38-1.7 1.38-.95 0-1.66-.33-1.77-1.32-.11-.83-.11-1.66-.11-2.49 0-34.69-.06-69.38 0-104.06 0-1.5-1-4.04 1.82-4.1 2.87-.05 1.82 2.55 1.82 4.04v52.2Zm-35.75 46.95c0-.6-.16-1.88 1.05-1.32 2.93 1.32 5.96.6 9 .72 5.4.1 10.86.05 16.26.05 1.77 0 3.7-.28 3.76-2.32.05-2.26-1.94-2.6-3.81-2.6h-22.06c-1.44 0-2.65.39-4.09 2V113.5c1.93 2.05 4.14 1.72 6.24 1.72h19.58c.88 0 1.87-.06 2.7-.34a2.1 2.1 0 0 0 1.55-2.1c-.06-1.15-.83-1.87-1.93-1.98-1.44-.11-2.93-.11-4.42-.11H597.1c-.82 0-1.82-.22-2.42.16-2.82 1.6-2.6-.05-2.49-2.04.17-2.38.06-4.75.06-7.3 6.18 2.5 12.19 1.39 18.1 1.33 2.75 0 5.5.33 8.21.11 1.82-.1 3.86-.44 3.92-2.6.05-2.37-2.1-2.75-4.03-2.75-7.28-.06-14.5 0-21.79-.06-1.49 0-2.65.6-4.08 1.66V88.38c1.93 2.21 4.14 1.88 6.34 1.88h17.38c.83 0 1.65.05 2.48-.06 1.82-.16 3.8-.6 3.7-2.81-.06-2-1.93-2.55-3.7-2.55-7.45-.05-14.9 0-22.34-.05-1.38 0-2.37.83-3.8 1.66V76.06c1.98 1.44 4.13 1.1 6.28 1.05 6.24-.1 12.52-.05 18.76-.05.93 0 1.82 0 2.75-.11 1.22-.17 2.1-.83 2.1-2.16 0-1.32-.94-1.93-2.1-2.2-.6-.12-1.26-.12-1.93-.12H597c-.56 0-1.22-.16-1.66.06-3.42 1.87-3.15-.39-3.04-2.6.06-2.1.06-4.25 0-6.35 0-1.71.78-2.49 2.54-2.49 8.66 0 17.27.06 25.93 0 2.31 0 2.37 1.5 2.37 3.15v35.9c0 11.16.05 22.27.05 33.42 0 3.48-.1 3.6-3.53 3.6-8 0-16-.06-24 .05-2.47.06-3.52-.83-3.36-3.37.06-1.77-.05-3.59 0-5.47Zm2.76-2.98c-.05-1 1.05-.88 1.71-.88 7.34 0 14.67-.06 22.07 0 .71 0 1.93-.28 1.87.94-.05.88-1.16.71-1.82.71-3.7.06-7.34 0-11.03 0h-11.03c-.72 0-1.77.17-1.77-.77Zm-.22-12.48c0-1.16 1.16-1.05 1.93-1.05h22.01c.72 0 1.71-.11 1.77.88.05 1.16-1 1.16-1.82 1.16-3.76.06-7.5 0-11.31 0h-10.76c-.72 0-1.82.17-1.82-1Zm23.94-13.76c.83 0 1.93 0 1.99 1.05.05 1.1-1.1 1.05-1.88 1.05-7.34.06-14.67.06-22.06 0-.78 0-1.93.06-1.93-1.05 0-1.32 1.27-1.1 2.1-1.1 3.69-.06 7.33 0 11.03 0 3.58.05 7.17.05 10.75.05Zm-.11-12.7c.77 0 1.88 0 1.82 1.16-.06.94-1 .94-1.7.94h-22.02c-.77 0-1.87-.06-1.82-1.22.11-1.1 1.21-.94 1.99-.94 3.64-.05 7.33 0 10.97 0 3.59.06 7.17 0 10.76.06Zm-.06-12.65c.78 0 1.88-.06 1.82 1.1-.05.94-.99.94-1.7.94-7.34 0-14.68.06-22.07 0-.77 0-1.93.06-1.82-1.1.11-1.1 1.22-.94 1.99-1 3.58-.05 7.17 0 10.75 0 3.7 0 7.34 0 11.04.06Zm-24.1-20.77c.06 2.43 1 4.3 3.64 4.8.72.17 1.6.23 1.43 1.28-.16.77-.93.71-1.6.77h-1.1c-4.63.05-4.63.05-4.63-4.48V38.56c0-1.33.33-2.43 1.82-2.66 1.82-.27 3.8-.82 5.3.4.99.82.16 1.7-.89 1.93-3.3.55-3.91 2.92-3.97 5.68a251.74 251.74 0 0 0 0 9.12Zm8.55-11.21c1.43-.22 2.92-.06 4.36-.06v-.05c1.38 0 2.76-.06 4.13 0 1.44.1 1.82 1.1 1.6 2.32-.22 1.49-1.2.94-2.1.71a13.58 13.58 0 0 0-7.27 0c-.67.17-1.6 1.27-1.99-.16-.27-1.05-.33-2.54 1.27-2.76Zm-1.1-4.86c0-.78.6-1.16 1.27-1.16 2.97.05 5.95.1 8.99.22.5 0 .77.5.77.99-.06.77-.6 1.16-1.27 1.16-1.43.06-2.92 0-4.36 0-1.38 0-2.7.06-4.08 0-.72-.06-1.32-.44-1.32-1.22Zm2.04 14.41a9 9 0 0 0 7.17-.1c.72-.34 1.65-.78 1.98.49.23 1.16.12 2.32-1.37 2.43-1.44.1-2.93 0-4.36 0v.05c-1.27 0-2.54.06-3.86 0-1.66-.05-2.04-1.1-1.71-2.43.27-1.49 1.38-.71 2.15-.44Zm-1.16-3.42c.06-2.32 2.7-2.21 4.58-2.49 1.93.33 4.8.06 4.74 2.54 0 2.54-2.98 2.32-4.85 2.32-1.77.06-4.53.06-4.47-2.37Zm20.19.22c0 3.04-.06 6.07.05 9.06.06 1.82-.66 2.76-2.53 2.65-.45-.06-.94.05-1.38 0-1.27-.22-3.37.72-3.7-.77-.44-1.77 1.88-1.05 2.87-1.72a5.28 5.28 0 0 0 2.65-4.8c0-3.04.05-6.08 0-9.06-.06-2.76-1.05-4.8-4.14-5.25-.83-.1-1.76-.33-1.6-1.44.17-1.04 1.1-1.1 1.93-1.16.94-.05 1.82 0 2.76 0 2.32 0 3.25 1.05 3.14 3.43-.1 2.98-.05 6.02-.05 9.06Zm-3.48-23.15c2.54-.05 3.59.67 3.53 3.43-.16 6.52.5 5.96-5.9 6.02h-9.6c-4.19 0-8.44-.06-12.63 0-1.82 0-2.6-.66-2.7-2.54-.39-6.85-.44-6.85 6.45-6.85 6.95 0 13.9.05 20.85-.06Zm-44.9-4.58c.11-4.03.06-8.07 0-12.15 0-1.72.67-2.49 2.43-2.49h34.14c1.71 0 2.54.66 2.54 2.43a489.13 489.13 0 0 0 0 12.7c0 1.94-.94 2.55-2.7 2.55-5.68-.06-11.36 0-17.1 0-5.4 0-10.81-.06-16.27.05-2.21 0-3.1-.77-3.04-3.1Zm12.58 43.58c.28-3.48-.17-6.96-.22-10.44 0-1.1.05-2.2.22-3.26.17-.94.88-1.32 1.82-1.27 1.05.06 1.43.67 1.49 1.6.05.83.05 1.66.05 2.49v79.98c0 .83 0 1.66-.05 2.49-.06.94-.55 1.55-1.6 1.55-1.05.05-1.82-.33-1.99-1.44-.1-.83-.1-1.66-.1-2.49 0-12.15-.23-24.3.05-36.4.33-10.99-.55-21.93.33-32.8Zm.39-16.4H292.56c-1.77 0-3.64.22-3.53-2.49.05-1.44.66-2.26 2.15-2.26.83 0 1.65-.06 2.48-.06h293.06c1.27 0 2.87-.55 3.7 1.05 1.1 2.1-.17 3.76-2.81 3.76Zm-31.23 48.66c0-1.88.72-2.65 2.6-2.65 8 .05 16 .05 24 0 2.09 0 2.7.94 2.7 2.87-.06 6.35 0 12.7 0 19.06 0 6.24-.06 12.54.05 18.78 0 2.1-.72 2.98-2.87 2.93-7.83-.06-15.6-.06-23.44 0-2.1 0-2.98-.67-2.98-2.88 0-12.7 0-25.4-.06-38.11Zm2.21-8.78c0-1.1 1.1-1.05 1.93-1.05h21.18c.72 0 1.66.05 1.77.94.1 1.16-1 1.16-1.77 1.16-3.58.05-7.17 0-10.75 0-3.48 0-6.95.05-10.48 0-.72 0-1.88.1-1.88-1.05Zm21.3-27.62h-17.93c-.94 0-1.88 0-2.7.22-1.11.28-1.66 1.1-1.66 2.26 0 1.05.6 1.83 1.6 2 1.32.21 2.76.44 4.08.44 6.95-.11 13.96.38 20.9-.28 1.5-.17 1.44.72 1.44 1.66v22.59c-.55-3.26-1.27-3.98-4.74-3.98a1157.79 1157.79 0 0 0-19.59 0c-3.7 0-4.3.66-4.63 4.14-.5-.88-.28-1.82-.28-2.7-.05-10.77.06-21.49-.1-32.26-.06-2.65.82-3.54 3.47-3.48 7.45.1 14.9.1 22.28 0 2.54-.06 3.59.72 3.59 3.42 0 5.97.11 5.97-5.74 5.97Zm2.7 1.32c.82 0 1.87.06 1.82 1.16-.06.94-1.1.83-1.77.83h-21.46c-.77 0-1.93.11-1.93-1 0-1.2 1.16-.99 1.88-.99 3.58-.05 7.17 0 10.76 0 3.53 0 7.11-.05 10.7 0Zm-31.17 32.37V54.7c0-.94 0-1.83.11-2.77.11-.82.66-1.27 1.5-1.27.87 0 1.43.39 1.54 1.22.1.83.1 1.66.1 2.48 0 26.3 0 52.59-.05 78.88 0 1.44.94 3.87-1.71 3.81-2.37-.05-1.49-2.37-1.54-3.75.05-13.26.05-26.52.05-39.72Zm-7.61 17.02c-6.51.16-13.07.05-19.58.05-1.6 0-3.48-.05-3.48 2.16-.05 2.26 1.88 2.43 3.59 2.43h21.23c1.33 0 2.54-.22 3.98-1.55.55 3.43.27 6.3.27 9.11 0 .94-.39 1.44-1.38.78-.88-.66-1.87-.66-2.92-.66h-20.96c-.44 0-.94 0-1.38.05-1.49.17-2.48.88-2.48 2.43 0 1.55.99 2.32 2.48 2.38 2.1.1 4.25.16 6.34.05 6.35-.22 12.69.6 18.98-.5.88-.16 1.21.17 1.32.94.06.45.06.94.06 1.38-.11 8.84 1.1 7.46-7.34 7.57-6.34.06-12.69-.05-19.03.06-2.43.05-3.48-.61-3.42-3.26.11-12.43.11-24.86 0-37.29 0-2.2.6-3.15 2.98-3.15 8 .11 16 .06 24 .06 1.48 0 2.8.1 2.8 2.1 0 1.77.34 3.59-2.48 2.04-.82-.44-1.98-.27-2.97-.27h-18.76c-.94 0-1.87 0-2.7.22-1.21.33-2.15 1.16-2.15 2.54 0 1.27.94 1.99 2.04 2.32.94.27 1.98.33 2.98.33 5.95.05 11.97.05 17.92 0 1.16 0 2.49.05 3.53-.44 2.16-1.05 2.76-.39 2.65 1.82-.1 2.1.55 4.7-.44 6.19-1.1 1.43-3.75.05-5.68.1Zm3.42 2.37c0 1.1-1.16 1-1.93 1h-20.96c-.78 0-1.93.1-1.99-1-.05-1.38 1.27-1.05 2.1-1.05 3.47-.05 7 0 10.48 0 3.42 0 6.78-.05 10.2 0 .83-.05 2.1-.27 2.1 1.05Zm-.17 12.43c-.05 1.05-1.26.77-2.04.83-3.42.05-6.78 0-10.2 0h-10.48c-.66 0-1.82.17-1.82-.72-.06-1.21 1.16-.94 1.93-.94 6.9-.05 13.79-.05 20.68 0 .72-.05 1.93-.27 1.93.83Zm-22.5-36.79c-.88 0-2.15 0-2.15-1.16 0-1.27 1.32-1 2.15-1a1248.62 1248.62 0 0 1 20.35 0c.83 0 2.15-.16 2.15 1.11s-1.32 1.05-2.15 1.05c-3.36.06-6.78 0-10.15 0h-10.2Zm22.61 11.66c-.05.88-.99 1-1.7 1H524c-.72 0-1.71-.12-1.71-1.06 0-1.16 1.1-1.05 1.87-1.05 3.48-.05 6.95 0 10.48 0 3.59 0 7.17-.05 10.76 0 .72 0 1.82-.1 1.76 1.1Zm-2.31-27.9c-6.62.33-13.24.11-19.86.17-.94 0-1.88 0-2.7.27a2.1 2.1 0 0 0-1.6 2.32c.1 1 .66 1.72 1.7 1.88 1.44.22 2.93.61 4.37.5 6.4-.66 12.85-.28 19.25-.33 1.15 0 2.53-1.1 3.36-.22.94 1 .28 2.65.39 4.03v.83c0 3.7 0 3.42-3.53 3.2-4.2-.27-8.44-.1-12.7-.1-3.02 0-6.06-.06-9.1.05-2.86.1-3.8 1.16-4.46 4.08v-8.5c0-8.84.11-17.68-.06-26.52-.05-2.7.94-3.48 3.54-3.42 7.6.1 15.27.1 22.89 0 2.42-.06 3.47.66 3.47 3.26-.05 6.13.06 6.13-6.07 6.13H525c-1.65 0-3.7-.06-3.7 2.26 0 2.27 1.88 2.65 3.76 2.65 7.44-.05 14.89-.05 22.28-.22 1.7-.05 2.37.45 2.37 2.1-.05 1.94.55 4.15-.17 5.75-.99 2.2-3.03-.22-4.68-.17Zm2.37 2.32c.1 1.22-1 1.16-1.77 1.16-3.58.06-7.17 0-10.7 0-3.47 0-6.95.06-10.42 0-.78 0-1.93.22-1.88-1 0-1.04 1.1-1.1 1.93-1.1 7.06-.05 14.12-.05 21.18 0 .67.06 1.6 0 1.66.94Zm.94-12.54c0 1-.94 1-1.66 1-3.7.05-7.34 0-11.03 0-3.42 0-6.79.05-10.2 0-.83 0-2.21.33-2.27-.83 0-1.1 1.44-1 2.26-1.05 5.8-.11 11.59-.11 17.32-.17 1.27 0 2.6 0 3.87.06.71.05 1.7-.06 1.7 1Zm-29.4 31.71v39.72c0 .71 0 1.49-.06 2.2-.1 1.06-.83 1.39-1.76 1.39s-1.66-.33-1.77-1.33c-.1-.88-.1-1.82-.1-2.76V54.13c0-.66 0-1.27.05-1.93.05-1.1.71-1.6 1.82-1.66 1.1 0 1.76.5 1.82 1.6.05.83.05 1.66.05 2.49-.05 13.1-.05 26.18-.05 39.22Zm-23.06-40.6c0-2.04.83-2.82 2.81-2.76 2.32.05 4.58 0 6.9 0 1.32 0 2.76-.28 2.92 1.88.11 1.49 1.66.6 2.2.44 1.55-.44 1.77.33 1.94 2.1.44-1.55.71-2.38 1-3.26l.32.05v81.7c0 3.87 0 3.87-3.8 3.87-3.75 0-7.56-.06-11.31 0-2.04.05-3.03-.61-3.03-2.82.1-27.07.1-54.13.05-81.2Zm-1.66 40.6v38.89c0 .83 0 1.65-.05 2.48-.06 1-.33 1.88-1.54 1.88-1.38.06-1.66-.88-1.71-1.99v-81.1c0-.72 0-1.49.1-2.2.17-.84.72-1.22 1.6-1.22.89 0 1.38.44 1.5 1.32.1.83.1 1.66.1 2.49v39.44Zm-22.11 28.89c-1.44-22.76-.78-45.52-.89-68.33 0-1.1-.38-2.37.67-3.59 1.2 1.05.55 2.43 1.15 3.65.39-.94.45-2.1 1.93-1.44.23.1 2.7.55 2.54-1.71-.05-.72.94-.78 1.55-.78h8c1.48 0 2.2.72 2.15 2.21v80.04c0 4.48 0 4.48-4.64 4.48h-11.03c-1.27 0-2.76-.11-2.2-1.88 1.43-4.25 1.04-8.5.77-12.65Zm-2.15-41.54v26.24c0 .83 0 1.66-.12 2.48-.05.72-.5 1.22-1.26 1.22-.78 0-1.16-.5-1.22-1.22-.05-.82-.1-1.65-.1-2.48v-53.8c.16-1.1-.4-2.82 1.37-2.82s1.33 1.71 1.33 2.82V81.2Zm-4.53 25.58c-.77.22-.77-.56-.88-1.1-.17-1.11.33-2.72-1.16-3.1-2.04-.5-4.3-.89-6.18.27-2.42 1.44-4.41 1.94-6.5-.38-1-1.05-2.21-.44-3.37-.28-3.64.6-4.2.11-4.2-3.53V61.43c0-1.22-.43-2.71 1.33-3.2 1.05-.34 2.48-.62 1.93-2.05-.5-1.27-1.76-.22-2.87-.17-.44-2.37.66-3.31 2.7-2.93 1.38.28 1.88.06 2-1.38.1-1.16 1.26-1.16 2.2-1.16h13.24c1.76 0 2.42.78 2.42 2.49 0 17.4 0 34.74-.05 52.14-.06.56.16 1.44-.6 1.6Zm-20.8 17.06c-1.15 0-1.48-.88-1.48-1.87v-8.01c0-1.33.33-1.72 1.82-1.44 1.38.28 2.37-.66 3.42-1.77 1.87-1.99 3.58-4.75 7.22-3.7 0 3.2-1.43 4.64-4.68 4.37-1.38-.11-1.71 1.16-1.71 2.32v18.5c0 1.99 1.04 2.76 2.97 2.76 3.75-.05 7.56-.05 11.31 0 .94 0 2.37-.33 2.32 1.16 0 1.27-1.33 1-2.2 1.05-5.97.06-11.92.06-17.93 0-.83 0-2.16.22-2.21-1.05-.06-1.38 1.27-1.05 2.1-1.1 1.37-.17 1.87-1 1.93-2.21.05-1.77 0-3.48.05-5.25 0-2.1-.33-3.7-2.92-3.76Zm-2.8-11.32c.16 3.48.05 6.96.05 10.5v11.6c0 1.38-.11 2.65-1.99 2.6-1.76-.06-1.65-1.39-1.65-2.6 0-7.35-.06-14.7.05-22.04 0-1.55-.55-4.2 1.88-4.15 2.54-.05 1.6 2.54 1.65 4.09Zm-7.67-5.8c-.83.22-1.82.11-2.65-.33-.5-.28-.83-.72-.77-1.33.05-.71.44-1.21 1.16-1.32.6-.11 1.43-.39 1.87-.11 2.87 1.54 6.07.05 9 1.27 1.04.44 2.3.33 3.41.5-3.97 1.15-8.1.22-12.02 1.32Zm2.7 10.83c.05 1.21 0 2.37 0 3.59.05 1.49-.17 2.81-2.1 2.81-.27 0-.6.06-.77.23-2.48 2.2-1.21 5.13-1.38 7.78-.1 1.5.28 2.99 2.26 3.15.72.06 1.66 0 1.66 1 0 1.16-1.1 1.1-1.88 1.1-2.87.06-5.68 0-8.55 0-2.76 0-5.51-.05-8.27 0-1.71.06-2.54-.72-2.54-2.48.06-1.83 0-3.7 0-5.53V54.4c0-3.86.06-3.91 3.8-3.91 3.15 0 6.24.05 9.38 0 1.71 0 3.37-.06 3.7 2.2.11.78.44.45 1.05.23 1.1-.28 2.7-.94 3.14 1.16.28 1.32.33 2.26-1.49 1.71-.5-.17-1.16-.33-1.43.33-.28.72.27 1.38.83 1.55 2.75.6 2.48 2.65 2.48 4.7v35.9c0 4.03 0 4.03-4.14 4.09-3.42.05-4.41 1.1-4.03 3.92.34 2.32 2.7 1.27 3.48 2.26.72.94-.88 3.6 1.49 3.6 4.47.1 3.25 3.03 3.3 5.4Zm3.14-15.25c-1.98.06-1.87-1.38-1.87-2.7V77.5c0-7.18 0-14.36.05-21.54 0-1.16-.55-2.88 1.55-2.88 1.87-.05 2.15 1.27 2.15 2.82v43.64c-.06 1.32.05 2.76-1.88 2.76Zm13.9 29.83c-1.54-.88-1.49-1.93-1.49-2.93-.05-3.86 0-7.73 0-11.6 0-.72-.05-1.49.5-2.1a1.44 1.44 0 0 1 .94-.38c.44 0 .55.44.5.83-.72 5.24-.06 10.6-.45 16.18Zm-40.15.77c0 .83 0 1.66-.06 2.49-.05 1.05-.5 1.77-1.65 1.77-1.22-.06-1.5-.83-1.55-1.88-.05-.66-.05-1.27-.05-1.93V54.19c0-.72 0-1.5.1-2.21.12-.83.62-1.33 1.5-1.33.99-.05 1.54.45 1.65 1.44.06.83.06 1.66.06 2.48v78.33Zm-4.97.5c0 3.76-.05 3.81-3.91 3.81-3.7 0-7.34-.05-11.03 0-2.05.06-2.76-.83-2.76-2.82.05-27.06.05-54.13 0-81.14 0-1.99.71-2.87 2.76-2.76 2.1.1 4.24 0 6.34 0 1.16 0 2.2.1 2.65 1.43.38 1.16 1.87 1.5 2.48 1.16 1.93-1.1.88.89 1.6 1.27.5-1.1.38-2.26 1.21-3.25.94.82.6 1.87.6 2.76.06 26.57.06 53.08.06 79.54Zm-19.3-39.27v40.54c-.06 1.1-.06 2.32-1.6 2.38-1.55.05-1.66-1.1-1.71-2.27v-1.66c0-26.18 0-52.42.05-78.6 0-1.44-.99-3.92 1.71-3.81 2.49.1 1.55 2.54 1.55 3.98.05 13.14 0 26.29 0 39.44Zm-4.97-26.74v65.96c0 3.8-.05 3.86-3.86 3.86H370c-3.86 0-3.86-.05-3.86-3.81v-81.6h.39c.1.89.22 1.72.38 3.32.6-3.1 2.54-1.33 3.75-1.88.39-.17 1.05.28.94-.6-.28-2.16 1.05-2.16 2.54-2.1 2.48.05 4.96.05 7.44 0 1.99-.06 2.82.77 2.76 2.75-.05 4.7 0 9.4 0 14.09Zm-19.41 26.8v39.16c0 .71 0 1.49-.06 2.2-.05 1.16-.72 1.6-1.82 1.6s-1.76-.5-1.82-1.65c-.05-.83-.05-1.66-.05-2.49V54.35c0-.83 0-1.65.1-2.48.12-1.05.89-1.33 1.77-1.33.94 0 1.66.33 1.71 1.38.06.83.11 1.66.11 2.49a8787 8787 0 0 1 .06 39.77Zm-4.97 39.98c0 2.27-.71 3.1-3.03 3.04-7.89-.1-15.83-.05-23.72 0-2.04 0-3.09-.6-2.98-2.87.11-2.54 0-5.14 0-8.34 1.55 1.88 3.09 1.77 4.69 1.77h20.96c1.6-.11 3.42-.4 3.42-2.38-.05-1.82-1.65-2.48-3.36-2.54h-20.41c-1.71 0-3.53-.28-5.24 2.2v-9.77c0-.88.38-1.21 1.21-.72 1.43.83 3.03.56 4.58.56 6.07.05 12.13 0 18.2 0 .94 0 1.82 0 2.76-.11 1.32-.17 2.31-.83 2.26-2.27-.06-1.43-1.1-2.1-2.43-2.1-3.42-.05-6.78-.05-10.2-.05H334.8c-1.44 0-2.92-.11-4.58 1.27v-9c0-.56-.1-1.55.94-1.11 5.07 2.15 10.37.88 15.5 1 2.81.05 5.68-.34 8.55-.06 1.87.22 3.8-.28 3.97-2.43.16-2.21-1.82-2.82-3.64-2.82-7.17-.05-14.34 0-21.51-.05-1.38 0-2.38.82-3.59 1.27-.77-4.7-.44-5.14 3.97-5.14 7.34 0 14.73.05 22.07-.06 2.48-.05 3.42.78 3.42 3.32 0 12.6 0 24.97.05 37.4Zm-27.41-8.89c.05-.83.94-.77 1.54-.77h22.01c.6 0 1.55 0 1.55.77 0 1-1.05.88-1.71.88-3.59.06-7.17 0-10.76 0H334.2c-.71 0-1.7.17-1.65-.88Zm-.11-12.37c-.06-1.22 1.1-1.05 1.87-1.05 7.06-.06 14.12-.06 21.18 0 .78 0 1.94-.22 1.94.94s-1.1 1.1-1.88 1.1c-3.59.06-7.17 0-10.76 0h-10.48c-.77 0-1.87.11-1.87-1Zm.05-12.65c0-1.16 1.1-1.1 1.88-1.1 3.58-.06 7.17 0 10.7 0h10.42c.78 0 1.88-.06 1.82 1.15-.05.94-.99.94-1.7.94h-21.46c-.72 0-1.66 0-1.66-1Zm27.42-12.04c-1.22-3.2-3.31-3.48-5.63-3.48-5.63.05-11.2 0-16.82 0-2.37 0-4.8-.28-7.23 1.82v-20.4c0-1.16.66-1.49 1.77-1.49 6.9.06 13.73.06 20.63.06 1.1 0 2.2.05 3.3-.06 1.5-.1 2.43-.94 2.38-2.48-.06-1.44-1-2.16-2.32-2.27-1.82-.1-3.7-.1-5.51-.1-5.96 0-11.97-.06-17.93.05-1.82.05-2.43-.56-2.37-2.32.1-8.23-.83-7.02 6.73-7.07 6.73-.06 13.4 0 20.13-.06 1.93 0 2.87.5 2.87 2.65v35.13Zm-2.6-.72c0 1.1-1.1 1.05-1.87 1.05-3.48.05-6.95 0-10.43 0-3.47 0-6.95.05-10.42 0-.83 0-2.15.16-2.04-1.22.05-1.05 1.21-.94 1.98-.94h20.9c.78.06 1.88 0 1.88 1.1ZM331.9 62.25c.05-1.05 1.15-1.05 1.93-1.05 6.84 0 13.73 0 20.57.06.83 0 2.26-.11 2.2 1.05-.05 1.16-1.43.88-2.25.88-3.37.06-6.79 0-10.15 0-3.48 0-6.95.06-10.43 0-.72 0-1.93.22-1.87-.94Zm-3.31 30v40.82c0 .94 0 1.82-.11 2.76-.11.83-.67 1.27-1.5 1.27-.82 0-1.43-.39-1.54-1.22-.1-.82-.1-1.65-.1-2.48V53.7c.1-1.28-.4-3.1 1.76-3.05 1.93.06 1.54 1.77 1.54 2.99 0 12.87-.05 25.74-.05 38.6Zm-34.64-24.8c-.06-2.32.66-2.82 3.03-2.77 7.23.23 14.5.11 21.79.11 1.82 0 3.47-.44 3.47-2.65 0-2.2-1.76-2.26-3.36-2.26-7.56 0-15.06-.06-22.62.1-1.76.06-2.26-.43-2.26-2.09.11-8.73-1-7.3 6.95-7.35 6.62-.05 13.24 0 19.86-.05 1.93 0 2.87.55 2.87 2.65-.06 11.6-.06 23.2-.06 34.8 0 .33-.1.66-.27 1.49-.39-3.87-1.16-4.58-4.53-4.64-6.62-.05-13.24-.05-19.85 0-3.59.06-4.53 1.1-4.42 4.53-.88-.72-.55-1.71-.55-2.6 0-6.4.06-12.87-.05-19.27Zm1.65-5.14c-.05-1.27 1.27-1.1 2.1-1.1 6.95-.06 13.95-.06 20.9 0 .78 0 1.93-.06 1.88 1.04-.06 1.16-1.22.94-1.93.94-3.48.06-6.95 0-10.43 0H297.7c-.83 0-2.04.17-2.1-.88Zm25.76 25.13c.06 1.1-1.1 1.1-1.88 1.16-7.17.06-14.28.06-21.45 0-.77 0-1.93 0-1.82-1.1.1-1 1.21-.94 2.04-1 3.64-.05 7.34 0 10.98 0h10.15c.82-.05 1.98-.16 1.98.94Zm-27.41 9.12c0-2.1.77-2.99 2.92-2.99 8 .06 16 .06 24 0 2.26 0 2.8 1 2.8 3.04-.05 6.24 0 12.54 0 18.78 0 6.24-.05 12.54.06 18.78.06 2.27-.77 3.1-3.03 3.1-7.89-.11-15.83-.06-23.72 0-2.1 0-2.98-.67-2.98-2.88 0-12.59 0-25.18-.05-37.83Zm-1.22-3.2v40.26c0 .72 0 1.5-.1 2.21-.12 1-.89 1.33-1.77 1.33-.94 0-1.66-.33-1.77-1.38-.05-.83-.1-1.66-.1-2.5V52.7c0-.72 0-1.5.05-2.21.05-1.1.71-1.6 1.82-1.6 1.1 0 1.7.55 1.82 1.65.05.83.05 1.66.05 2.49v40.32Zm-3.7-60.55v-5.8c0-1.21.56-1.93 1.83-1.93s1.82.72 1.82 1.93v12.15c0 1.22-.55 1.94-1.82 1.94s-1.82-.72-1.82-1.88v-6.41Zm8.78 5.42c-.89 0-2.15.1-2.2-1.05-.12-1.22 1.26-1.16 2.09-1.27 3.75-.56 7.5-.17 11.25-.28a220.74 220.74 0 0 1 8.55 0c1.16 0 2.92-.28 2.92 1.21 0 1.77-1.87 1.33-3.09 1.39-3.3.1-6.62.05-9.93.05v-.05c-3.2 0-6.4.05-9.6 0Zm30.72-.4c0 1-.33 1.89-1.49 1.94-1.16.06-1.65-.72-1.65-1.76a381.03 381.03 0 0 1 0-11.22c0-.94.5-1.54 1.49-1.6 1.15-.06 1.65.66 1.65 1.71.06 1.83 0 3.65 0 5.47a90.64 90.64 0 0 1 0 5.47Zm3.25-.76c0-1.33 1.33-1.33 2.38-1.22 6.84.5 13.73.39 20.57.06.94-.06 2.1-.17 2.15 1.05.06 1.05-1.1 1.21-1.87 1.21-3.64.06-7.34.06-10.98.06v.1h-9.87c-1-.05-2.37.06-2.37-1.26ZM361.23 27c0-1.05.39-1.76 1.6-1.88 1.21-.05 1.99.5 2.04 1.72a388.58 388.58 0 0 1 0 11.32c0 1.33-.88 1.6-2.04 1.6-1.21 0-1.6-.72-1.6-1.76v-5.25c0-1.88-.05-3.81 0-5.75Zm153.84 5.36V27.4c0-1.22.28-2.21 1.77-2.27 1.48-.05 1.93.83 1.93 2.1v10.5c0 1.27-.5 2.15-1.93 2.15-1.55 0-1.77-1.05-1.77-2.26v-5.25Zm10.48 5.86c-1 0-2.43 0-2.48-1.1-.06-1.44 1.49-.95 2.37-1 6.73-.61 13.51.55 20.24-.33 1-.11 2.38.05 2.43 1.21.11 1.44-1.32 1.27-2.26 1.27-3.36.06-6.78 0-10.15 0-3.42 0-6.78 0-10.15-.05Zm29.18-.4c0 .95-.28 1.89-1.49 1.89-1.1 0-1.65-.78-1.7-1.77a366.17 366.17 0 0 1 0-11c0-1.04.54-1.76 1.7-1.7 1.21.05 1.49.88 1.55 1.87.05 1.77 0 3.48 0 5.25-.06 1.77 0 3.59-.06 5.47Zm4.58-.82c.05-1 1.27-.77 2.04-1 1.65-.44 3.3.17 4.9.12l15.12-.33c1.1 0 2.6-.28 2.7 1.1.12 1.5-1.48 1.33-2.53 1.33-3.2.05-6.4 0-9.65 0v.16c-3.59-.16-7.18-.27-10.7-.5-.67 0-1.94.23-1.88-.88Zm31.27 1.88c0 1.1-.22 2.1-1.6 2.15-1.37.06-1.98-.77-2.04-2.04-.05-3.76-.05-7.51-.05-11.27 0-1.27.22-2.48 1.87-2.54 1.71-.06 1.88 1.16 1.88 2.43v5.52c0 1.88 0 3.82-.06 5.75Zm-18.2-32.6h.72v16.58l-.72-.06V6.3Zm10.43 18.73c2.15-.05 2.86.89 2.86 2.93.11 6.46.17 6.46-6.06 6.46h-18.15c-3.48 0-4.08.72-3.53 4.04.06.44.39.94-.22 1.16-.66.22-1.16-.22-1.16-.83-.27-4.2-.44-8.45.06-12.65.16-1.22 1.54-1.1 2.53-1.1h11.8c3.98.05 7.95.1 11.87 0ZM534.38 5.8c5.68.06 11.36 0 17.1 0 5.4 0 10.86.06 16.27-.05 2.26-.06 3.14.77 3.09 3.03-.11 4.04-.06 8.12-.06 12.16 0 1.7-.71 2.54-2.42 2.48H534.2c-1.76 0-2.48-.72-2.48-2.48.05-4.26.05-8.46 0-12.7-.11-1.94.88-2.5 2.65-2.44Zm-4.7.77c1.06 5.36.62 10.72.17 16.13-1.16-5.41-.99-10.77-.16-16.13Zm5.25 18.5c3.86 0 7.72.06 11.53-.05 2.26-.05 3.3.78 3.36 3.2.11 6.25.22 6.25-6.01 6.25h-17.87c-3.8 0-4.14.39-4.25 4.3 0 .45-.05.78-.5.78-.27 0-.77-.28-.82-.5a5.53 5.53 0 0 1-.28-1.87c-.05-3.04.06-6.08-.05-9.06-.11-2.32.88-3.1 3.08-2.99 3.92 0 7.9-.05 11.8-.05Zm-46.94-4.85c.16-3.87.1-7.74 0-11.55-.06-1.93.6-2.87 2.7-2.87 11.47.05 22.95.05 34.36 0 2.04 0 2.76.88 2.7 2.82a443.47 443.47 0 0 0 0 12.1c.06 2.04-.82 2.76-2.8 2.76-5.69-.06-11.37 0-17.05 0-5.52 0-11.03-.06-16.5.05-2.42 0-3.52-.72-3.41-3.31Zm21.29 4.86c4.58 0 4.58 0 4.58 4.53 0 2.65-.06 5.36 0 8 0 1.6-.78 2.38-2.38 2.38H370c-3.8 0-3.86-.05-3.86-3.86 0-2.88.06-5.7 0-8.57-.06-1.76.77-2.54 2.48-2.48h140.66Zm-63.76-5.25c.16-3.76.1-7.51 0-11.32-.06-2.05.82-2.77 2.8-2.77 11.04.06 22.07.06 33.05 0 2.04 0 2.76.83 2.7 2.82-.05 4.03-.1 8.07 0 12.15.06 2-.77 2.82-2.76 2.77-5.51-.06-11.03 0-16.55 0-5.24 0-10.48-.11-15.72.05-2.75.06-3.64-1-3.53-3.7ZM443.3 6.3h.71v16.57c-.22 0-.44-.06-.71-.06V6.3Zm-38.5 14.14c.1-4.03.05-8.07 0-12.15 0-1.72.66-2.49 2.42-2.49 10.65.05 21.3.05 31.94 0 1.71 0 2.48.72 2.48 2.49a489.14 489.14 0 0 0 0 12.7c.06 1.99-.93 2.54-2.7 2.54-5.24-.05-10.48 0-15.72 0-5.13 0-10.26-.05-15.44.06-2.21-.06-3.04-.89-2.98-3.15Zm-44.74-.33c.17-3.87.11-7.74 0-11.6-.05-2.05.78-2.77 2.76-2.77 11.7.06 23.33.06 35.03 0 2.26 0 3.14.83 3.09 3.1-.12 3.97-.06 7.9 0 11.87.05 2-.83 2.82-2.82 2.77-5.9-.06-11.75 0-17.65 0-5.68 0-11.42-.11-17.1.05-2.54.06-3.42-.94-3.3-3.42Zm-.1 7.79c-.12 3.3 0 6.62-.06 9.94 0 .94-.11 2.1-1.44 1.82-1.21-.27-.27-1.16-.16-1.77.38-2.2-.67-3.37-3.42-3.37-7.34-.05-14.68-.1-22.01.06-1.93.05-2.65-.33-2.6-2.32.17-8.23-.88-7.07 6.96-7.18 2.64-.06 5.35 0 8 0 3.97 0 7.88.05 11.85 0 1.99-.06 2.93.6 2.87 2.82Zm-50.7-7.8c.11-3.75.11-7.56 0-11.32-.06-2.04.6-3.03 2.81-3.03 13.8.05 27.58.05 41.37 0 2.04 0 2.82.82 2.76 2.81-.05 3.98-.1 7.9 0 11.88.06 2.26-.88 3.1-3.09 3.04-6.78-.11-13.62-.06-20.4-.06-6.74 0-13.41-.05-20.14.06-2.54.05-3.42-.89-3.31-3.37Zm-.5 4.98c3.98 0 7.9.05 11.86 0 2.04-.06 3.1.6 2.98 2.87-.1 3.2 0 6.46-.05 9.67 0 .88.05 2.2-1.22 1.98-1.1-.22-.16-1.21-.1-1.82.32-2.6-1.33-3.2-3.37-3.26-7.45-.05-14.9-.16-22.34.06-2.2.05-2.65-.55-2.65-2.54.17-8.01-.94-6.85 6.84-6.96 2.76-.06 5.4 0 8.05 0Zm-41.97-4.64c.1-3.98.1-7.9 0-11.88-.06-2.04.82-2.76 2.81-2.76 11.03.05 22.06.05 33.1 0 1.98 0 2.81.72 2.75 2.76a213.74 213.74 0 0 0 0 11.88c.06 2.26-.77 3.15-3.03 3.1-5.4-.12-10.87-.06-16.27-.06s-10.87-.06-16.27.05c-2.32 0-3.2-.83-3.1-3.1Zm21.01 113.84c.06 2.1-.71 2.98-2.87 2.93-8.38-.06-16.7-.06-25.1 0-2.14 0-2.92-.77-2.92-2.93.06-23.36.06-46.73 0-70.1 0-2.31 1-3.09 3.15-3.09 8.16.06 16.38.06 24.54 0 2.15 0 3.26.72 3.15 3.04-.11 2.65 0 5.36-.06 8.01 0 1.22-.33 1.82-1.6.88-.88-.66-1.93-.55-2.92-.55h-21.79c-.72 0-1.49 0-2.2.22-1.16.39-1.88 1.22-1.71 2.49.1 1.21.99 1.71 2.1 1.77 2.75.1 5.5.22 8.27.16 4.52-.05 8.99-.33 13.45.17 2.16.27 4.14-.28 6.24-1.27v10.44c-2.54-2-5.19-1.72-7.84-1.72h-17.1c-.82 0-1.65-.05-2.48.11-1.43.28-2.76.94-2.64 2.66.1 1.6 1.26 2.43 2.75 2.6 1.44.16 2.93.1 4.42.1h16.82c1 0 2.04 0 3.03-.22 3.26-.72 3.2-.77 3.2 2.76v16.3c0 1.55-.1 2.04-2.15 1.82-4.63-.44-9.38-.22-14-.27h-11.32c-1.38 0-2.7.27-2.75 1.98-.06 1.72 1.15 2.49 2.7 2.49 8.1.05 16.16 0 24.27.05 1.1 0 2.15-1.49 2.98-.66.82.89.27 2.49.33 3.76 0 5.41-.06 10.77.05 16.07Zm-28.6-80.81c.1 2.49 1.48 4.09 4.13 4.36.6.06 1.44.11 1.38 1 0 .83-.77.88-1.43 1-.39.05-.72.05-1.1.05-5.25.22-5.25.22-5.25-4.97v-7.18c0-3.04.11-6.08-.05-9.12-.11-2.26.77-3.26 3.03-3.04.55.06 1.1-.05 1.66.11 1.1.28 2.87-.05 2.98 1.33.16 1.6-1.6 1-2.54 1.38a4.3 4.3 0 0 0-2.93 3.98c-.05 3.75-.05 7.45.12 11.1Zm9.15-11.71c1.44-.11 2.93 0 4.36 0 1.27 0 2.54-.06 3.8 0 1.38.11 1.94 1 1.77 2.26-.17 1.66-1.32 1.05-2.26.83-2.43-.66-4.86-.6-7.28-.1-.83.16-1.71.6-1.88-.73-.05-1.16.17-2.15 1.5-2.26Zm-.16-5.8c1.43-.22 2.92-.28 4.35-.39 1.38.11 2.76.22 4.14.39.6.11 1.27.44 1.27 1.22 0 .82-.72 1.05-1.32 1.05-2.76.05-5.52 0-8.22 0-.55 0-1.1-.23-1.22-.89-.16-.83.39-1.33 1-1.38Zm8.99 12.1c0 2.43-2.87 2.37-4.8 2.37-1.82.06-4.52.06-4.58-2.32-.06-2.65 2.65-2.37 4.3-2.54 2.37 0 5.08.17 5.08 2.49Zm-8.77 3.15a9.65 9.65 0 0 0 8.27-.11c.77-.4 1.49-.28 1.66.71.1 1 0 2.1-1.1 2.21-3.1.44-6.24.39-9.33.06-.88-.11-1-.94-1.05-1.71 0-1.05.55-1.6 1.55-1.16Zm19.41 5.3c.17 2.7-.99 3.7-3.58 3.37-.55-.06-1.1 0-1.66-.06-.77-.1-1.87.28-2.04-.83-.16-.94.89-1.05 1.55-1.27 2.1-.66 3.25-2.1 3.36-4.25.22-3.65.33-7.35-.1-11.05-.23-2.15-1.17-3.86-3.65-4.2-.77-.1-1.49-.38-1.38-1.32.11-.88.83-1.1 1.6-1.22 4.47-.94 5.85.22 5.85 4.8v7.47c0 2.87-.11 5.74.05 8.56Zm-26.7 19.33c-.77 0-1.92.11-1.98-1-.06-1.15 1.05-1.1 1.88-1.1h22.33c.78 0 1.94 0 1.83 1.16-.06 1.16-1.22.94-1.99.94-3.7.06-7.34 0-11.03 0-3.7.06-7.34.06-11.03 0Zm21.85 12.76c-7.12.06-14.29.06-21.4 0-.89 0-2.26.11-2.26-1-.06-1.37 1.43-1.15 2.37-1.15 3.64-.06 7.33 0 10.97 0h10.15c.89 0 2.15-.22 2.26 1 .12 1.26-1.2 1.1-2.1 1.15Zm2.2 24.25c.06 1.33-1.26 1.05-2.09 1.05-3.59.06-7.17 0-10.76 0h-11.03c-.88 0-2.15.17-2.1-1.16.06-1.1 1.22-.88 2-.88 7.27-.06 14.5-.06 21.78 0 .88 0 2.2-.28 2.2.99Zm-.77-87.83c2.43-.05 3.48.67 3.42 3.26-.05 6.13.06 6.13-6.12 6.13h-9.38c-4.13 0-8.27-.05-12.35.06-2.2.05-3.15-.72-3.1-3.04.12-7.24-.6-6.35 6.3-6.4 7.11.05 14.17.1 21.23 0ZM232.6 8.51c-.05-2.05.9-2.71 2.82-2.71 8.05.05 16.1.05 24.22 0 1.93 0 2.86.66 2.81 2.7a463.94 463.94 0 0 0 0 12.38c0 1.88-.83 2.6-2.7 2.6-4.14-.06-8.28 0-12.36 0-3.92 0-7.89-.06-11.8.05-2.1.06-3.04-.72-2.98-2.87.1-4.09.1-8.12 0-12.15Zm23.12 123.95v2.76c0 1.16-.5 1.94-1.76 1.94-1.27 0-1.82-.67-1.88-1.88 0-2.1-.05-4.26-.05-6.35V29c0-.72 0-1.5.05-2.21.06-1.1.72-1.66 1.82-1.66s1.77.5 1.82 1.6c.06.83.06 1.66.06 2.5v52.13c-.06 17.07-.06 34.09-.06 51.1Zm-36.18-41.2c0-2.22.27-3.27 2.53-1.5.61.5 1.77.44 2.65.44 6.9.06 13.8 0 20.69 0 .55 0 1.1 0 1.65-.1 1.6-.28 2.92-1.11 2.87-2.82-.06-1.6-1.38-2.38-2.87-2.43-3.2-.11-6.45-.11-9.65-.11h-12.14c-1.49 0-2.92.05-4.13 1.16-1.22 1.1-1.55.27-1.6-.89V28.94c0-3.7.16-3.86 3.91-3.92 8 0 16 .06 24-.05 2.48-.06 3.36.83 3.3 3.37-.1 17.56-.05 35.18-.05 52.75 0 17.5-.05 34.96.06 52.47 0 2.71-.72 3.76-3.53 3.7-8.17-.16-16.39-.1-24.55 0-2.37.06-3.2-.77-3.2-3.2.11-14.25.11-28.5.06-42.8Zm2.75-3.76c0-1.16 1.1-1.05 1.88-1.05h22c.78 0 1.88-.06 1.94 1.05 0 1.16-1.1 1.05-1.88 1.05-3.75.05-7.5 0-11.3 0h-10.76c-.77 0-1.88.05-1.88-1.05ZM185.77 5.8c6.62.05 13.24 0 19.8 0 6.5 0 13.02.05 19.53-.06 2.42-.05 3.25.83 3.2 3.2-.11 3.93-.06 7.9-.06 11.88 0 1.88-.77 2.66-2.65 2.66a4806.54 4806.54 0 0 0-39.93 0c-1.77 0-2.76-.56-2.76-2.54.05-4.26.05-8.46 0-12.71.05-1.93 1.1-2.43 2.87-2.43Zm30.67 131.35c-2.37 0-1.82-1.87-1.82-3.25-.06-17.57 0-35.14 0-52.76v-52.2c0-.82 0-1.65.1-2.48.12-1 .83-1.38 1.77-1.38s1.66.33 1.77 1.38c.1.83.1 1.66.1 2.48v104.9c-.21 1.44.4 3.31-1.92 3.31ZM182.4 28.45c0-2.43.72-3.48 3.31-3.43 8.17.11 16.38.11 24.55 0 2.2 0 3.25.72 3.09 3.04-.17 2.1.6 4.7-.39 6.19-1 1.43-3.7.1-5.62.16-6.24.17-12.53.06-18.76.06-.83 0-1.65 0-2.48.16-1.21.28-1.88 1.16-1.93 2.38-.06 1.27.72 2.04 1.93 2.32.55.1 1.1.16 1.65.16 7.84 0 15.61 0 23.45-.1 1.65-.06 2.15.44 2.1 1.93-.06 1.82.54 3.97-.23 5.47-1 1.98-3.25.27-4.9.33-6.4.22-12.86.05-19.31.1-1 0-2.04.12-2.98.34-1 .22-1.66.88-1.66 1.93 0 1.1.44 2.05 1.5 2.43.76.28 1.6.33 2.42.33 7.89 0 15.78-.05 23.72-.1.38 0 1-.12 1.05-.06.82 2.2.44 4.53.33 6.8-.11 1.76-1.66 1.04-2.6 1.1-7.33.05-14.72 0-22.06 0-.72 0-1.49 0-2.2.1-1.22.12-2.16.84-2.27 2.05-.1 1.38.78 2.21 2.04 2.54.45.11.89.17 1.38.17 8 0 16 .05 24-.17 1.6-.05 1.87.33 1.87 1.72-.05 6.62 0 13.25 0 20.88-1.82-2.49-3.86-2.44-5.9-2.44-6.23.06-12.52 0-18.75 0-.66 0-1.27-.05-1.93.06-1.77.22-3.48.77-3.37 2.87.06 1.94 1.77 2.49 3.42 2.49 7.56.05 15.06 0 22.62.05 1.38 0 2.37-.83 3.53-1.27.6.78.38 1.66.38 2.43v42.26c0 3.42-.1 3.54-3.58 3.54-8 0-16-.06-24 .05-2.53.06-3.36-.83-3.36-3.37 0-35.18 0-70.37-.06-105.5Zm29.35 8.45c.05 1.1-1.05 1.27-1.77 1.27-3.75.06-7.55.06-11.3.06v.1c-3.04 0-6.07.06-9.1 0-1.22-.05-3.26.4-3.26-1.1-.05-1.71 2.1-1.38 3.3-1.44 4.59-.1 9.22-.05 13.8-.05 2.2 0 4.41.05 6.62.17.66-.06 1.65.1 1.7.99Zm.05 13.09c-.1 1.05-1.21 1-1.98 1h-21.68c-.77 0-1.88.16-1.93-1-.06-1.16 1.1-1.05 1.87-1.1h22.01c.66 0 1.82-.17 1.71 1.1Zm-.1 12.1c.1 1.16-1.06 1.1-1.83 1.1-7.33.06-14.61 0-21.95 0-.72 0-1.71.06-1.71-.88-.06-1.16 1.05-1.1 1.82-1.1 3.64-.06 7.34 0 10.98 0h10.7c.77 0 1.87-.23 1.98.88Zm-.61 25.4c-.06 1-1.22 1.06-1.99 1.06-3.7.05-7.34 0-11.03 0v.05H187.3c-.83 0-2.15.17-2.1-1.16 0-1.05 1.16-1 1.94-1h22.06c.77 0 1.93-.1 1.88 1.06ZM179.7 23.32c-1.43 0-1.49-1.1-1.49-2.15V8.56c0-1.27.39-2.6 1.88-2.54 1.6.06 1.21 1.55 1.21 2.6.05 1.99 0 4.03 0 6.02v6.57c0 1.1-.22 2.1-1.6 2.1Zm5.85 115.56H427.7c3.42 0 6.78-.44 9.76 0h250.6c4.9 0 5.4.38 7.22 4.91.44 1.1.16 1.55-.94 1.6-.72.06-1.49.06-2.2.06h-206.3c-1.55 0-3.1-.05-4.58-.72-1-.5-2.15-.38-3.26-.16-8.93 1.93-17.98 1.27-26.86.5-4.69-.4-8.99.44-13.51.44-19.86-.11-39.72-.06-59.58-.06H183.62c-.83 0-1.66 0-2.49-.05-.6-.06-1.04-.34-1.1-1-.1-1.71 3.64-5.52 5.52-5.52Zm-4.7 34.58c-.21-11 7.95-20.83 18-20.55-12.09 3.37-18.16 10.55-16.78 22.54 1 8.45 6.24 12.98 18.43 16.62-10.2.55-19.48-8.56-19.64-18.61Zm16.45-2.88c-.5-1.54.33-2.43 1.87-1.93 1.27.39 2.37.55 3.7 0 1.21-.5 2.26.39 1.82 1.5-.6 1.65-1 3.03.22 4.47-.44 1.21-.88 2.32-2.37 1.49-1.05-.61-1.93-.61-3.1-.11-1.65.71-2.64-.17-2.14-1.94a5.77 5.77 0 0 0 0-3.48Zm-6.46-3.86c-2.26-4.42-.99-6.69 3.31-6.8 2.76-.05 5.52.06 8.22-.5.94-.21 2.2-.33 2.37 1.11.22 1.55-.88 2.1-2.26 2.1-1.38.05-2.76 0-4.13.05-2.93.17-5.8.61-7.5 4.04Zm.77-8.67c4.2-3.93 12.25-4.42 16.55-1.16-5.62.33-10.8-.12-16.55 1.16Zm25.16 22.31a17.8 17.8 0 0 1-17.93 9.78c-6.07-.78-12.8-4.92-14.9-12.87-1.43-5.42-.88-10.28 2.71-15.3 1.49 3.7 1.82 7.23 2.76 10.55.5 1.65.94 3.2 2.98 3.48.44.05 1.1.33 1.16.6.88 3.43 3.97 3.15 6.4 3.76 2.26.55 4.35-1.05 6.61-1.32.39-.06.83-.45 1.05-.83.55-.89.5-2.27 2.04-2.27 1.99 0 4.08-.44 5.96.6 1.49.9 2.1 1.89 1.16 3.82Zm12.13-21.7c-3.97 1.32-3.91 1.32-3.53 5.52.06.88.44 2.2-.71 2.32-1.05.1-.78-1.22-.89-2-.71-3.75-2.31-5.13-6.23-5.13-1.21 0-2.37.11-3.59.22-1.98.17-3.58.83-3.86 3.1-.27 2.32.61 4.3 2.7 5.24 1.5.72 2.54 1.77 3.6 2.88 2.97 3.2 4.68 3.14 7.44-.4.16-.16.38-.27 1.05-.71v6.52c0 .66-.28 1.6-.89 1.55-2.15-.34-4.74.1-6.23-1.5-3.7-3.97-6.95-8.28-10.48-12.42-1.21-1.39-1.16-2.88-.83-4.37.33-1.6 1.88-1.21 2.98-1.27 6.4-.44 12.8-.83 19.2-1.27.55-.05 1.21-.22 1.38.5.22.77-.45 1-1.1 1.21Zm38.28-5.25c-1.27 2.26-3.03 2.65-5.24 2.54a334.29 334.29 0 0 0-42.08 0c-2.21.1-3.92-.34-5.19-2.54h52.51Zm-34.64-2.93c0-.94.33-2 1.44-2.05 4.58-.05 9.15-.05 13.73-.05 1.1 0 1.6.88 1.66 1.88.05 1.16-.94 1.21-1.77 1.21-2.31.06-4.58 0-6.9 0h-6.61c-.66.06-1.55.06-1.55-1Zm14.68 33.7h-12.64c-.93 0-1.65-.28-1.65-1.39-.06-1.16.77-1.32 1.65-1.32h12.64c.88 0 1.7.16 1.7 1.27 0 1.16-.77 1.43-1.7 1.43ZM262 177.1c-.39-.55-1.55.28-2.26.55-1.93.83-2.93.17-2.76-1.82a31.8 31.8 0 0 0 0-6.02c1.27.55 1.49 1.44 1.98 2.04.94 1.1 2.38 1.72 3.42 1.05 3.31-2.1 6.9-4.2 8.94-7.62 1.65-2.76-.11-5.41-3.3-5.74a45.32 45.32 0 0 0-3.87-.17c-3.86.06-5.4 1.38-6.12 5.25-.11.72.22 2.04-1 1.82-.99-.16-.6-1.38-.66-2.15 0-.17.06-.39.06-.56.5-3.64.27-4.08-3.15-5.08-.6-.16-1.38-.22-1.32-1.1.05-.94.83-.83 1.43-.78 6.4.45 12.8.83 19.2 1.33 2.98.22 4.25 2.87 2.26 5.14-2.54 2.87-4.63 6.13-7.5 8.73-1.38 1.27-2.15 3.09-3.37 4.58-.33.6-.71 2.43-1.98.55Zm1.7-7.01a11.77 11.77 0 0 1 2.6-7.63c.6-.82 1.38-1.65 2.48-.77.94.77 1 1.82.33 2.7-1.43 2.05-2.92 3.98-5.4 5.7Zm36.2 8.95c-2.77 7.73-8.5 12.2-16.78 13.25-.44.06-.93.17-1.26-.66a19.1 19.1 0 0 0 11.03-4.25c4.24-3.43 6.45-7.9 7.06-13.26.05-.66.5-1.71-.5-1.82-1.16-.17-.77.94-.83 1.6-.55 7.84-6.5 14.36-14.67 16.13-6.67 1.43-14.78-2.43-18.26-8.67-1.65-2.99-.71-5.03 2.7-5.36 2.32-.22 4.58-.83 6.24 2.32 1 1.82 4.52 2.32 6.78 1.99 2.43-.4 6.07.33 6.9-3.65.05-.28.72-.6 1.16-.66 1.87-.22 2.53-1.6 2.98-3.2.77-3.1 1.6-6.25 2.26-9.4.6-2.76-1.77-5.47-4.97-5.74-4.4-.39-8.77-.78-13.18-.67-.66 0-1.76.28-1.88-.6-.1-1 1-1.16 1.77-1.33.83-.16 1.71-.39 2.43-.1 1.76.6 2.81.6 2.75-1.72 0-1.05 1.1-.66 1.83-.6 5.13.16 9.15 2.64 12.4 6.34 5.25 5.86 6.68 12.76 4.03 20.05Zm-20.64-10.33c1.22.38 2.32.5 3.42-.11.78-.4 1.82-.23 1.88.5.1 2.2-.11 4.47-.33 6.68 0 .22-.5.44-.89.71-1.6-1.38-3.14-.77-4.9-.27-1.05.27-1.66-1.16-1.05-2.21.66-1.22.38-2.16-.06-3.37-.66-1.6.28-2.49 1.93-1.93Zm-1.82-7.85c.11-1.16.89-1.49 2.15-1.43 3.04.71 6.35.27 9.66.6 2.59.22 3.97 3.43 2.53 5.7-.33.49-.82.93-1.2.16-1.72-3.37-4.97-2.87-7.9-3.2-1.16-.12-2.37 0-3.58-.12-1.1-.05-1.77-.6-1.66-1.7Zm79.16-8.9h-64.26v-.21h64.26v.22Zm42.97 4.32v-.5h30.17v.5h-30.17Zm-.61-2.7V153h28.13v.55h-28.13Zm27.63-3.16h-27.02c-1.44 0-2.6-.05-3.42-1.65-.72-1.44-3.8-1.44-4.75 0-.77 1.21-1.32 1.27-2.31.38-.83-.72-1.99-1.16-2.82-.44-2.7 2.38-5.9 1.77-8.93 1.6-13.24-.83-26.48-.22-39.66-.38-15.89-.17-31.83-.12-47.72-.06-3.86 0-7.77-1.22-11.52-.39-7.5 1.6-15 .56-22.5.83-2.38.11-5.14.83-6.13-2.6-.11-.33-.94-.55-1.44-.6-4.96-.06-9.92-.06-14.89-.06-.77 0-1.6.17-1.82.94-.6 2.49-2.48 2.32-4.36 2.27-6.06 0-12.13 0-18.2-.06-3.47-.05-6.84-1.49-10.37-.94-5.18.83-10.42.44-15.67.5-1.93 0-3.86-.06-5.79-.06-1.04 0-1.82-.38-1.87-1.54-.06-1.22.77-1.55 1.76-1.55 1.77-.05 3.48-.05 5.24-.05h255.34c1.04 0 2.15-.23 2.86.16-3.75 4.7-8.99 3.7-14 3.7Zm18.26 12.76c-3.58 0-3.75-.16-3.75-3.7V154c0-.66-.1-1.38.17-1.88 1.87-3.25 5.02-.71 7.44-1.49 1.44-.44 2.32.72 2.32 2.27v4.14c.06 6.8.77 6.13-6.18 6.13Zm26.1-13.25c-3.04-.06-6.07 0-9.05 0-5.3 0-5.3 0-10.48-3.2h23.33c.66 0 1.32.1 1.43.93.06.66-.5.88-.99 1.16a8.27 8.27 0 0 1-4.25 1.1Zm12.02 16.29c-.28 1.99-1.5 3.04-3.59 3.04-1.98 0-3.09-1.05-3.42-2.87-.22-1.16-.16-2.38-.22-3.54-.16-4.3.11-4.58 4.3-4.53 2.98.06 3.04.11 2.93 4.92.05 1 .16 2.04 0 2.98Zm58.03-16.3c-3.37-2.43-6.68-.38-10.1-.27-15.11.55-30.28.28-45.45.22-1.21 0-2.92.28-2.81-1.71.05-1.94 1.82-1.5 2.98-1.5 15.88-.05 31.77 0 47.65 0h75.52c.71 0 1.49 0 2.2.06.83.06 1.44.39 1.5 1.27.05.5-.17.94-.67 1.1-.72.34-1.38.34-1.99-.32-2.1-2.1-4.35-2.44-6.45-.23-2.43 2.55-5.07 2.77-8 1.6-2.7-1.04-5.4-.93-8.16-.71-15.39 1.05-30.78.22-46.22.5Zm51.13 26.24c-1.38-2.43-5.19 2.32-6.12-2.1 2.64-1.21-2.38-4.91 2.04-5.57 1.32 2.54 5.18-2.5 5.9 1.93-2.6 1.27 2.15 4.86-1.82 5.74Zm-6.79-13.14c-2.2.33-4.35.83-5.13 4.03-2.59-5.3-1.6-7.02 3.37-7.13 2.48-.05 4.96 0 7.39-.44 1.16-.22 2.6-.44 2.76 1.33.16 1.93-1.38 1.76-2.65 1.88-1.88.05-3.8.05-5.74.33Zm-3.8-5.53c3.36-3.15 11.42-3.64 15.39-.88-5.4.94-10.48 0-15.4.88Zm-8.17 26.02c-4.35-6.74-4.63-14.03-.77-20.94 3.1-5.52 7.78-9.55 14.78-9.6-10.31 2.76-16.82 9.27-16.38 20.1.44 10.77 7.17 17.01 18.37 18.73-5.4 1.16-12.13-2.32-16-8.3Zm30.34.11c-4.41 5.3-10.2 7.68-16.93 6.24-7.28-1.54-12.08-6.02-13.96-13.53-1.38-5.58.17-10.22 3.37-14.53.38 3.92 1.7 7.46 2.53 11.16.4 1.6 1.16 2.87 3.04 3.1.44.05 1 .32 1.16.65.6 1.5 1.1 2.66 2.98 3.15 3.47.94 6.67.34 9.87-.77a1.91 1.91 0 0 0 1.27-1.32c.44-1.39 1.43-1.83 2.76-1.77 2.26.05 4.9-.5 6.17 1.99 1.22 2.32-.93 3.97-2.26 5.63Zm13.57-24.86c-2.43.17-2.98 1.77-2.81 3.87.05.39.16.72.22 1.1 0 1.05.5 2.66-.94 2.71-1.32.06-.88-1.55-1-2.43-.21-2.32-1.43-3.81-3.58-4.36-2.65-.67-5.35-.39-7.94.22-1.66.33-2.15 2.04-2.15 3.53 0 2.05.94 3.87 2.87 4.7a8.85 8.85 0 0 1 3.25 2.43c3.37 3.75 5.19 3.7 8.6-.89v6.69c0 .66-.1 1.32-.88 1.6-.82.33-6.28-1.5-6.9-2.32a144.48 144.48 0 0 0-9.87-11.88c-1.15-1.27-1.1-2.7-.82-4.14.33-1.66 1.87-1.21 2.92-1.32 7.4-.56 14.78-1.1 22.56-1.66-1.21 1.21-2.15 2.04-3.53 2.15Zm-10.04 11.82c-2.04-2.26-3.64-3.97-5.13-5.8-.83-1-.99-2.2.22-3.09 1.44-1 2.1.17 2.76 1.22 1.27 2.1 2.37 4.25 2.15 7.67Zm29.02 13.6c-2.1.05-4.25 0-6.35 0v.05h-6.07c-.82 0-1.76.05-1.7-1.22.05-1 .71-1.49 1.65-1.49h12.41c.88 0 1.66.33 1.6 1.44-.05.88-.77 1.16-1.54 1.21Zm-.17-33.15c-1.93.06-3.86 0-5.74 0h-6.56c-.94 0-1.99-.11-1.93-1.38 0-1.1.88-1.27 1.76-1.27h12.64c1.04 0 2.2.27 2.1 1.6-.23 1.27-1.44 1-2.27 1.05Zm11.97 26.73c-1.43.34-1.77-.71-1.71-1.82.17-1.99.17-3.98-.44-6.07 1.16.1 1.27.71 1.6 1.16 1.65 2.43 3.8 2.76 6.01.82 1.71-1.49 3.03-3.26 5.3-4.2 1.93-.77 2.59-4.08 1.7-6.13-.44-1.05-.93-1.7-2.37-1.76-1.6-.06-3.25-.5-4.9-.45-3.87.12-4.91 1-5.69 4.81-.1.44-.16.88-.27 1.33-.17.55-.33 1.21-1 1.16-.77-.06-.6-.78-.6-1.27 0-1.1.05-2.21.05-3.32 0-1.93-.77-3.15-2.87-3.31-.88-.06-2.2-.06-2.04-1.27.22-1.38 1.5-.55 2.32-.5 6.12.39 12.25.77 18.37 1.22 3.47.27 4.52 2.48 2.43 5.24-2.32 2.99-4.86 5.75-7.29 8.62-.5.55-1.1 1.05-1.37 1.71-1.22 3.48-4.42 3.43-7.23 4.03Zm4.52-7.78c.28-2.65 1.33-5.03 2.6-7.35.5-.88 1.21-1.77 2.42-1.05a1.9 1.9 0 0 1 .55 2.87c-1.49 2.1-3.25 3.98-4.96 5.97-.22-.11-.39-.28-.6-.44Zm21.24 4.2c.44 1.2-.22 1.87-1.43 2.31-1.5-1.38-2.98-.71-4.7-.22-1.15.34-1.98-.94-1.32-2.2.61-1.17.5-2.1.06-3.32-.66-1.71.44-2.49 1.98-1.93 1.1.38 2.05.6 3.1-.11.66-.45 1.37-.56 1.98.05.66.55.77 1.22.33 1.99-.66 1.16-.39 2.26 0 3.42Zm-10.1-17.9c2.7-2.32 10.7-1.94 14.9.72-1.27.66-13.35.05-14.9-.72Zm9.27 35.96c-9.2 1.43-18.97-4.59-20.46-11.66 4.63 8.29 11.7 12.2 20.85 10.66 9.32-1.49 14.17-8.06 16.1-17.23 1.38 7.62-7.06 16.8-16.49 18.23Zm14.51-23.75c1.98 9.94-4.03 19.05-13.9 21.54-6.68 1.65-16.16-2.87-19.14-9.12-1.1-2.37-.33-4.36 2.26-4.7 2.43-.32 5.02-1.26 6.9 2.05 1.1 1.94 4.4 2.49 6.5 2.16 2.6-.4 6.51.6 7.45-3.65.06-.28.55-.55.83-.6 2.87-.56 3.25-2.93 3.8-5.14.44-1.88.78-3.76 1.22-5.64.16-.77.71-1.71-.39-2.1-1-.33-1.43.5-1.76 1.33-.28.66-.45 1.38-.83 2.76-2.43-5.14-6.73-4.25-10.54-4.7-.6-.05-1.26.06-1.93.06-.99-.05-1.49-.55-1.54-1.55 0-1.16.72-1.76 1.76-1.6 5.19.89 10.7-.27 15.56 2.32 2.48 1.22 3.2 3.98 3.75 6.58Zm11.75-17.63c-1.66.4-2.65-.33-2.98-2.26-.17 2.04-1.32 2.49-2.87 2.43-6.67-.28-13.4.77-19.97-1.38a12.5 12.5 0 0 0-7.39.1c-7.94 2.33-16.1.9-24.1 1.22-1.16.06-1.88-.6-2.15-1.7-.45-1.78-1.66-2.22-3.31-2.16-4.25.05-8.44 0-12.69 0-2.87 0-3.53.88-3.92 4.14-.27 2.54 1.44 2.6 3.15 2.7.55.06 1.1.17 1.21.84-4.25 1.76-5.9.82-5.9-3.37 0-4.75 0-4.75 4.85-4.75 24.71 0 49.43 0 74.14.05 1.27 0 3.03-.6 3.25 1.5.17 1.04.06 2.31-1.32 2.64Zm16.16-2.92c-1.21-.56-2.87-.17-4.36-.22-2.04 0-3.3-.72-3.3-3.04 0-2.49 1.6-2.49 3.3-2.49h.77c3.04.22 5.8.33 8.55.6 1.99.23 2.32 1.17 1.1 2.77-1.54 2.1-3.03 3.81-6.06 2.38Zm9.82 1.76c-.11 2.93-1.22 3.87-5.02 4.1 2.7-3 2.43-6.53 3.42-9.62.33-1-.06-1.99-.72-2.82-.77-1-.66-1.82.11-2.65.39-.44.88-.83 1.44-.5.88.45.71 1.39.71 2.21.11 3.1.17 6.2.06 9.28Z" fill="#A18173"/><path d="M681.76 90.26h-10.15c-.99 0-2.04 0-2.97-.5-.94-.5-1.77-1.1-1.77-2.26 0-1.16.83-1.77 1.77-2.27.93-.5 1.93-.44 2.97-.44h20.08c.72 0 1.5 0 2.2.17 1.44.33 2.66 1.05 2.55 2.76-.11 1.65-1.33 2.43-2.82 2.43-3.91.05-7.89 0-11.8 0-.06.05-.06.1-.06.1Zm-.27-1.66h10.75c.89 0 2.1.17 2.1-1.1 0-1.05-1.16-1-1.93-1-7.17 0-14.34-.05-21.51 0-.78 0-1.93-.05-1.99 1-.06 1.27 1.21 1.16 2.1 1.16 3.53-.06 7-.06 10.48-.06Zm.44 34.3c3.64 0 7.33.06 10.98 0 1.87 0 3.53.56 3.58 2.54.06 2.21-1.82 2.43-3.58 2.43h-22.29c-1.77 0-3.64-.33-3.64-2.43 0-2.04 1.82-2.48 3.64-2.48 3.8-.06 7.56-.06 11.3-.06Zm-.44 3.32h11.03c.66 0 1.76.16 1.82-.78.05-1.05-1-.88-1.66-.88h-22.33c-.67 0-1.77-.11-1.71.88.05.94 1.1.78 1.82.78h11.03Zm.5-28.73c3.58 0 7.16-.05 10.75 0 1.71 0 3.58.34 3.58 2.55 0 2.15-1.6 2.92-3.58 2.87h-20.4c-.73 0-1.5 0-2.22-.17-1.6-.27-3.36-.72-3.2-2.76.17-1.88 1.82-2.49 3.48-2.49 3.86-.05 7.72 0 11.58 0Zm-.06 1.66c-3.75 0-7.56 0-11.3.06-.84 0-1.94 0-2 1.05-.05 1.1 1.1 1.05 1.88 1.05 7.34.05 14.67.05 22.06 0 .78 0 1.93.1 1.93-1 0-1.32-1.26-1.1-2.1-1.1-3.47-.11-7-.06-10.47-.06Zm0-21.82h-10.98c-1.82 0-3.86-.1-3.97-2.37-.11-2.21 1.88-2.38 3.58-2.38h22.29c1.82 0 3.53.33 3.48 2.49-.06 2.32-1.94 2.2-3.7 2.15-3.59-.05-7.17 0-10.7 0v.11Zm-.83-1.43c0-.06 0-.06 0 0h11.8c.72 0 1.66-.06 1.6-1.05 0-1-.93-1-1.65-1h-22.56c-.83 0-1.88.17-1.77 1.27.06.94 1.1.78 1.83.83 3.58-.05 7.17-.05 10.75-.05Zm.77 39.27H670.3c-1.66 0-3.37-.28-3.37-2.38.06-1.93 1.66-2.15 3.26-2.15h23.17c1.6 0 3.14.28 3.03 2.27-.11 1.93-1.6 2.2-3.2 2.26h-11.3Zm-.27-3.31h-10.98c-.77 0-1.99-.23-2.04.82-.06 1.22 1.16 1.22 2.04 1.22 7.34.05 14.67.05 22 0 .78 0 1.89.11 1.89-1.05 0-1.16-1.16-1-1.94-1H681.6Zm-446.4 15.96h-11.32c-1.65 0-3.36-.33-3.42-2.32-.05-2.15 1.71-2.6 3.48-2.6h22.61c1.71 0 3.37.5 3.48 2.38.05 2.15-1.71 2.54-3.53 2.54h-11.3Zm-.28-1.6h11.3c.67 0 1.77.1 1.71-.83 0-.94-1.1-.83-1.76-.83h-22.01c-.66 0-1.77-.11-1.71.88 0 .94 1.1.83 1.77.83 3.53-.05 7.11-.05 10.7-.05Zm3.7-23.31h-13.58c-.55 0-1.1 0-1.65-.11-1.5-.33-3.04-1-2.98-2.7.05-1.72 1.49-2.5 3.09-2.55 2.2-.11 4.41-.06 6.62-.06h14.56c.94 0 1.87 0 2.76.17 1.32.28 2.59.88 2.59 2.43 0 1.55-1.22 2.21-2.54 2.54-3.14.66-6.34.17-8.88.28Zm-3.26-3.76H224.1c-.77 0-1.87-.1-1.87 1.05 0 1.1 1.1 1.05 1.87 1.05h21.96c.82 0 2.15.17 2.04-1.22-.06-1.05-1.22-.93-2.04-.93-3.59.05-7.12.05-10.7.05Zm-.22-39.27h11.58c1.76 0 3.3.55 3.3 2.48 0 1.83-1.65 2.32-3.19 2.38-7.72.05-15.45.05-23.17-.06-1.65 0-3.36-.55-3.3-2.54.1-1.99 1.76-2.26 3.47-2.26 3.75.05 7.55 0 11.3 0Zm-.28 3.31h11.58c.72 0 1.66 0 1.66-1 0-1.04-.94-.99-1.66-.99H224.1c-.82 0-1.87.06-1.82 1.16.06.94 1.1.83 1.82.83h10.76Zm.44-10.99h-11.25c-1.82 0-3.53-.44-3.53-2.54s1.93-2.32 3.42-2.38c7.61-.1 15.22-.1 22.78 0 1.6 0 3.42.5 3.3 2.49-.1 1.88-1.76 2.37-3.47 2.37-3.75.06-7.5.06-11.25.06Zm.22-3.37h-10.98c-.77 0-1.87-.11-1.98.94-.11 1.21 1.05 1.1 1.82 1.1h22c.84 0 1.88 0 1.88-1.1-.05-1.16-1.21-.94-1.93-.94h-10.8Zm-.5-9.28h-10.75c-1.82 0-3.92-.28-3.97-2.48-.06-2.22 1.93-2.6 3.8-2.6h22.01c1.88 0 3.86.38 3.8 2.6-.05 2.15-2.09 2.48-3.9 2.48h-10.98Zm8.22-1.5c.56.06.83.12 1.1.12 1.33-.11 3.54.22 3.54-1.05 0-1.6-2.2-1-3.42-1.1-6.68-.61-13.35-.28-20.02-.17-.94 0-2.16.06-2.16 1.16 0 1.38 1.33 1.16 2.32 1.16 6.29 0 12.58.44 18.64-.11Zm-7.66 34.48h11.03c1.76 0 3.3.55 3.36 2.48.06 2-1.7 2.05-3.25 2.1-7.72.33-15.39-.33-23.11.22-1.6.11-3.15-.6-3.26-2.32-.1-1.82 1.5-2.43 3.1-2.43 4.07-.05 8.1-.05 12.13-.05Zm-.28 3.31h11.03c.72 0 1.71 0 1.77-.94.1-1.21-1-1.16-1.77-1.16-7.33-.05-14.67 0-22.06 0-.72 0-1.66 0-1.77.94-.1 1.22 1 1.16 1.77 1.16 3.7.06 7.4 0 11.03 0Zm-.1 34.8h11.52c1.49 0 3.25.11 3.25 2.1 0 1.88-1.6 2.43-3.3 2.43h-22.84c-1.71 0-3.37-.44-3.37-2.43 0-2.26 1.88-2.1 3.48-2.1h11.25Zm0 3.32h11.02c.78 0 1.93.16 1.88-1.05 0-1.16-1.16-1.05-1.93-1.05-7.28-.06-14.5-.06-21.79 0-.77 0-1.88-.11-1.88 1.05 0 1.16 1.16.99 1.93.99 3.59.06 7.18.06 10.76.06Zm-37.02 13.86H186.6c-1.71 0-3.31-.5-3.2-2.54.05-1.82 1.6-2.38 3.2-2.38h23.16c1.66 0 3.04.61 3.04 2.43 0 1.88-1.38 2.44-3.04 2.44-3.86.05-7.72.05-11.58.05Zm-.28-1.6h11.26c.71 0 1.93.27 1.93-.89 0-.94-1.1-.77-1.82-.77-7.4 0-14.84-.05-22.23 0-.66 0-1.77-.17-1.77.77 0 1.16 1.22.89 1.93.89h10.7Zm8.44-23.53c-5.57.44-11.53.22-17.48.22a12.9 12.9 0 0 1-3.53-.44c-1.1-.28-2.04-1.05-1.99-2.32.06-1.38 1-2.16 2.26-2.43.78-.17 1.66-.23 2.49-.23h20.13c.66 0 1.27 0 1.93.11 1.49.23 2.7.89 2.7 2.6 0 1.6-1.21 2.16-2.48 2.54-1.21.28-2.43.17-4.03-.05Zm-8.44-3.54h-10.42c-.88 0-2.15-.22-2.2 1-.06 1.27 1.2 1.1 2.09 1.1 7.22.06 14.5.06 21.73 0 .88 0 2.15.11 2.1-1.16-.06-1.21-1.38-1-2.21-1-3.75 0-7.45.06-11.09.06Zm.11-26.62h11.53c1.55 0 3.1.16 3.2 2.15.17 2.04-1.38 2.27-2.92 2.43-8.05.78-16.1-.44-24.16-.1-1.38.05-2.32-.73-2.32-2.16 0-1.6 1.1-2.27 2.54-2.32H198Zm.17 3.37c3.64 0 7.33 0 10.98-.06.77 0 1.93.17 1.98-1 .06-1.15-1.05-1.1-1.87-1.1-7.45-.05-14.84-.05-22.29 0-.77 0-1.93-.1-1.93 1 0 1.32 1.27 1.1 2.1 1.1 3.7.06 7.39.06 11.03.06Zm.16 34.74h11.53c1.5 0 2.87.28 2.93 2.1.05 1.99-1.33 2.38-2.98 2.38h-23.34c-1.6 0-3.08-.34-3.08-2.27s1.54-2.2 3.14-2.2h11.8Zm-.22 3.32c3.7 0 7.34 0 11.04-.06.88 0 2.15.11 2.04-1.22-.06-1.05-1.27-.82-2.04-.88h-22.07c-.82 0-2.15-.22-2.04 1.16.11 1.1 1.22.89 2.04.89 3.7.1 7.34.1 11.03.1Zm446.58 8.94h11.25c1.87 0 3.47.5 3.47 2.6.06 2.1-1.65 2.38-3.3 2.38h-22.79c-1.65 0-3.36-.28-3.36-2.38-.06-2.21 1.76-2.54 3.47-2.54 3.75-.11 7.5-.06 11.26-.06Zm-.17 3.32h10.76c.77 0 1.98.27 2.04-.78.05-1.16-1.16-.88-1.93-.88-7.17-.05-14.34-.05-21.46 0-.72 0-1.99-.28-1.93.88.05 1.05 1.32.78 2.04.78h10.48Zm.17-35.96h-10.76c-1.99 0-3.97-.44-3.97-2.82.05-2.15 1.93-2.65 3.8-2.65h21.74c1.87 0 3.8.5 3.8 2.65.06 2.38-1.98 2.82-3.97 2.82H644.7Zm.16-1.66c3.48 0 7 .06 10.48 0 .83 0 2.15.17 2.1-1.16-.06-1.05-1.22-1-1.99-1H634c-.77 0-1.93-.05-1.93 1.06 0 1.27 1.27 1.1 2.16 1.1h10.64Zm-.22 8.9h11.25c1.77 0 3.48.5 3.53 2.65.06 2.04-1.65 2.54-3.25 2.6-7.67.1-15.39.54-23.06 0-1.65-.12-3.25-.73-3.14-2.71.1-1.94 1.7-2.43 3.42-2.49 3.75-.06 7.5-.06 11.25-.06Zm-.11 3.8h11.25c.78 0 1.93.17 1.99-.93.05-1.33-1.16-1.22-2.04-1.22-7.45-.05-14.84 0-22.29 0-.77 0-1.87-.05-1.87 1.1s1.16 1 1.93 1c3.7.06 7.33.06 11.03.06Zm.11-49.1H633.4c-1.88 0-3.42-.6-3.42-2.7 0-1.94 1.7-2.27 3.2-2.27 7.5-.06 15-.06 22.56 0 .44 0 .93.1 1.38.16 1.38.28 2.48 1 2.37 2.54-.11 1.55-1.33 2.16-2.7 2.16-4.09.1-8.11.05-12.14.1 0-.05 0 0 0 0Zm.06-1.27c3.64 0 7.33 0 10.97-.06.83 0 1.88 0 1.82-1.16-.05-.94-1.05-.88-1.76-.88h-22.01c-.77 0-1.88-.11-1.93 1-.06 1.15 1.1 1.04 1.87 1.04 3.7.11 7.4.06 11.04.06Zm.16 8.95h11.25c1.55 0 3.15.22 3.26 2.15.1 2.1-1.55 2.54-3.15 2.6-4.63.1-9.32.05-14 .1-2.76 0-5.47.06-8.22.06-1.88 0-4.03-.05-4.03-2.6 0-2.48 2.15-2.31 3.91-2.31h10.98Zm-.16 3.31h11.03c.72 0 1.7.06 1.76-.83.11-1.16-.99-1.16-1.82-1.16h-22.06c-.77 0-1.88 0-1.77 1.16.06.94 1.1.83 1.82.83h11.04Zm.27-28.72h10.76c1.87 0 3.75.44 3.7 2.7-.06 2.22-2.1 2.33-3.76 2.33-7.28.05-14.5 0-21.79 0-.38 0-.71 0-1.1-.06-1.49-.22-2.81-.83-2.76-2.49.06-1.65 1.33-2.43 2.82-2.43 4.02-.05 8.05 0 12.13-.05Zm-.77 3.75c3.75-.1 7.5.4 11.25-.22.77-.1 1.99.06 1.99-1 .05-1.1-1.22-.93-1.93-.98-7.12-.56-14.23-.45-21.35-.28-.88 0-2.2.05-2.2 1.16 0 1.32 1.43 1.27 2.37 1.27 3.25.1 6.56.06 9.87.06Zm8.22 39.22c-6.29-1.1-13.02.28-19.7-.33-1.48-.1-2.86-.44-2.8-2.26.05-1.72 1.37-2.27 2.92-2.27h23.66c1.54 0 2.81.55 2.92 2.27.06 1.82-1.27 2.2-2.81 2.26-1.27.06-2.54.22-4.2.33Zm-7.56-3.7h-11.03c-.77 0-1.88-.16-1.99.94-.1 1.22 1.05 1.1 1.82 1.1 7.34.06 14.73.06 22.07 0 .77 0 1.93.12 1.87-1.1-.05-1.16-1.16-1-1.93-1-3.64.06-7.22.06-10.8.06Zm-.16 41.43h-11.26c-1.65 0-3.36-.17-3.47-2.26-.11-2.16 1.65-2.27 3.3-2.27h22.84c1.66 0 3.42.11 3.31 2.27-.05 2.04-1.82 2.26-3.47 2.26h-11.26Zm0-1.22h10.97c.77 0 1.88.12 1.88-1.04s-1.16-1-1.93-1.05h-21.96c-.77 0-1.87-.11-1.87 1.05 0 1.16 1.16.99 1.93.99 3.7.05 7.34.05 10.98.05Zm-372.6 8.95h11.24c1.77 0 3.6.45 3.65 2.49.05 2.2-1.88 2.43-3.59 2.43h-22.56c-1.71 0-3.3-.39-3.3-2.43 0-1.99 1.53-2.49 3.24-2.49h11.31Zm0 3.32h11.3c.66 0 1.71.16 1.66-.94-.06-.83-.94-.72-1.55-.72h-22.34c-.72 0-1.76-.11-1.76.83-.06 1 1.04.83 1.7.88 3.65-.05 7.29-.05 10.98-.05Zm.16-28.73c3.47 0 6.95-.05 10.48 0 1.93.06 4.36.11 4.25 2.77-.11 2.43-2.32 2.6-4.42 2.6-6.95 0-13.95.38-20.9-.23-.39-.05-.72 0-1.1-.05-1.5-.06-2.87-.56-2.98-2.27-.17-1.88 1.32-2.6 2.86-2.7 2.54-.17 5.13-.12 7.73-.17 1.32 0 2.7.05 4.08.05Zm-.44 3.82h11.58c.83 0 1.88-.12 1.77-1.28-.12-.93-1.1-.88-1.77-.88h-22.34c-.77 0-1.93-.05-1.87 1.05 0 1.1 1.15 1.05 1.93 1.05 3.53.06 7.11.06 10.7.06Zm37.29 21.6h10.75c1.71 0 3.2.5 3.2 2.53-.06 1.94-1.49 2.38-3.09 2.38H297.7c-1.6 0-3.1-.44-3.1-2.32 0-1.93 1.55-2.54 3.26-2.54 3.7-.11 7.5-.06 11.25-.06Zm-.4 3.3c3.6 0 7.18.06 10.77 0 .66 0 1.7.28 1.82-.71.1-1.05-.94-.94-1.66-.94-7.28-.05-14.5 0-21.79 0-.6 0-1.54-.05-1.6.77-.05 1.1 1 .89 1.66.89h10.8Zm.34-28.72c3.48 0 6.95-.05 10.43 0 1.7 0 3.47.34 3.53 2.55.05 2.2-1.71 2.7-3.37 2.76-4.41.1-8.77.16-13.18 0-2.26-.06-4.58-.33-6.84.05a5.68 5.68 0 0 1-1.38 0c-1.71-.16-3.53-.55-3.64-2.6-.11-2.1 1.7-2.53 3.42-2.76.71-.1 1.49-.05 2.2-.05 2.98.05 5.9.05 8.83.05Zm-.11 1.66c-3.48 0-7-.05-10.48 0-.83 0-2.2-.16-2.2 1.05s1.32 1.05 2.14 1.05c7 .06 13.96.06 20.97 0 .82 0 2.15.17 2.04-1.16-.06-1.05-1.22-.94-2.05-.94h-10.42Zm-.11 16.02H297.8c-1.55 0-3.15-.33-3.2-2.2-.06-1.94 1.49-2.33 3.09-2.33h22.56c1.38 0 2.7.28 2.76 1.99.05 1.88-1.27 2.54-2.93 2.54h-11.25Zm-.33-3.31c-3.42 0-6.79-.06-10.2 0-.78 0-2-.23-2.05.82-.1 1.27 1.16 1.22 2.04 1.22 7.06.05 14.18.05 21.24 0 .77 0 1.93.17 1.93-1s-1.1-1.04-1.93-1.04H308.5ZM571 122.9h10.7c1.66 0 3.31.33 3.37 2.38.05 2.26-1.71 2.54-3.42 2.54h-21.13c-1.76 0-3.53-.22-3.53-2.49s1.82-2.43 3.59-2.43H571Zm-.05 3.32h10.7c.66 0 1.76.16 1.82-.78.05-.99-1-.88-1.71-.88-7.17 0-14.29-.05-21.46 0-.66 0-1.76-.11-1.65.88.05.94 1.1.78 1.82.78h10.48Zm.22-28.73h9.32c.88 0 1.82.06 2.7.28 1.27.33 2.1 1.22 1.93 2.6-.1 1.32-1.05 2.04-2.2 2.1-7.84.22-15.72.88-23.56.1-1.43-.1-2.48-.77-2.42-2.42.05-1.88 1.38-2.55 2.97-2.6 3.76-.11 7.5-.06 11.26-.06Zm-.33 3.82h10.75c.77 0 1.93.05 1.93-1.05 0-1.16-1.1-1.05-1.87-1.05-6.95-.06-13.96-.06-20.9 0-.83 0-2.16-.17-2.05 1.16.06 1 1.21.94 2.04.94h10.1Zm.16 13.86h-11.03c-1.6 0-3.03-.33-3.03-2.32 0-2.1 1.54-2.2 3.09-2.2h22c1.55 0 3.1.21 3.04 2.26-.06 1.98-1.55 2.26-3.15 2.26H571Zm.17-3.31H560.4c-.77 0-1.93-.23-1.87.99 0 1.1 1.1 1.05 1.93 1.05h21.18c.83 0 1.87 0 1.93-1.1 0-1.22-1.16-1-1.93-1-3.48 0-7 .06-10.48.06ZM308.94 72.53h10.7c1.6 0 3.31.16 3.37 2.32 0 2.32-1.82 2.15-3.37 2.2-6.67.17-13.35.28-20.02.45h-.55c-1.88-.28-4.42-.06-4.42-2.6-.05-2.76 2.54-2.32 4.42-2.37 3.3-.06 6.56 0 9.87 0Zm.11 3.37h10.76c.66 0 1.65.16 1.65-.94 0-.94-.88-1.1-1.65-1.1H298c-.82 0-1.87.16-1.81 1.2.05.95 1.1.84 1.76.84h11.09Zm46.06 1.16h-21.13c-1.54 0-3.09-.11-3.09-2.21 0-2.21 1.66-2.32 3.31-2.32h21.18c1.77 0 3.92-.06 3.92 2.32-.06 2.48-2.43 2.32-4.2 2.2Zm-9.93-3.32h-10.76c-.88 0-2.15-.05-1.98 1.22.1 1.1 1.27.88 2.04.88h20.9c.78 0 1.93.22 2.05-.88.1-1.33-1.16-1.22-2.05-1.22h-10.2Zm225.93-1.21h10.98c1.6 0 3.03.33 3.03 2.32 0 1.93-1.43 2.54-2.97 2.43-7.5-.39-15-.11-22.51-.22-1.54-.06-2.76-.5-2.7-2.38.05-1.66 1.21-2.15 2.65-2.15h11.52Zm-.33 3.37h11.03c.72 0 1.71.1 1.77-.89.1-1.16-1-1.21-1.77-1.21h-21.5c-.84 0-1.88.1-1.77 1.21.05.94 1.05.83 1.76.89h10.48Z" fill="#A18173"/></g><defs><clipPath id="a"><path fill="#fff" transform="translate(138)" d="M0 0h594.67v193H0z"/></clipPath></defs></svg>