<svg width="16" height="16" viewBox="0 0 16 16" fill="none" xmlns="http://www.w3.org/2000/svg">
<path d="M0.571992 0.574983C0.853284 0.293776 1.23475 0.135803 1.63249 0.135803C2.03024 0.135803 2.4117 0.293776 2.69299 0.574983L7.99699 5.87898L13.301 0.574983C13.5839 0.301746 13.9628 0.150554 14.3561 0.153972C14.7494 0.157389 15.1256 0.315143 15.4037 0.593255C15.6818 0.871367 15.8396 1.24759 15.843 1.64088C15.8464 2.03418 15.6952 2.41308 15.422 2.69598L10.118 7.99998L15.422 13.304C15.6952 13.5869 15.8464 13.9658 15.843 14.3591C15.8396 14.7524 15.6818 15.1286 15.4037 15.4067C15.1256 15.6848 14.7494 15.8426 14.3561 15.846C13.9628 15.8494 13.5839 15.6982 13.301 15.425L7.99699 10.121L2.69299 15.425C2.41009 15.6982 2.03119 15.8494 1.63789 15.846C1.2446 15.8426 0.868376 15.6848 0.590264 15.4067C0.312152 15.1286 0.154399 14.7524 0.150981 14.3591C0.147563 13.9658 0.298755 13.5869 0.571992 13.304L5.87599 7.99998L0.571992 2.69598C0.290785 2.41469 0.132812 2.03323 0.132812 1.63548C0.132812 1.23774 0.290785 0.856274 0.571992 0.574983V0.574983Z" fill="#FD9F32"/>
</svg>
