<?xml version="1.0" encoding="utf-8"?>
<!-- Generator: Adobe Illustrator 26.0.2, SVG Export Plug-In . SVG Version: 6.00 Build 0)  -->
<svg version="1.1" id="Layer_1" xmlns="http://www.w3.org/2000/svg" xmlns:xlink="http://www.w3.org/1999/xlink" x="0px" y="0px"
	 viewBox="0 0 16 16" style="enable-background:new 0 0 16 16;" xml:space="preserve">
<style type="text/css">
	.st0{fill:#191919;}
</style>
<path class="st0" d="M3.1,3c0.2-0.2,0.4-0.3,0.7-0.3C4,2.8,4.3,2.9,4.5,3L8,6.6L11.5,3c0.2-0.2,0.4-0.3,0.7-0.3
	c0.3,0,0.5,0.1,0.7,0.3s0.3,0.4,0.3,0.7c0,0.3-0.1,0.5-0.3,0.7L9.4,8l3.5,3.5c0.2,0.2,0.3,0.4,0.3,0.7c0,0.3-0.1,0.5-0.3,0.7
	s-0.4,0.3-0.7,0.3c-0.3,0-0.5-0.1-0.7-0.3L8,9.4l-3.5,3.5c-0.2,0.2-0.4,0.3-0.7,0.3c-0.3,0-0.5-0.1-0.7-0.3
	c-0.2-0.2-0.3-0.4-0.3-0.7c0-0.3,0.1-0.5,0.3-0.7L6.6,8L3.1,4.5C2.9,4.3,2.8,4,2.8,3.8C2.8,3.5,2.9,3.2,3.1,3L3.1,3z"/>
</svg>
