<svg width="20" height="20" viewBox="0 0 20 20" fill="none" xmlns="http://www.w3.org/2000/svg">
<g clip-path="url(#clip0_1501_13363)">
<path d="M18.8302 0.970002C18.1493 0.317502 17.3982 -0.0131226 16.5963 -0.0131226C15.3425 -0.0131226 14.4278 0.796878 14.1775 1.045C13.8253 1.39375 1.81126 13.4122 1.81126 13.4122C1.73252 13.4913 1.67568 13.5895 1.64628 13.6972C1.37534 14.6984 0.018154 19.1409 0.00467745 19.1856C-0.0649905 19.4131 -0.00282255 19.661 0.16499 19.8288C0.283367 19.9468 0.443724 20.0131 0.610908 20.0131C0.675595 20.0131 0.740888 20.0034 0.804638 19.9825C0.850576 19.9675 5.4362 18.4853 6.19087 18.26C6.29044 18.23 6.38119 18.1761 6.45524 18.1031C6.93212 17.6319 18.1374 6.55125 18.8812 5.78313C19.6506 4.99031 20.0327 4.16469 20.0181 3.32969C20.0027 2.50531 19.6031 1.71157 18.8302 0.970002ZM13.9785 3.04375C14.2969 3.12094 15.0479 3.37309 15.8147 4.14686C16.5897 4.92873 16.7994 5.82248 16.8385 6.02592C14.381 8.47061 8.72411 14.0675 6.49411 16.2734C6.28817 15.7937 5.95536 15.2159 5.42003 14.6765C4.7663 14.0178 4.10097 13.6456 3.58784 13.4363C5.79472 11.2291 11.5582 5.46313 13.9785 3.04375ZM2.73911 14.4912C3.08255 14.5825 3.79597 14.8472 4.52317 15.5803C5.08317 16.145 5.34755 16.7678 5.4663 17.1475C4.59755 17.4268 2.69536 18.0834 1.48661 18.4731C1.84474 17.2947 2.44972 15.4593 2.73911 14.4912ZM17.9741 4.88996C17.9347 4.93016 17.8952 4.97027 17.8556 5.01028C17.6581 4.50151 17.3116 3.84778 16.7116 3.24278C16.0984 2.62465 15.4766 2.25996 14.9782 2.04434C15.0206 2.00215 15.0534 1.96901 15.0663 1.95653C15.1378 1.88588 15.7869 1.26559 16.5959 1.26559C17.0616 1.26559 17.5188 1.47809 17.9557 1.89684C18.4734 2.3934 18.7403 2.8834 18.7491 3.35371C18.7575 3.83371 18.4969 4.35059 17.9741 4.88996Z" fill="#664B42"/>
</g>
<defs>
<clipPath id="clip0_1501_13363">
<rect width="20" height="20" fill="white"/>
</clipPath>
</defs>
</svg>
