<svg width="32" height="32" viewBox="0 0 32 32" fill="none" xmlns="http://www.w3.org/2000/svg">
<path fill-rule="evenodd" clip-rule="evenodd" d="M16 32C24.8366 32 32 24.8366 32 16C32 7.16344 24.8366 0 16 0C7.16344 0 0 7.16344 0 16C0 24.8366 7.16344 32 16 32ZM12.8851 16C12.8851 14.2862 14.2837 12.8876 15.9975 12.8876C17.7113 12.8876 19.1099 14.2862 19.1099 16C19.1099 17.7138 17.7113 19.1124 15.9975 19.1124C14.2837 19.1124 12.8851 17.7138 12.8851 16ZM25.3326 15.5285C25.3325 15.6855 25.3323 15.8427 25.3323 16C25.3323 16.1759 25.3326 16.3516 25.3328 16.5272C25.3345 17.6377 25.3361 18.7417 25.2716 19.8526C25.1992 21.3469 24.8606 22.6708 23.7656 23.7659C22.6729 24.8587 21.3467 25.1995 19.8524 25.2719C18.7229 25.3355 17.6006 25.3342 16.4712 25.333C16.3142 25.3328 16.1571 25.3326 15.9998 25.3326C15.8428 25.3326 15.686 25.3328 15.5293 25.333C14.4015 25.3342 13.2789 25.3355 12.1473 25.2719C10.653 25.1995 9.32911 24.861 8.23406 23.7659C7.14134 22.6732 6.80045 21.3469 6.72807 19.8526C6.66452 18.723 6.66576 17.5989 6.66701 16.4706C6.66719 16.3138 6.66736 16.157 6.66736 16C6.66736 15.843 6.66719 15.6861 6.66701 15.5294C6.66576 14.4016 6.66452 13.279 6.72807 12.1474C6.80045 10.6531 7.139 9.32916 8.23406 8.23409C9.32678 7.14135 10.653 6.80045 12.1473 6.72807C13.2768 6.66452 14.3991 6.66576 15.5284 6.66701C15.6854 6.66719 15.8425 6.66736 15.9998 6.66736C16.1568 6.66736 16.3137 6.66719 16.4704 6.66701C17.5982 6.66576 18.7208 6.66452 19.8524 6.72807C21.3467 6.80045 22.6705 7.13901 23.7656 8.23409C24.8583 9.32682 25.1992 10.6531 25.2716 12.1474C25.3351 13.2769 25.3339 14.3992 25.3326 15.5285ZM11.2087 16C11.2087 18.6501 13.3474 20.7889 15.9975 20.7889C18.6476 20.7889 20.7863 18.6501 20.7863 16C20.7863 13.3499 18.6476 11.2111 15.9975 11.2111C13.3474 11.2111 11.2087 13.3499 11.2087 16ZM19.864 11.015C19.864 11.6337 20.3637 12.1334 20.9824 12.1334C21.1294 12.1336 21.2749 12.1048 21.4106 12.0486C21.5464 11.9925 21.6698 11.9101 21.7737 11.8062C21.8776 11.7023 21.9599 11.579 22.0161 11.4432C22.0722 11.3074 22.101 11.1619 22.1008 11.015C22.1008 10.3962 21.6012 9.89654 20.9824 9.89654C20.3637 9.89654 19.864 10.3962 19.864 11.015Z" fill="#B69D86"/>
</svg>
