<svg width="24" height="24" viewBox="0 0 24 24" fill="none" xmlns="http://www.w3.org/2000/svg">
<path d="M22.4557 21.9766C22.143 20.4911 22.0035 18.9743 22.0399 17.4567C22.0399 6.94391 17.9501 4.82529 16.8692 4.44932L16.5505 3.81017L17.1531 1.69498C17.2088 1.50194 17.2052 1.2966 17.1426 1.10568C17.08 0.914753 16.9614 0.747076 16.8023 0.624456C16.6431 0.501837 16.4508 0.42995 16.2502 0.418148C16.0496 0.406345 15.8501 0.455172 15.6777 0.558278L15.3447 0.758468L14.4388 0.214288C14.2063 0.0740501 13.9399 -4.31566e-05 13.6684 1.88585e-08C13.3968 4.31943e-05 13.1304 0.0742212 12.898 0.214533L11.9951 0.758213L11.0929 0.215023C10.8602 0.0745478 10.5935 0.000322978 10.3217 0.000366157C10.0499 0.000409336 9.78323 0.0747188 9.55057 0.215268L8.64914 0.757983L8.32296 0.561453C8.15057 0.458051 7.95104 0.408955 7.75035 0.42056C7.54967 0.432164 7.35713 0.503932 7.1978 0.626515C7.03848 0.749098 6.91976 0.916816 6.85711 1.10783C6.79446 1.29884 6.79078 1.50429 6.84655 1.69742L7.44839 3.81017L7.12977 4.44932C6.04889 4.82529 1.95902 6.94391 1.95902 17.4567C1.99543 18.9743 1.8559 20.4911 1.54322 21.9766C1.48594 22.2104 1.48559 22.4545 1.5422 22.6885C1.5988 22.9225 1.71071 23.1394 1.86852 23.3212C2.02634 23.503 2.22546 23.6442 2.44916 23.7331C2.67287 23.822 2.91463 23.8559 3.15416 23.832L6.47836 23.499L11.9541 23.998C11.9692 23.9995 11.9843 24 11.9995 24C12.0146 24 12.0298 23.9995 12.0449 23.998L17.5206 23.499L20.8448 23.832C21.0843 23.8559 21.3261 23.822 21.5498 23.7331C21.7735 23.6442 21.9726 23.503 22.1304 23.3212C22.2882 23.1394 22.4002 22.9225 22.4568 22.6885C22.5134 22.4545 22.513 22.2104 22.4557 21.9766H22.4557ZM21.3766 22.6641C21.3241 22.726 21.2573 22.7742 21.182 22.8043C21.1066 22.8344 21.0251 22.8457 20.9444 22.8369L17.5726 22.4991C17.5409 22.4957 17.509 22.4956 17.4774 22.4986L11.9995 22.9981L6.52156 22.4986C6.50642 22.4971 6.49128 22.4966 6.47615 22.4966C6.45954 22.4966 6.44294 22.4976 6.42634 22.499L3.05453 22.8369C2.97441 22.8449 2.89355 22.8335 2.81871 22.8038C2.74386 22.7742 2.6772 22.727 2.6243 22.6663C2.57139 22.6056 2.53377 22.5332 2.51457 22.455C2.49538 22.3768 2.49517 22.2951 2.51396 22.2168C2.84658 20.6528 2.99595 19.0553 2.95906 17.4567C2.95906 6.51276 7.53749 5.3663 7.57875 5.35702C7.65346 5.34207 7.72376 5.31023 7.78428 5.26394C7.84479 5.21765 7.89392 5.15813 7.9279 5.08994L8.2218 4.50035H14.4996V3.50035H8.39996L7.80678 1.41785L8.39105 1.76989C8.46894 1.81685 8.55817 1.84167 8.64912 1.84167C8.74008 1.84167 8.8293 1.81685 8.9072 1.76989L10.0665 1.07189C10.1436 1.02553 10.2319 1.00103 10.3218 1.00103C10.4118 1.00103 10.5001 1.02553 10.5772 1.07189L11.7372 1.77012C11.8151 1.81685 11.9042 1.84153 11.9951 1.84153C12.0859 1.84153 12.175 1.81685 12.2529 1.77012L13.4136 1.0714C13.4905 1.0249 13.5787 1.0003 13.6686 1.00026C13.7585 1.00023 13.8467 1.02476 13.9237 1.07121L15.0871 1.77018C15.1648 1.81702 15.2539 1.84177 15.3447 1.84177C15.4354 1.84177 15.5245 1.81702 15.6022 1.77018L16.1911 1.42106L15.5356 3.72277C15.5014 3.84278 15.5134 3.97121 15.569 4.08287L16.071 5.08994C16.1053 5.15684 16.1539 5.21537 16.2134 5.26136C16.2728 5.30735 16.3417 5.33968 16.415 5.35604C16.4614 5.3663 21.0399 6.51276 21.0399 17.4567C21.003 19.0553 21.1523 20.6528 21.485 22.2168C21.5046 22.2946 21.505 22.3759 21.4861 22.4539C21.4672 22.5318 21.4296 22.604 21.3766 22.6641V22.6641Z" fill="#A28276"/>
<path d="M11.9995 17.9999C10.9386 17.9999 9.92125 17.5784 9.17112 16.8283C8.42098 16.0782 7.99956 15.0608 7.99956 13.9999C7.99956 12.9391 8.42098 11.9217 9.17112 11.1716C9.92125 10.4214 10.9386 10 11.9995 10V9C11.0106 9.00008 10.044 9.29339 9.22181 9.84284C8.39963 10.3923 7.75884 11.1732 7.38048 12.0868C7.00211 13.0004 6.90316 14.0057 7.09613 14.9756C7.2891 15.9455 7.76532 16.8363 8.46459 17.5355C9.16386 18.2347 10.0548 18.7109 11.0246 18.9038C11.9945 19.0967 12.9998 18.9976 13.9134 18.6192C14.827 18.2407 15.6078 17.5999 16.1572 16.7777C16.7066 15.9554 16.9998 14.9888 16.9998 13.9999H15.9998C15.9985 15.0604 15.5766 16.0772 14.8267 16.827C14.0768 17.5769 13.06 17.9987 11.9995 17.9999Z" fill="#A28276"/>
<path d="M14 9H13V10H14V9Z" fill="#A28276"/>
<path d="M17 12H16V13H17V12Z" fill="#A28276"/>
<path d="M16 10H15V11H16V10Z" fill="#A28276"/>
</svg>
