<svg width="24" height="24" viewBox="0 0 24 24" fill="none" xmlns="http://www.w3.org/2000/svg">
<path fill-rule="evenodd" clip-rule="evenodd" d="M4.5 3C3.11929 3 2 4.11929 2 5.5V14H22V5.5C22 4.11929 20.8807 3 19.5 3H4.5ZM23 14.0854V5.5C23 3.567 21.433 2 19.5 2H4.5C2.567 2 1 3.567 1 5.5V14.0854C0.417404 14.2913 0 14.8469 0 15.5V16.5C0 17.3284 0.671572 18 1.5 18H22.5C23.3284 18 24 17.3284 24 16.5V15.5C24 14.8469 23.5826 14.2913 23 14.0854ZM1.5 15C1.22386 15 1 15.2239 1 15.5V16.5C1 16.7761 1.22386 17 1.5 17H22.5C22.7761 17 23 16.7761 23 16.5V15.5C23 15.2239 22.7761 15 22.5 15H1.5Z" fill="#A28276"/>
<path fill-rule="evenodd" clip-rule="evenodd" d="M5 15V3H6V15H5Z" fill="#A28276"/>
<path fill-rule="evenodd" clip-rule="evenodd" d="M18 14V2H19V14H18Z" fill="#A28276"/>
<path fill-rule="evenodd" clip-rule="evenodd" d="M15 14V2H16V14H15Z" fill="#A28276"/>
<path fill-rule="evenodd" clip-rule="evenodd" d="M8 15V3H9V15H8Z" fill="#A28276"/>
<path fill-rule="evenodd" clip-rule="evenodd" d="M3.5 21C4.32843 21 5 20.3284 5 19.5C5 18.6716 4.32843 18 3.5 18C2.67157 18 2 18.6716 2 19.5C2 20.3284 2.67157 21 3.5 21ZM3.5 22C4.88071 22 6 20.8807 6 19.5C6 18.1193 4.88071 17 3.5 17C2.11929 17 1 18.1193 1 19.5C1 20.8807 2.11929 22 3.5 22Z" fill="#A28276"/>
<path fill-rule="evenodd" clip-rule="evenodd" d="M16.5 21C17.3284 21 18 20.3284 18 19.5C18 18.6716 17.3284 18 16.5 18C15.6716 18 15 18.6716 15 19.5C15 20.3284 15.6716 21 16.5 21ZM16.5 22C17.8807 22 19 20.8807 19 19.5C19 18.1193 17.8807 17 16.5 17C15.1193 17 14 18.1193 14 19.5C14 20.8807 15.1193 22 16.5 22Z" fill="#A28276"/>
<path fill-rule="evenodd" clip-rule="evenodd" d="M7.5 21C8.32843 21 9 20.3284 9 19.5C9 18.6716 8.32843 18 7.5 18C6.67157 18 6 18.6716 6 19.5C6 20.3284 6.67157 21 7.5 21ZM7.5 22C8.88071 22 10 20.8807 10 19.5C10 18.1193 8.88071 17 7.5 17C6.11929 17 5 18.1193 5 19.5C5 20.8807 6.11929 22 7.5 22Z" fill="#A28276"/>
<path fill-rule="evenodd" clip-rule="evenodd" d="M20.5 21C21.3284 21 22 20.3284 22 19.5C22 18.6716 21.3284 18 20.5 18C19.6716 18 19 18.6716 19 19.5C19 20.3284 19.6716 21 20.5 21ZM20.5 22C21.8807 22 23 20.8807 23 19.5C23 18.1193 21.8807 17 20.5 17C19.1193 17 18 18.1193 18 19.5C18 20.8807 19.1193 22 20.5 22Z" fill="#A28276"/>
</svg>
