<svg width="24" height="24" viewBox="0 0 24 24" fill="none" xmlns="http://www.w3.org/2000/svg">
<path fill-rule="evenodd" clip-rule="evenodd" d="M12 3C9.44031 3 7.36528 5.0902 7.36528 7.6686C7.36528 9.79732 8.77965 11.5933 10.7134 12.155C9.18681 12.3424 7.87742 12.8863 6.89103 13.8655C5.63561 15.1118 5 16.9672 5 19.3883C5 19.7262 5.27191 20 5.60731 20C5.94272 20 6.21461 19.7262 6.21461 19.3883C6.21461 17.1731 6.79359 15.68 7.74361 14.7369C8.69542 13.792 10.1164 13.3031 11.9999 13.3031C13.8835 13.3031 15.3045 13.792 16.2564 14.7369C17.2063 15.68 17.7854 17.1731 17.7854 19.3883C17.7854 19.7262 18.0572 20 18.3927 20C18.7281 20.0001 19 19.7262 19 19.3884C19 16.9672 18.3643 15.1118 17.1089 13.8655C16.1225 12.8863 14.8131 12.3424 13.2865 12.155C15.2202 11.5933 16.6347 9.79733 16.6347 7.6686C16.6347 5.0902 14.5597 3 12 3ZM8.57989 7.6686C8.57989 5.76592 10.1111 4.22349 12 4.22349C13.8889 4.22349 15.4201 5.76592 15.4201 7.6686C15.4201 9.57127 13.8889 11.1137 12 11.1137C10.1111 11.1137 8.57989 9.57127 8.57989 7.6686Z" fill="#A28276"/>
</svg>
