<svg width="24" height="24" viewBox="0 0 24 24" fill="none" xmlns="http://www.w3.org/2000/svg">
<path d="M5.53779 1.44142C4.54044 1.44142 3.64322 2.06144 3.29154 2.99485L1.95092 6.55173C1.91678 6.64206 1.91068 6.74058 1.93341 6.83443C1.95614 6.92828 2.00665 7.0131 2.07833 7.0778C2.15002 7.1425 2.23955 7.18407 2.33523 7.19709C2.43091 7.21012 2.5283 7.19398 2.61467 7.15079L5.18529 5.86548L6.38061 7.06079C6.45184 7.13203 6.54367 7.17906 6.64311 7.19521C6.74255 7.21137 6.84455 7.19582 6.93467 7.15079L9.50529 5.86548L10.7006 7.06079C10.7718 7.13203 10.8637 7.17906 10.9631 7.19521C11.0626 7.21137 11.1646 7.19582 11.2547 7.15079L13.8253 5.86548L15.0206 7.06079C15.0773 7.1175 15.1474 7.1591 15.2243 7.18178C15.3012 7.20446 15.3826 7.2075 15.461 7.19062C15.5394 7.17374 15.6124 7.13749 15.6732 7.08517C15.734 7.03285 15.7807 6.96613 15.809 6.8911L17.324 2.8711C17.3244 2.87048 17.3247 2.86986 17.325 2.86923C17.4267 2.59716 17.6865 2.40142 18 2.40142C18.4036 2.40142 18.72 2.71783 18.72 3.12142V5.18485L16.3565 10.8567C16.3321 10.9153 16.32 10.9781 16.32 11.0414V21.6014H2.87998V11.138L4.49529 7.28392L3.17811 7.94204L1.95748 10.8558C1.93252 10.9144 1.91998 10.9776 1.91998 11.0414V22.0814C1.91998 22.3469 2.13502 22.5614 2.39998 22.5614H16.8H21.6C21.7273 22.5614 21.8494 22.5108 21.9394 22.4208C22.0294 22.3308 22.08 22.2087 22.08 22.0814V11.0414C22.0801 10.978 22.0677 10.9153 22.0434 10.8567L19.68 5.18485V3.12142C19.68 2.22623 18.9641 1.49241 18.0787 1.44985C18.0706 1.44808 18.0625 1.44652 18.0544 1.44517C18.0385 1.44312 18.0225 1.44187 18.0065 1.44142C18.0044 1.4414 18.0022 1.4414 18 1.44142H5.53779ZM5.53779 2.40142H16.5281C16.5028 2.45237 16.446 2.47986 16.4259 2.5336V2.53173L15.1734 5.8561L14.2594 4.94204C14.1881 4.8708 14.0963 4.82377 13.9969 4.80762C13.8974 4.79147 13.7954 4.80701 13.7053 4.85204L11.1347 6.13735L9.93936 4.94204C9.86813 4.8708 9.77629 4.82377 9.67685 4.80762C9.57741 4.79147 9.47541 4.80701 9.38529 4.85204L6.81467 6.13735L5.61936 4.94204C5.54813 4.8708 5.45629 4.82377 5.35685 4.80762C5.25741 4.79147 5.15541 4.80701 5.06529 4.85204L3.28123 5.7436L4.19061 3.33329C4.40245 2.77102 4.93674 2.40142 5.53779 2.40142ZM19.2 6.53017L21.12 11.137V21.6014H17.28V11.137L19.2 6.53017ZM6.23998 13.4414C6.11268 13.4414 5.9906 13.492 5.90058 13.582C5.81057 13.672 5.75999 13.7941 5.75998 13.9214V18.7214C5.75999 18.8487 5.81057 18.9708 5.90058 19.0608C5.9906 19.1508 6.11268 19.2014 6.23998 19.2014H12.96C13.0873 19.2014 13.2094 19.1508 13.2994 19.0608C13.3894 18.9708 13.44 18.8487 13.44 18.7214V13.9214C13.44 13.7941 13.3894 13.672 13.2994 13.582C13.2094 13.492 13.0873 13.4414 12.96 13.4414H6.23998ZM6.71998 14.4014H12.48V18.2414H6.71998V14.4014Z" fill="#A28276"/>
</svg>
