<?xml version="1.0" encoding="utf-8"?>
<!-- Generator: Adobe Illustrator 23.0.0, SVG Export Plug-In . SVG Version: 6.00 Build 0)  -->
<svg version="1.1" id="Layer_1" xmlns="http://www.w3.org/2000/svg" xmlns:xlink="http://www.w3.org/1999/xlink" x="0px" y="0px"
	 viewBox="0 0 22 24" xml:space="preserve">
<path d="M21.2,21.7l-5.5-5.5c1.8-1.7,3-4.1,3-6.8c0-5.1-4.2-9.3-9.3-9.3C4.2,0,0,4.2,0,9.3c0,5.1,4.2,9.3,9.3,9.3
	c1.7,0,3.3-0.5,4.7-1.3l5.7,5.7L21.2,21.7z M2,9.3C2,5.3,5.3,2,9.3,2s7.3,3.3,7.3,7.3s-3.3,7.3-7.3,7.3S2,13.4,2,9.3z"/>
</svg>
