<svg width="32" height="32" viewBox="0 0 32 32" fill="none" xmlns="http://www.w3.org/2000/svg">
<path fill-rule="evenodd" clip-rule="evenodd" d="M16 32C24.8366 32 32 24.8366 32 16C32 7.16344 24.8366 0 16 0C7.16344 0 0 7.16344 0 16C0 24.8366 7.16344 32 16 32ZM7.11133 15.9187C7.11133 18.1339 8.31844 20.1579 10.1842 21.4983C10.3487 21.6076 10.4304 21.7712 10.4304 21.9899C10.4304 22.0174 10.4238 22.0516 10.4171 22.0859C10.4104 22.1201 10.4038 22.1543 10.4038 22.1819C10.266 22.7285 10.0189 23.6316 9.99222 23.6583C9.98687 23.6738 9.98159 23.6884 9.97654 23.7023C9.95469 23.7623 9.93711 23.8107 9.93711 23.8779C9.93804 23.9576 9.97023 24.0337 10.0268 24.0899C10.0833 24.1461 10.1596 24.1778 10.2393 24.1783C10.2976 24.1725 10.3538 24.1536 10.4038 24.1232L12.3513 23.0023C12.4891 22.9196 12.6536 22.8663 12.818 22.8663C12.8998 22.8663 13.01 22.8663 13.0918 22.893C14.0361 23.1706 15.0159 23.3086 16.0002 23.3027C20.9113 23.3027 24.8891 19.9934 24.8891 15.9187C24.8891 11.8432 20.9113 8.53385 16.0002 8.53385C11.0891 8.53385 7.11133 11.8432 7.11133 15.9187ZM14.1798 13.5347C14.1798 14.1721 13.6749 14.677 13.0375 14.677C12.3993 14.677 11.8953 14.1721 11.8953 13.5347C11.8953 12.8965 12.3993 12.3916 13.0375 12.3916C13.6749 12.3916 14.1798 12.8965 14.1798 13.5347ZM20.1051 13.5347C20.1051 14.1721 19.6011 14.677 18.9629 14.677C18.3256 14.677 17.8207 14.1721 17.8207 13.5347C17.8207 12.8965 18.3256 12.3916 18.9629 12.3916C19.6011 12.3916 20.1051 12.8965 20.1051 13.5347Z" fill="#B69D86"/>
</svg>
