<svg width="53" height="55" viewBox="0 0 53 55" fill="none" xmlns="http://www.w3.org/2000/svg">
<path d="M8.89551 17.0835C8.06241 11.7512 9.00661 9.72494 13.368 6.54884C16.1065 4.55454 19.4598 1.77979 23.0524 1.77979C29.2706 1.77979 18.7327 39.2442 17.453 43.3133C16.4518 46.4969 14.4984 55.2631 9.35332 53.5632C4.09426 51.8256 1.54054 46.1827 1.07754 41.0355C-0.0458837 28.5467 11.2216 15.8079 22.9819 13.0262C29.8177 11.4094 29.3222 20.051 29.0391 24.5574C28.8963 26.8299 27.2894 33.1387 29.3913 27.974C31.0233 23.9638 32.8409 19.0469 35.5189 15.5887C37.9415 12.4603 38.9833 16.6831 39.8152 18.3647C40.307 19.3588 50.6746 13.755 52 13.2398" stroke="#50220F" stroke-width="2" stroke-linecap="round"/>
</svg>
