<svg width="198" height="253" viewBox="0 0 198 253" fill="none" xmlns="http://www.w3.org/2000/svg">
<path d="M3.8011 31.8904C3.9212 31.7704 4.16138 31.5304 4.28148 31.4104C6.08295 29.6104 7.88444 27.5704 9.56581 25.6504C9.92611 25.1704 10.4065 24.6904 10.7668 24.0904C11.007 23.8504 11.2472 23.4904 11.4874 23.2504C11.8477 22.7704 12.208 22.4104 12.5683 21.9304C12.8084 21.5704 13.1687 21.2104 13.4089 20.8504C13.7692 20.4904 14.0094 20.0104 14.3697 19.6504C14.73 19.2904 14.9702 18.8104 15.2104 18.4504C15.4506 18.0904 15.8109 17.6104 16.0511 17.2504C17.132 15.6904 18.2128 14.0104 19.2937 12.4504C20.2545 11.7304 21.2153 11.1304 22.2962 10.8904C22.7766 10.7704 23.1369 11.0104 23.3771 11.4904C30.3428 16.1704 36.1075 23.6104 41.9923 29.6104C48.1173 35.9704 54.2423 42.2104 60.3673 48.5704C66.9727 55.2904 73.5781 62.1304 80.1834 68.8504C82.7055 65.2504 85.2276 61.7704 87.7496 58.2904C87.6295 58.1704 87.6295 58.0504 87.5094 57.9304C87.2692 57.5704 87.8697 57.2104 88.1099 57.5704C88.1099 57.5704 88.1099 57.5704 88.23 57.6904C88.23 57.6904 88.23 57.6904 88.3501 57.5704C88.5903 57.2104 89.1908 57.5704 88.9506 57.9304C88.8305 58.0504 88.8305 58.1704 88.7104 58.2904C89.5511 59.3704 90.2717 60.4504 90.9923 61.5304C91.1124 61.5304 91.2325 61.5304 91.3526 61.6504C94.9555 64.7704 97.3575 69.3304 99.9996 73.1704C101.921 75.9304 103.843 78.6904 105.644 81.5704C116.453 67.7704 127.742 54.3304 138.791 40.7704C144.196 34.0504 149.6 27.4504 155.005 20.7304C160.169 14.3704 165.213 6.57037 171.578 1.41037C171.698 0.930365 172.058 0.690365 172.539 0.810365C173.5 1.05037 174.581 1.53037 175.541 2.13037C176.382 3.45037 177.463 4.89037 178.664 6.45037C178.904 6.81037 179.264 7.17037 179.505 7.53037C179.865 8.01037 180.225 8.37037 180.585 8.85037C180.826 9.21037 181.186 9.57037 181.426 9.93037C181.786 10.2904 182.027 10.6504 182.387 11.0104C182.747 11.3704 183.107 11.8504 183.348 12.2104C183.588 12.5704 183.828 12.8104 184.188 13.0504C184.549 13.5304 185.029 14.0104 185.389 14.3704L185.509 14.4904C187.191 16.2904 188.992 18.0904 190.794 19.7704C190.914 19.8904 191.154 20.0104 191.274 20.2504C191.995 20.8504 192.595 21.4504 193.196 22.0504C193.196 22.0504 193.196 22.0504 193.076 22.0504C190.554 28.6504 183.107 34.4104 178.544 39.4504C171.818 46.7704 165.093 54.0904 158.247 61.2904C152.002 68.0104 145.757 74.7304 139.392 81.4504C133.867 87.3304 128.583 93.5704 122.818 99.0904C122.698 99.5704 122.338 99.9304 121.857 99.9304C121.737 100.05 121.617 100.17 121.497 100.29C121.137 99.9304 120.656 99.4504 120.296 99.0904C118.134 96.9304 115.853 94.7704 113.571 92.7304C113.451 93.4504 113.09 93.9304 112.73 94.5304C115.252 98.6104 117.774 102.81 120.176 107.01C120.296 107.01 120.416 107.13 120.416 107.13C133.747 119.73 146.838 132.69 160.049 145.41C166.414 151.53 172.659 157.65 179.024 163.77C185.029 169.65 192.475 175.41 197.159 182.37C197.639 182.49 197.88 182.85 197.759 183.45C197.519 184.53 196.919 185.49 196.198 186.45C194.517 187.53 192.956 188.61 191.274 189.81C190.914 190.05 190.554 190.29 190.193 190.53C189.713 190.89 189.232 191.25 188.752 191.49C188.392 191.73 188.031 192.09 187.551 192.33C187.191 192.57 186.71 192.93 186.35 193.17C185.87 193.53 185.509 193.77 185.029 194.13C184.669 194.37 184.429 194.61 184.068 194.85C183.588 195.21 183.107 195.69 182.627 196.05L182.507 196.17C180.585 197.85 178.664 199.53 176.742 201.33C176.622 201.45 176.382 201.69 176.262 201.81C175.661 202.41 175.061 203.01 174.46 203.73C174.46 203.73 174.46 203.73 174.46 203.61C167.975 200.49 162.811 192.45 158.127 187.29C151.281 179.73 144.436 172.17 137.59 164.61C132.906 159.45 128.343 154.29 123.659 149.01C125.34 161.85 126.301 174.93 127.742 187.89C128.703 196.65 130.144 205.65 131.225 214.65C131.706 215.25 132.066 215.97 132.546 216.57C132.666 216.69 132.666 216.81 132.786 216.93C132.906 216.57 133.147 216.21 133.387 215.85C133.627 215.49 134.348 215.61 134.348 216.09C134.348 217.05 134.228 217.89 134.107 218.85C134.828 219.93 135.549 221.01 136.149 222.09C138.191 222.09 140.112 222.09 142.154 222.09C140.713 220.53 139.152 218.97 137.71 217.41C136.269 215.97 134.588 214.53 133.627 212.73C133.507 212.61 133.627 212.37 133.747 212.25C133.027 212.25 132.306 212.25 131.585 212.25C131.465 211.05 131.345 209.73 131.105 208.53C135.789 208.17 140.593 208.17 145.277 208.05C149.36 208.05 153.683 207.69 157.767 208.17C158.007 207.69 158.487 207.45 158.968 207.81C159.328 208.05 159.808 208.41 160.169 208.65C160.409 208.77 160.769 208.77 161.009 208.89C161.37 209.01 161.49 209.37 161.37 209.73C163.171 211.29 164.853 213.09 166.534 214.65C169.176 217.29 171.818 219.81 174.34 222.45C174.46 222.69 174.22 222.93 174.1 222.81C171.458 220.77 168.816 218.73 166.294 216.57C163.892 214.65 161.25 212.73 159.088 210.57C157.527 210.93 155.965 211.17 154.404 211.29C158.607 214.65 162.571 218.37 166.534 222.09C169.296 222.21 171.938 222.45 174.581 222.93V223.05C172.779 223.53 170.857 223.77 168.816 224.01C169.416 226.65 168.936 229.77 168.456 232.41C168.456 232.41 168.456 232.41 168.456 232.53C167.375 233.13 166.414 233.37 165.213 233.37C164.612 232.89 164.252 232.17 164.492 231.33C164.973 229.05 165.573 226.41 166.774 224.25C162.451 224.61 158.127 224.73 153.924 224.85C150.801 224.97 147.799 225.21 144.676 225.33C144.556 226.77 144.436 228.09 144.076 229.53C144.076 229.65 143.835 229.65 143.835 229.53C143.956 228.21 144.196 226.77 144.436 225.45C142.995 225.57 141.674 225.57 140.232 225.57C140.112 227.49 139.872 229.29 139.632 231.21C139.632 231.45 139.152 231.45 139.272 231.21C139.392 229.29 139.752 227.49 139.992 225.69C137.71 225.81 135.308 225.81 133.027 225.93C133.027 227.49 133.027 228.93 133.027 230.49C133.027 230.61 132.786 230.61 132.786 230.49C132.786 228.93 132.786 227.49 132.786 225.93C132.546 225.93 132.426 225.93 132.186 225.93C132.306 228.09 132.306 230.37 132.306 232.53C132.786 232.65 133.147 232.65 133.627 232.77C133.747 232.77 133.747 232.89 133.627 232.89C133.147 232.89 132.786 232.77 132.306 232.77C132.306 234.33 132.186 235.89 132.066 237.57C132.066 237.93 131.585 237.93 131.465 237.69C130.985 236.01 130.505 234.33 130.144 232.65C127.262 232.41 124.259 232.17 121.497 231.45C121.257 231.33 121.257 230.97 121.617 230.97C124.38 231.09 127.262 231.57 130.024 232.05C129.664 230.49 129.304 228.93 129.063 227.37C125.701 227.13 122.338 226.77 119.095 225.93C118.855 225.81 118.855 225.45 119.215 225.45C122.458 225.69 125.821 226.29 129.063 227.01C128.823 225.69 128.583 224.25 128.343 222.93C125.581 222.81 122.818 222.57 120.056 222.33C119.816 222.33 119.816 221.97 120.056 221.97C122.818 222.21 125.581 222.33 128.343 222.81C128.223 222.21 128.223 221.61 128.103 221.13C123.659 220.53 119.215 220.17 114.772 219.69C106.605 218.85 98.4383 218.49 90.1516 218.61C81.1442 218.61 72.1369 219.45 63.2496 220.65V220.77C68.0536 220.29 73.3379 221.01 78.0217 221.13C85.5879 221.25 93.154 221.25 100.72 221.25C100.84 221.25 100.84 221.37 100.72 221.37C93.8746 221.61 87.1491 221.97 80.3035 222.33C74.8991 222.57 68.654 223.89 63.1295 223.41C63.1295 223.77 63.1295 224.25 63.0094 224.61C74.2986 223.89 86.3084 225.33 97.5977 225.45C97.7178 225.45 97.7178 225.57 97.5977 225.57C86.3084 225.81 74.2986 227.37 62.8893 226.77C62.8893 227.37 62.7692 227.97 62.7692 228.57C74.2987 228.45 86.0683 228.57 97.5977 229.29C86.0683 230.25 74.2986 230.49 62.6491 230.49C62.6491 230.97 62.529 231.57 62.529 232.05C66.8526 231.81 71.2962 232.17 75.6197 232.29C82.7055 232.41 89.7913 232.29 96.757 232.65C96.8771 232.65 96.8771 232.77 96.757 232.77C90.5119 233.25 84.2668 233.37 77.9016 233.61C72.7374 233.85 67.453 234.45 62.2888 234.21C62.2888 234.69 62.1687 235.29 62.1687 235.77C65.6516 235.65 69.2545 235.89 72.7374 235.89C79.2227 235.89 85.708 235.89 92.1933 235.77C94.7153 235.53 97.2374 235.41 99.8795 235.41C100.72 230.49 103.122 224.25 108.286 224.25C114.772 224.25 113.09 231.09 112.13 235.65C115.252 235.77 118.255 236.01 121.257 236.25C123.779 236.13 126.301 236.01 128.703 235.77C128.943 235.77 128.943 236.13 128.703 236.13C127.382 236.25 126.061 236.37 124.74 236.49C125.1 236.49 125.1 236.97 124.74 236.97C119.936 237.45 115.012 238.05 109.968 238.41C109.968 238.53 109.968 238.65 109.968 238.77C110.568 241.65 106.005 242.01 106.125 239.25C106.125 239.01 106.125 238.89 106.125 238.65C105.764 238.65 105.404 238.65 105.044 238.65C104.443 241.77 99.6393 241.89 99.3991 238.77C94.8354 238.77 90.2717 238.53 85.9482 237.93C85.2276 237.81 85.2276 236.61 85.9482 236.49C87.2692 236.25 88.4702 236.13 89.7913 236.01C84.8673 236.37 79.8232 236.73 74.8991 237.09C70.6957 237.33 66.132 238.17 61.8084 238.17C61.8084 238.77 61.6884 239.49 61.6884 240.09C65.4114 239.61 69.3746 239.85 72.9776 239.73C78.9825 239.49 84.9874 239.61 90.8722 239.13C90.9923 239.13 90.9923 239.25 90.8722 239.25C84.8673 239.61 78.8624 240.45 72.9776 241.29C71.4163 241.53 69.855 241.77 68.2937 241.89C70.4555 241.77 72.7374 241.77 74.779 242.01C79.3428 241.29 83.9065 240.69 88.4702 239.97C88.5903 239.97 88.5903 240.09 88.4702 240.21C85.1075 240.93 81.8648 241.77 78.6222 242.61C79.9432 242.85 81.1442 243.21 82.4653 243.69C82.8256 243.81 82.8256 244.41 82.3452 244.41C79.4629 244.05 76.5805 243.81 73.8183 243.81C73.458 243.93 73.2178 243.93 72.8575 244.05C69.0143 245.01 65.0511 246.69 60.9678 246.81C60.7276 247.77 60.2472 248.61 59.5266 249.21C64.3305 248.61 69.4947 248.97 74.0584 248.97C74.779 248.97 74.8991 250.05 74.1786 250.17C68.0536 251.25 60.7276 253.29 54.6026 252.09C53.6418 251.97 53.882 250.65 54.6026 250.41C54.7227 250.41 54.8428 250.41 54.8428 250.29C54.7227 251.49 56.404 251.85 57.1246 251.01C57.3648 250.65 57.605 250.41 57.8452 250.05C56.2839 250.41 54.4825 250.05 53.6418 248.73C52.4408 249.33 51.2398 249.93 50.0388 250.41C49.4384 250.77 48.5977 249.93 49.1982 249.33C49.3182 249.21 49.4384 249.09 49.5585 248.97C48.2374 249.09 46.9163 249.33 45.5952 249.45C45.5952 251.01 44.7545 252.57 42.7129 252.57C39.9506 252.57 39.23 249.57 40.3109 247.89C39.5903 240.09 39.8305 232.29 40.431 224.49C39.3501 224.73 38.3893 224.85 37.3084 225.09C37.5486 223.89 37.7888 222.69 38.1491 221.49C38.2692 221.49 38.3893 221.37 38.5094 221.37C38.6295 220.29 38.7496 219.33 38.8697 218.25C38.8697 218.13 38.9898 218.01 38.9898 217.89C38.9898 217.77 38.9898 217.65 38.9898 217.65C38.9898 217.65 38.9898 217.65 38.9898 217.53C39.1099 217.17 39.1099 216.81 39.23 216.45C39.8305 216.09 40.5511 215.73 41.2717 215.49C41.2717 215.13 41.3918 214.77 41.3918 214.29C42.3526 206.49 43.4335 198.33 45.5952 190.53C40.7913 196.29 35.9874 202.05 31.1835 207.81C30.8232 208.17 30.4629 208.41 29.9825 208.29C29.5021 208.53 28.9016 208.53 28.4212 208.29C20.855 203.73 14.2496 196.41 8.60501 189.81C8.84521 189.21 8.96531 188.73 9.20551 188.13C9.20551 188.01 9.32559 187.89 9.32559 187.89V187.77C9.32559 187.65 9.44569 187.53 9.44569 187.29C9.68589 186.93 10.0462 186.57 10.2864 186.21C12.328 183.57 14.3697 181.05 16.5315 178.53C16.7717 178.17 17.0119 177.81 17.3722 177.57C24.6982 168.69 32.2643 159.93 39.9506 151.41V151.29C40.0707 151.17 40.1908 151.05 40.1908 150.93C40.1908 150.93 40.1908 150.93 40.3109 150.93C41.7521 149.25 43.3134 147.69 44.7545 146.01C46.0756 144.69 47.3967 143.25 48.7178 141.93C48.5977 141.81 48.5977 141.69 48.5977 141.45V141.33C48.7178 140.85 48.7178 140.37 48.8379 140.01C48.7178 140.13 48.4776 140.25 48.2374 140.37C46.4359 140.85 44.7545 140.61 43.1933 139.65C42.833 139.41 42.5928 139.05 42.5928 138.69C42.4727 138.69 42.4727 138.69 42.3526 138.69C41.632 138.93 40.9114 139.05 40.1908 139.29C38.8697 139.53 37.4285 137.97 38.1491 136.89C38.1491 136.65 38.1491 136.53 38.2692 136.29C43.9138 125.49 49.7986 114.93 56.0437 104.49C55.9236 104.49 55.9236 104.49 55.8035 104.49C55.083 104.37 55.3232 103.29 55.9236 103.29C56.1638 103.29 56.5241 103.29 56.7643 103.17C59.0462 99.4504 61.328 95.7304 63.6099 92.0104C62.7692 91.1704 61.8084 90.4504 60.9678 89.6104C54.0021 83.3704 46.9163 77.1304 39.9506 70.7704C32.3844 63.9304 24.8183 57.0904 17.2521 50.2504C12.0879 45.5704 3.92118 40.4104 0.918732 33.9304C0.918732 33.9304 0.918743 33.9304 0.798645 33.9304C2.60012 33.0904 3.20061 32.4904 3.8011 31.8904ZM148.159 221.97C145.156 219.33 142.034 216.57 139.512 213.57C139.392 213.45 139.512 213.09 139.752 213.21C143.115 215.73 146.117 218.97 149.12 221.97C150.081 221.97 151.041 221.97 152.002 221.97C156.686 221.97 161.61 221.85 166.414 222.09C162.21 218.61 157.887 215.25 154.044 211.41C152.723 211.53 151.281 211.53 149.96 211.65C153.804 214.41 157.286 218.01 160.769 221.25C160.769 221.25 160.769 221.37 160.649 221.37C156.926 218.25 152.603 215.37 149.24 211.89V211.77C148.759 211.77 148.279 211.77 147.799 211.89C146.838 211.89 145.757 212.01 144.796 212.01C148.279 215.01 151.522 218.49 154.764 221.61C154.884 221.73 154.764 221.73 154.644 221.73C151.161 218.49 147.558 215.49 144.316 212.01C141.073 212.13 137.71 212.37 134.468 212.37C136.149 213.57 137.35 215.37 138.551 216.93C139.992 218.61 141.433 220.29 142.755 222.09C144.556 221.97 146.357 221.97 148.159 221.97ZM132.426 224.85C132.426 223.89 132.546 222.93 132.426 221.97H132.666C132.546 221.85 132.306 221.61 132.186 221.49C132.306 222.69 132.306 223.77 132.426 224.85ZM132.186 221.25C132.426 221.49 132.666 221.73 132.906 222.09C133.987 222.09 135.068 222.09 136.149 222.09L133.987 219.69C133.387 220.29 132.066 219.81 132.306 218.73C132.426 218.49 132.426 218.25 132.546 218.01L131.826 217.29L131.706 217.17C131.946 218.49 132.066 219.81 132.186 221.25ZM109.848 235.41C110.448 235.41 111.169 235.41 111.769 235.53C111.649 234.33 111.529 233.25 111.529 232.17C111.409 230.49 111.649 227.73 109.247 228.09C109.007 228.09 108.647 228.21 108.406 228.33C109.127 230.61 109.487 233.01 109.848 235.41ZM106.485 235.29C106.485 233.85 106.485 232.53 106.485 231.09C106.125 232.41 105.884 233.97 105.764 235.29C106.005 235.29 106.245 235.29 106.485 235.29ZM40.0707 218.01C40.1908 218.97 40.3109 220.05 40.3109 221.01C40.7913 220.89 41.1516 220.77 41.632 220.65C41.632 220.41 41.632 220.17 41.7521 220.05C41.632 220.05 41.5119 219.93 41.632 219.81C41.632 219.57 41.7521 219.21 41.8722 218.97C41.9923 218.37 41.9923 217.77 42.1124 217.05C41.2717 217.41 40.6712 217.65 40.0707 218.01ZM18.5732 18.6904C17.8526 19.5304 17.2521 20.3704 16.5315 21.2104C19.1736 22.4104 20.855 24.4504 23.1369 26.7304C23.3771 26.9704 23.6173 27.2104 23.8575 27.4504C25.0584 26.1304 26.2594 24.8104 27.4604 23.4904C25.2986 20.9704 23.1369 18.5704 21.0952 16.0504C20.3746 16.8904 19.534 17.7304 18.5732 18.6904ZM88.23 103.41C90.5119 103.05 92.7937 103.17 95.0756 103.29C94.7153 103.05 94.355 102.81 93.9947 102.45C93.0339 101.73 92.0732 101.01 91.1124 100.29C90.632 100.29 90.1516 100.29 89.6712 100.17C89.1908 100.17 89.1908 99.4504 89.6712 99.4504C89.7913 99.4504 90.0315 99.4504 90.1516 99.4504C89.9114 99.2104 89.7913 99.0904 89.5511 98.8504C87.8697 100.53 86.1883 102.33 84.6271 104.01C85.5879 104.01 86.5486 104.01 87.6295 104.13C87.6295 103.89 87.8697 103.53 88.23 103.41ZM90.5119 83.2504C90.7521 83.2504 90.8722 83.2504 91.1124 83.2504C90.5119 82.6504 89.9114 82.0504 89.3109 81.3304C88.5903 81.2104 87.9898 80.9704 87.2692 80.8504C87.029 81.2104 86.6687 81.6904 86.4285 82.0504C87.5094 83.0104 88.4702 84.0904 89.5511 85.0504C90.7521 85.0504 91.9531 85.1704 93.0339 85.1704C92.7937 84.9304 92.5535 84.6904 92.3133 84.4504C91.7129 84.2104 91.1124 84.0904 90.5119 83.8504C90.1516 83.7304 90.1516 83.2504 90.5119 83.2504ZM42.953 45.9304C45.355 48.2104 47.6369 50.6104 50.0388 52.8904C50.7594 52.0504 51.6001 51.2104 52.3207 50.3704C49.9187 47.9704 47.3967 45.4504 45.1148 42.9304C44.3942 43.8904 43.6736 44.9704 42.953 45.9304ZM44.3942 42.0904C41.632 39.0904 38.8697 36.0904 36.1075 33.0904C35.2668 34.2904 34.4261 35.4904 33.4653 36.5704C36.3477 39.3304 39.1099 42.0904 41.9923 44.9704C42.833 44.0104 43.5535 43.0504 44.3942 42.0904ZM51.1197 53.8504C51.9604 54.6904 52.8011 55.5304 53.6418 56.3704L57.605 60.2104C58.3256 59.2504 59.0462 58.4104 59.7668 57.4504C58.3256 56.1304 56.8844 54.6904 55.5634 53.3704C54.8428 52.6504 54.0021 51.8104 53.2815 51.0904C52.4408 52.0504 51.7202 53.0104 51.1197 53.8504ZM58.3256 61.0504L65.2913 67.8904C66.132 67.0504 66.9727 66.2104 67.6933 65.3704C65.1712 62.9704 62.7692 60.5704 60.2472 58.1704C59.7668 59.1304 59.0462 60.0904 58.3256 61.0504ZM66.4923 68.9704L73.3379 75.6904C74.0584 74.7304 74.8991 73.7704 75.6197 72.9304C73.3379 70.7704 71.056 68.4904 68.7741 66.3304C68.0536 67.1704 67.2129 68.1304 66.4923 68.9704ZM72.257 79.5304C71.4163 80.8504 70.5756 82.2904 69.7349 83.6104L69.9751 83.8504C70.8158 82.5304 71.6565 81.2104 72.6173 79.8904L72.257 79.5304ZM74.1786 76.5304L74.4187 76.7704C75.1393 75.8104 75.7398 74.7304 76.4604 73.7704L76.3403 73.6504C75.6197 74.6104 74.8991 75.5704 74.1786 76.5304ZM76.4604 76.2904C77.3011 76.1704 78.1418 76.1704 78.9825 76.1704C78.5021 75.6904 78.0217 75.2104 77.5413 74.7304C77.0609 75.2104 76.8207 75.6904 76.4604 76.2904ZM75.8599 77.1304C75.7398 77.3704 75.6197 77.6104 75.4996 77.7304L82.2251 84.3304C83.0658 83.3704 83.7864 82.5304 84.6271 81.5704C83.1859 80.1304 81.6246 78.6904 80.1834 77.2504C78.7423 77.3704 77.3011 77.2504 75.8599 77.1304ZM92.6736 89.3704C91.4727 88.1704 90.2717 87.0904 89.0707 85.8904C87.3893 85.8904 85.5879 86.0104 83.9065 86.0104L87.029 89.1304C88.8305 89.2504 90.7521 89.3704 92.6736 89.3704ZM87.7496 89.8504L91.1124 93.2104C91.2325 93.0904 91.4727 92.9704 91.5928 92.8504C92.3134 92.1304 93.154 91.4104 93.9947 90.8104C93.6344 90.4504 93.154 90.0904 92.7937 89.6104C91.1124 89.7304 89.431 89.8504 87.7496 89.8504ZM88.23 85.0504C87.5094 84.3304 86.6687 83.6104 85.9482 82.7704C85.4678 83.4904 84.8673 84.2104 84.3869 84.9304C85.5879 85.0504 86.9089 85.0504 88.23 85.0504ZM82.8256 89.9704C82.105 89.9704 81.3844 89.9704 80.6638 89.9704C80.0634 90.8104 79.4629 91.6504 78.9825 92.4904C79.3428 92.8504 79.8232 93.2104 80.3035 93.6904C82.4653 93.5704 84.6271 93.6904 86.7888 93.8104L82.8256 89.9704ZM81.8648 89.0104L81.6246 88.7704C81.5045 88.8904 81.5045 89.0104 81.3844 89.0104C81.6246 89.0104 81.7447 89.0104 81.8648 89.0104ZM85.2276 80.9704C85.8281 80.3704 86.4285 79.6504 86.9089 79.0504C86.3084 78.4504 85.708 77.7304 84.9874 77.1304C83.7864 77.2504 82.5854 77.3704 81.3844 77.3704C82.7055 78.4504 83.9065 79.7704 85.2276 80.9704ZM90.2717 85.8904C91.7129 87.3304 93.2741 88.7704 94.7153 90.2104C95.1957 89.8504 95.6761 89.6104 96.1565 89.2504C96.2766 89.1304 96.5168 89.0104 96.6369 89.0104C95.556 87.8104 94.355 86.7304 93.2741 85.5304C93.2741 85.6504 93.154 85.7704 93.0339 85.7704C92.0732 85.7704 91.2325 85.8904 90.2717 85.8904ZM85.2276 98.1304C86.3084 97.1704 87.5094 96.3304 88.4702 95.6104L87.6295 94.7704C85.708 94.8904 83.6663 95.0104 81.7447 95.0104C83.0658 96.0904 84.1467 97.1704 85.2276 98.1304ZM83.4261 99.0904C81.7447 99.0904 79.9433 98.9704 78.2619 98.7304C79.4629 99.8104 80.5437 100.89 81.6246 101.97C82.2251 101.13 82.9457 100.29 83.7864 99.4504C83.6663 99.3304 83.5462 99.2104 83.4261 99.0904ZM82.5854 98.1304C81.6246 97.0504 80.6638 96.0904 79.583 95.0104C78.8624 95.0104 78.1418 94.8904 77.4212 94.7704C76.9408 95.3704 76.5805 95.9704 76.1001 96.5704C76.5805 97.0504 77.0609 97.4104 77.5413 97.8904C79.1026 97.8904 80.7839 97.8904 82.5854 98.1304ZM76.8207 90.3304C77.0609 89.9704 77.4212 89.7304 77.6614 89.3704C78.382 88.5304 79.1026 87.8104 79.8232 86.9704L78.6222 85.8904C78.0217 85.8904 77.5413 85.8904 76.9408 85.7704C75.6197 85.7704 74.1785 85.6504 72.8575 85.5304C72.4972 85.5304 72.4972 84.8104 72.8575 84.8104C74.2986 84.5704 75.7398 84.4504 77.181 84.4504L73.458 80.8504C72.6173 82.1704 71.7766 83.4904 70.9359 84.9304C72.8575 86.7304 74.8991 88.5304 76.8207 90.3304ZM70.5756 90.8104C72.0168 90.4504 73.5781 90.4504 75.1393 90.5704C73.5781 89.0104 72.0168 87.4504 70.3354 85.7704C69.4947 86.9704 68.7741 88.2904 67.9334 89.6104C69.7349 91.1704 71.5364 92.8504 73.3379 94.4104C74.0584 93.5704 74.6589 92.6104 75.3795 91.7704C73.6982 91.8904 71.8967 91.8904 70.3354 91.5304C70.2153 91.4104 70.2153 90.8104 70.5756 90.8104ZM69.2545 84.5704C69.1344 84.4504 69.1344 84.4504 69.0143 84.3304C68.1736 85.5304 67.2129 86.7304 66.132 87.8104C66.3722 88.0504 66.6124 88.1704 66.7325 88.4104C67.6933 87.2104 68.4138 85.8904 69.2545 84.5704ZM71.056 78.3304L64.3305 71.7304C63.2496 72.9304 62.2888 74.2504 61.208 75.4504C63.4898 77.6104 65.6516 79.7704 67.9334 81.9304C68.8942 80.7304 69.9751 79.5304 71.056 78.3304ZM63.0094 70.4104L56.404 63.9304C55.4433 65.2504 54.4825 66.5704 53.5217 68.0104C55.5633 70.0504 57.7251 71.9704 59.7668 74.0104C60.7276 72.8104 61.8084 71.6104 63.0094 70.4104ZM55.3232 62.9704L51.1197 58.7704C50.3991 58.0504 49.6786 57.3304 48.958 56.6104C47.8771 57.9304 46.7962 59.2504 45.8354 60.5704C47.1565 61.8904 48.5977 63.2104 49.9187 64.5304C50.7594 65.2504 51.48 66.0904 52.3207 66.8104C53.2815 65.4904 54.3624 64.1704 55.3232 62.9704ZM47.757 55.5304C45.4751 53.2504 43.1933 51.0904 41.0315 48.8104C40.0707 50.2504 38.9898 51.6904 37.9089 53.1304C40.0707 55.1704 42.2325 57.2104 44.3942 59.3704C45.4751 58.0504 46.6761 56.7304 47.757 55.5304ZM39.8305 47.7304C37.0683 44.9704 34.1859 42.2104 31.4236 39.4504C30.3428 40.8904 29.2619 42.4504 28.181 43.8904C30.9433 46.5304 33.7055 49.1704 36.5879 51.8104C37.6687 50.3704 38.7496 49.0504 39.8305 47.7304ZM32.6246 35.8504C33.5854 34.6504 34.4261 33.5704 35.3869 32.3704C32.8648 29.4904 30.3428 26.7304 27.8207 23.7304C26.7398 25.1704 25.6589 26.4904 24.5781 27.9304C27.3403 30.6904 29.9825 33.2104 32.6246 35.8504ZM23.257 11.7304C23.257 11.8504 23.1369 11.9704 23.1369 12.0904C23.257 12.0904 23.3771 12.0904 23.4972 12.0904C23.3771 11.9704 23.3771 11.8504 23.257 11.7304ZM23.6173 12.2104C23.3771 12.5704 23.0168 13.0504 22.7766 13.4104C22.4163 14.1304 22.056 14.8504 21.4555 15.4504C23.6173 17.8504 25.8991 20.3704 28.0609 22.7704C28.7815 21.9304 29.5021 21.0904 30.3428 20.2504C27.8207 17.7304 25.5388 15.0904 23.6173 12.2104ZM30.4629 20.4904C29.7423 21.3304 29.1418 22.2904 28.4212 23.1304C30.9432 26.0104 33.5854 28.7704 36.1075 31.6504C36.9482 30.5704 37.7888 29.6104 38.6295 28.5304C35.9874 25.8904 33.105 23.2504 30.4629 20.4904ZM38.9898 29.1304C38.1491 30.2104 37.4285 31.2904 36.5879 32.3704C39.3501 35.3704 42.1124 38.3704 44.8746 41.3704C45.7153 40.2904 46.6761 39.2104 47.5168 38.1304C44.7545 35.1304 41.8722 32.1304 38.9898 29.1304ZM48.2374 38.6104C47.3967 39.8104 46.556 40.8904 45.7153 42.0904C48.1173 44.6104 50.5192 47.1304 53.0413 49.6504C54.0021 48.5704 54.9629 47.6104 55.9236 46.5304C53.2815 43.8904 50.7594 41.2504 48.2374 38.6104ZM58.9261 49.6504C58.0854 48.8104 57.2447 47.8504 56.404 47.0104C55.5634 48.0904 54.7227 49.2904 53.7619 50.3704C55.083 51.6904 56.404 53.0104 57.8452 54.3304L60.3673 56.7304C61.208 55.7704 62.0486 54.6904 62.8893 53.6104C61.4482 52.4104 60.1271 51.0904 58.9261 49.6504ZM63.1295 54.2104C62.4089 55.2904 61.5683 56.3704 60.8477 57.4504C63.3697 59.8504 65.8918 62.3704 68.4138 64.7704C69.2545 63.9304 69.9751 63.0904 70.8158 62.2504C68.2937 59.6104 65.7717 56.8504 63.1295 54.2104ZM71.5364 62.8504C70.8158 63.6904 70.0952 64.6504 69.3746 65.4904C71.6565 67.6504 73.9383 69.9304 76.2202 72.0904C76.8207 71.2504 77.5413 70.5304 78.1418 69.6904C75.8599 67.5304 73.6981 65.2504 71.5364 62.8504ZM78.6222 70.2904C78.0217 71.1304 77.4212 71.9704 76.8207 72.8104L76.9408 72.9304C77.5413 72.2104 78.1418 71.2504 78.6222 70.2904C78.6222 70.4104 78.7423 70.4104 78.6222 70.2904ZM79.583 71.3704C78.9825 72.2104 78.5021 73.0504 77.9016 73.8904L80.1834 76.0504C81.6246 76.0504 82.9457 76.1704 84.3869 76.2904C82.8256 74.7304 81.1442 73.0504 79.583 71.3704ZM106.125 86.7304C105.284 85.4104 104.443 83.9704 103.482 82.6504C102.281 82.5304 101.081 82.5304 99.7594 82.4104C99.6393 82.1704 99.5192 81.8104 99.3991 81.5704C100.72 81.8104 102.041 82.0504 103.242 82.2904C102.281 80.7304 101.321 79.2904 100.36 77.7304C99.3991 77.7304 98.4383 77.7304 97.3575 77.7304C97.2374 77.3704 96.9972 77.1304 96.8771 76.7704C97.958 76.8904 99.0388 77.1304 99.9996 77.2504C99.6393 76.6504 99.1589 75.9304 98.7986 75.3304C97.2374 73.0504 95.4359 70.8904 93.7545 68.4904C93.3942 68.4904 92.9138 68.4904 92.5535 68.4904C92.4334 68.2504 92.3134 68.0104 92.1933 67.7704C92.5535 67.7704 92.9138 67.8904 93.2741 67.8904C92.0732 66.0904 90.9923 64.2904 90.2717 62.3704C90.0315 62.0104 89.7913 61.6504 89.5511 61.1704C89.3109 62.0104 88.8305 62.8504 88.23 63.6904H88.3501C89.431 64.0504 88.5903 65.6104 87.7496 65.0104C87.6295 64.8904 87.5094 64.8904 87.3893 64.7704C87.1491 65.1304 86.9089 65.3704 86.6687 65.7304C86.0683 66.5704 85.3477 67.2904 84.7472 68.0104C84.3869 68.4904 83.5462 68.4904 83.0658 68.8504C83.0658 68.8504 82.9457 68.8504 82.9457 68.7304C83.1859 68.0104 82.8256 67.2904 83.0658 66.6904C83.5462 65.8504 84.0266 64.8904 84.507 64.0504C85.3477 62.4904 86.3084 60.5704 87.7496 59.6104C87.9898 59.4904 88.23 59.3704 88.4702 59.3704C88.23 59.0104 87.9898 58.7704 87.8697 58.4104C85.4678 62.0104 83.0658 65.6104 80.6638 69.2104C82.8256 71.3704 84.8673 73.5304 87.029 75.6904C89.3109 75.4504 91.7129 75.6904 93.9947 76.0504C94.2349 76.5304 94.4751 76.8904 94.7153 77.3704C92.4334 77.3704 90.1516 77.2504 87.9898 76.7704C88.9506 77.8504 90.0315 78.8104 90.9923 79.8904C92.7937 80.0104 94.5952 80.3704 96.3967 80.7304C96.6369 81.2104 96.8771 81.5704 96.9972 82.0504C95.556 81.9304 93.9947 81.8104 92.5535 81.6904C93.154 82.2904 93.6344 82.8904 94.2349 83.4904C95.4359 83.7304 96.757 83.9704 97.958 84.3304C98.1982 84.8104 98.3183 85.2904 98.5584 85.7704C97.7178 85.6504 96.757 85.4104 95.9163 85.2904C96.757 86.1304 97.4776 86.9704 98.3183 87.8104C98.6785 88.2904 98.6785 88.7704 98.3183 89.1304C98.7986 89.1304 99.279 89.1304 99.7594 89.1304C99.7594 89.2504 99.8795 89.4904 99.8795 89.6104C99.1589 89.6104 98.4384 89.4904 97.7178 89.4904C97.1173 90.6904 96.1565 91.7704 95.3158 92.9704C95.0756 93.2104 94.8354 93.5704 94.7153 93.8104C95.556 94.6504 96.2766 95.6104 97.1173 96.4504C97.7178 96.9304 98.1982 97.5304 98.6786 98.1304C98.7986 98.2504 98.9187 98.3704 98.9187 98.4904C99.0388 98.2504 99.279 98.0104 99.6393 97.7704C100.12 97.4104 100.72 97.1704 101.201 96.9304C101.321 96.8104 101.441 96.5704 101.561 96.4504C102.161 95.8504 102.762 95.3704 103.242 94.7704C101.081 94.7704 98.9187 94.8904 96.8771 94.7704C96.757 94.7704 96.6369 94.5304 96.8771 94.5304C99.0388 94.4104 101.321 94.5304 103.482 94.6504C104.083 94.0504 104.804 93.4504 105.404 92.8504C104.443 92.7304 103.482 92.7304 102.522 92.6104C102.642 92.4904 102.762 92.2504 102.762 92.1304C103.723 92.2504 104.804 92.3704 105.764 92.4904C106.605 91.7704 107.326 91.1704 108.286 90.5704C108.166 90.4504 108.046 90.2104 108.046 90.0904C106.245 90.0904 104.323 89.9704 102.402 89.9704C102.402 89.8504 102.281 89.7304 102.281 89.4904C104.203 89.6104 106.005 89.8504 107.926 89.9704C107.326 89.0104 106.725 88.0504 106.125 87.0904C104.563 86.8504 102.882 86.6104 101.321 86.3704C101.201 86.0104 101.081 85.6504 100.96 85.2904C102.882 85.7704 104.563 86.2504 106.125 86.7304ZM60.8477 158.61C61.0879 158.49 61.3281 158.49 61.6884 158.49C61.0879 157.89 60.3673 157.17 59.7668 156.45L56.2839 160.53C58.0854 160.17 59.7668 159.81 61.5683 159.45C61.3281 159.45 61.208 159.45 60.9678 159.45C60.4874 159.45 60.3673 158.73 60.8477 158.61ZM62.529 141.93C63.4898 142.89 64.3305 143.73 65.2913 144.69L65.8918 143.85C66.0119 143.01 66.132 142.05 66.3722 141.21C65.0511 141.57 63.8501 141.81 62.529 141.93ZM66.6124 139.77C66.8526 138.57 67.0928 137.37 67.3329 136.29C66.9727 136.29 66.7325 136.29 66.3722 136.41C65.1712 137.85 63.8501 139.29 62.6491 140.73C63.9702 140.37 65.2913 140.01 66.6124 139.77ZM54.1222 150.57C54.0021 150.69 53.882 150.81 53.7619 151.05C53.4016 152.73 52.9212 154.41 52.5609 156.09C53.882 155.73 55.203 155.49 56.5241 155.13L57.4849 154.05C56.404 152.85 55.203 151.65 54.1222 150.57ZM58.3256 152.97L62.7692 147.69C60.3673 148.41 57.8452 148.89 55.3232 149.49C56.404 150.69 57.3648 151.77 58.3256 152.97ZM54.7227 148.65H54.8428C56.6442 146.61 58.3256 144.57 60.1271 142.41L60.007 142.29C58.5658 142.53 57.1246 142.65 55.6834 142.89C55.3231 144.69 54.8428 146.61 54.3624 148.41C54.4825 148.53 54.6026 148.65 54.7227 148.65ZM56.1638 148.17C58.6859 147.33 61.208 146.49 63.8501 145.89C62.7692 144.93 61.6883 143.97 60.6075 143.01C59.1663 144.69 57.7251 146.49 56.1638 148.17ZM62.4089 153.33C63.1295 153.09 63.9702 152.97 64.6908 152.85C64.8109 152.01 64.931 151.17 64.931 150.21L62.4089 153.33ZM63.0094 154.65C62.2888 154.77 61.6883 154.89 60.9678 155.01L60.4874 155.49C61.208 156.33 61.9286 157.29 62.6491 158.13C63.2496 157.41 63.8501 156.81 64.4506 156.09C64.4506 155.61 64.5707 155.13 64.5707 154.65C64.0903 154.65 63.4898 154.65 63.0094 154.65ZM55.4433 161.49C54.9629 162.09 54.4825 162.57 54.1222 163.17C54.8428 163.89 55.4433 164.61 56.1638 165.45C56.404 165.45 56.5241 165.33 56.7643 165.33C57.3648 164.61 57.8452 164.01 58.4457 163.29C59.1663 162.45 60.007 161.49 60.7276 160.65C58.9261 160.89 57.2447 161.25 55.4433 161.49ZM57.0045 166.29C57.9653 167.25 58.806 168.33 59.7668 169.29C60.4874 168.33 61.208 167.49 61.9285 166.53C62.2888 166.05 62.6491 165.69 63.0094 165.21C63.0094 165.09 63.0094 165.09 63.1295 164.97C61.2079 165.33 59.2864 165.69 57.3648 165.93C57.2447 166.05 57.1246 166.17 57.0045 166.29ZM56.404 167.01C54.6026 169.17 52.8011 171.33 51.1197 173.61C53.2815 173.13 55.4432 172.53 57.605 172.05C58.0854 171.45 58.6859 170.73 59.1663 170.13C59.1663 170.01 59.2864 170.01 59.2864 169.89C58.3256 168.93 57.3648 167.97 56.404 167.01ZM50.6393 174.21C50.3991 174.45 50.1589 174.81 50.0388 175.05C50.8795 176.13 51.8403 177.09 52.681 178.17C54.0021 176.61 55.203 175.05 56.5241 173.49C54.4825 173.61 52.5609 173.85 50.6393 174.21ZM49.3183 175.77C48.958 178.29 48.5977 180.81 48.2374 183.33C49.5584 181.77 50.7594 180.21 52.0805 178.65C51.2398 177.69 50.279 176.73 49.3183 175.77ZM48.8379 169.29C48.2374 170.01 47.6369 170.73 47.0364 171.45C47.5168 172.05 47.9972 172.65 48.4776 173.13C48.5977 171.93 48.7178 170.61 48.8379 169.29ZM48.3575 174.69C47.6369 173.97 46.9163 173.13 46.1957 172.41C43.6736 175.29 41.1516 178.29 38.7496 181.17C39.7104 182.25 40.5511 183.33 41.5119 184.41C43.7937 181.41 46.0756 178.41 48.3575 175.53C48.3575 175.29 48.3575 175.05 48.3575 174.69ZM37.9089 182.13C35.6271 184.89 33.2251 187.65 30.9432 190.29C32.1442 191.61 33.2251 192.81 34.4261 194.13C36.5879 191.13 38.7496 188.13 40.9114 185.25C39.9506 184.17 38.9898 183.21 37.9089 182.13ZM43.9138 170.13C42.7129 168.93 41.5119 167.61 40.431 166.41C38.029 169.17 35.507 172.05 33.105 174.81C34.306 176.13 35.3869 177.45 36.5879 178.77C38.9898 175.89 41.3918 173.01 43.9138 170.13ZM44.8746 168.93C46.4359 167.01 47.9972 165.21 49.5585 163.29C49.5585 163.05 49.6785 162.69 49.6785 162.45C49.5584 162.33 49.4383 162.09 49.6785 162.09C49.6785 161.73 49.7986 161.37 49.7986 161.01C48.958 160.17 47.9972 159.33 47.1565 158.49C45.2349 160.65 43.3134 162.81 41.3918 165.09C42.7129 166.29 43.7937 167.61 44.8746 168.93ZM50.279 158.97C50.3991 158.25 50.5192 157.41 50.6393 156.69C50.5192 156.69 50.3991 156.45 50.5192 156.45H50.6393C50.7594 155.61 50.8795 154.89 51.1197 154.05C50.279 155.13 49.3183 156.09 48.3575 157.17C49.0781 157.77 49.6785 158.37 50.279 158.97ZM50.5192 167.37C50.1589 169.53 49.7987 171.81 49.5585 173.97C51.6001 171.45 53.6418 168.93 55.6834 166.41C55.5633 166.29 55.4432 166.17 55.3232 166.17C54.0021 166.29 52.5609 166.53 51.2398 166.77C52.4408 166.53 53.6418 166.17 54.8428 165.81C54.2423 165.33 53.7619 164.73 53.1614 164.25C52.3207 165.21 51.48 166.29 50.5192 167.37ZM51.8403 160.65C52.4408 159.93 53.1614 159.09 53.7619 158.37L55.8035 155.85C54.7227 155.97 53.6418 156.21 52.4408 156.33C52.2006 157.41 51.9604 158.49 51.7202 159.57C51.8403 159.93 51.7202 160.29 51.8403 160.65C51.7202 160.65 51.7202 160.65 51.8403 160.65ZM52.8011 146.61C53.2815 144.93 53.7619 143.25 54.2423 141.57C53.2815 142.65 52.3207 143.73 51.2398 144.81C51.8403 145.41 52.3207 146.01 52.8011 146.61ZM52.5609 139.17C52.4408 139.05 52.4408 139.05 52.3207 138.93C52.2006 139.29 51.9604 139.53 51.8403 139.89C52.0805 139.65 52.3207 139.41 52.5609 139.17ZM52.0805 138.57C51.9604 138.09 52.0805 137.49 52.4408 137.01C52.8011 136.65 53.1614 136.29 53.6418 135.93C53.7619 135.69 53.882 135.45 54.0021 135.21C53.5217 135.45 52.9212 135.57 52.4408 135.69C52.4408 135.81 52.3207 136.05 52.3207 136.17C52.0805 137.37 51.8403 138.57 51.6001 139.77C51.7202 139.41 51.9604 139.05 52.0805 138.57ZM53.882 135.81C54.4825 135.33 55.083 134.97 55.8035 134.61C56.1638 134.37 56.6442 134.73 56.5241 135.09C56.404 135.33 56.404 135.45 56.2839 135.69C56.8844 135.09 57.605 134.49 58.2055 133.89C57.3648 134.01 56.5241 134.25 55.6834 134.49C55.4432 134.73 55.083 134.85 54.6026 135.09C54.4825 135.21 54.3624 135.21 54.2423 135.33C54.1222 135.33 54.0021 135.57 53.882 135.81ZM56.5241 139.17C56.2839 140.37 56.0437 141.45 55.8035 142.53C56.8844 142.29 57.9653 141.93 59.1663 141.57C58.2055 140.73 57.3648 139.89 56.5241 139.17ZM61.4482 140.85C62.6491 139.41 63.9702 137.97 65.1712 136.41C62.8893 136.65 60.7276 137.13 58.4457 137.85C59.4065 138.93 60.4874 139.89 61.4482 140.85ZM67.2129 134.01C66.8526 133.53 66.4923 133.17 66.132 132.81C65.6516 132.81 65.1712 132.81 64.5707 132.93C63.73 132.93 62.7692 133.05 61.9285 133.17C60.9678 134.25 60.007 135.33 59.0462 136.41C61.5683 135.21 64.3305 134.37 67.2129 134.01ZM66.8526 129.93C68.0536 129.93 69.3746 129.93 70.5756 129.93C72.0168 128.25 73.458 126.45 74.779 124.77C73.8183 123.93 72.9776 122.97 72.1369 122.01C69.9751 124.29 67.8134 126.57 65.6516 128.85C66.132 129.33 66.4923 129.57 66.8526 129.93ZM87.5094 133.65C87.1491 133.77 86.7888 133.77 86.5486 133.89C86.7888 134.25 87.029 134.49 87.2692 134.85C87.8697 134.13 88.4702 133.41 88.9506 132.69C88.5903 132.69 88.3501 132.69 87.9898 132.69C87.2692 132.69 86.5486 132.69 85.708 132.69C85.5879 132.81 85.5879 132.81 85.4678 132.93C85.5879 133.05 85.708 133.29 85.9482 133.41C86.4285 133.41 86.9089 133.29 87.2692 133.29C87.7496 133.17 87.7496 133.65 87.5094 133.65ZM84.6271 134.25C84.507 134.25 84.507 134.25 84.3869 134.25C83.306 135.57 82.105 136.89 81.0241 138.21C82.2251 138.21 83.4261 138.21 84.507 138.21C85.1075 137.49 85.708 136.65 86.3084 135.93C85.8281 135.33 85.2276 134.73 84.6271 134.25ZM81.0241 123.93C81.6246 123.93 82.3452 123.93 82.9457 123.93L86.5486 119.73C85.4678 119.01 84.3869 118.29 83.1859 117.57C81.3844 119.61 79.4629 121.53 77.6614 123.57C78.6222 124.65 79.583 125.85 80.4236 126.93L82.8256 124.05C82.2251 123.93 81.6246 123.93 81.0241 123.93ZM86.9089 114.57C86.5486 114.69 86.1884 114.69 85.8281 114.81C86.3084 115.17 86.7888 115.65 87.2692 116.01C87.7496 115.53 88.1099 115.05 88.5903 114.57C88.5903 114.45 88.5903 114.33 88.5903 114.21C87.9898 114.33 87.5094 114.45 86.9089 114.57ZM88.9506 113.49C89.0707 113.37 89.0707 113.37 89.0707 113.25C88.3501 113.37 87.6295 113.37 86.9089 113.49C87.6295 113.61 88.23 113.61 88.9506 113.49ZM69.2545 150.57C69.0143 150.45 68.7741 150.57 68.654 150.57C68.654 150.81 68.654 151.17 68.5339 151.41C68.7741 151.17 69.0143 150.93 69.2545 150.57ZM68.8942 152.37C69.6148 152.37 70.4555 152.25 71.1761 152.25C70.8158 151.89 70.3354 151.53 69.9751 151.17C69.4947 151.53 69.2545 152.01 68.8942 152.37ZM69.9751 149.61C70.8158 148.65 71.6565 147.57 72.4972 146.61C71.2962 146.73 70.0952 146.73 68.8942 146.73C68.8942 147.33 68.7741 147.81 68.7741 148.41C69.2545 148.77 69.6148 149.25 69.9751 149.61ZM73.5781 145.53C74.4187 144.57 75.2594 143.61 76.1001 142.65C76.1001 142.65 76.1001 142.65 75.98 142.53C74.4187 142.77 72.7374 142.89 71.1761 143.01L69.3746 145.05C69.3746 145.17 69.3746 145.29 69.1344 145.41H69.0143C69.0143 145.53 69.0143 145.65 69.0143 145.77C70.5756 145.77 72.0168 145.65 73.5781 145.53ZM73.9383 132.93C72.9776 133.29 71.8967 133.65 70.9359 133.89C72.0168 134.01 72.9776 134.13 74.0584 134.49L75.7398 132.45C75.2594 132.45 74.6589 132.45 74.1786 132.45C74.0585 132.69 74.0584 132.93 73.9383 132.93ZM71.7766 142.41C72.9776 142.29 74.1786 142.17 75.3795 142.05C74.779 141.45 74.1785 140.85 73.6982 140.25C73.6982 140.25 73.6982 140.25 73.5781 140.25L71.7766 142.41ZM72.6173 136.17C72.4972 136.17 72.3771 136.17 72.257 136.17C72.0168 136.17 71.8967 136.05 71.8967 135.93H71.7766C71.8967 136.17 72.1369 136.41 72.257 136.53L72.6173 136.17ZM75.1393 138.45C76.7006 138.33 78.382 138.21 79.9432 138.21C81.0241 137.01 82.105 135.81 83.0658 134.49C81.2643 134.85 79.4629 135.09 77.6614 135.45L75.1393 138.45ZM75.1393 140.13C75.6197 140.73 76.1001 141.33 76.7006 141.93C76.7006 141.93 76.7006 141.93 76.8207 141.93C77.4212 141.21 78.0217 140.49 78.6222 139.77C77.4212 139.89 76.3403 140.01 75.1393 140.13ZM70.0952 139.05L71.1761 137.73C70.6957 137.25 70.2153 136.89 69.7349 136.41C69.6148 137.37 69.6148 138.21 69.4947 139.17C69.7349 139.17 69.9751 139.17 70.0952 139.05ZM73.2178 132.57C72.1369 132.57 71.1761 132.57 70.0952 132.69C70.0952 132.93 70.0952 133.17 69.9751 133.41C71.1761 133.17 72.1369 132.81 73.2178 132.57ZM77.5413 130.29L78.8624 128.61C77.7815 127.65 76.7006 126.69 75.6197 125.61C74.2986 127.05 73.0977 128.49 71.7766 129.93C73.8183 130.05 75.6197 130.17 77.5413 130.29ZM80.0634 132.57L78.5021 134.37C80.3035 134.13 81.9849 133.89 83.7864 133.65L83.9065 133.53C83.5462 133.17 83.306 132.93 82.9457 132.57C81.9849 132.57 81.0241 132.57 80.0634 132.57ZM79.8232 139.53C79.2227 140.25 78.5021 140.97 77.9016 141.81C79.2227 141.69 80.5437 141.69 81.7447 141.57C82.4653 140.73 83.1859 139.89 83.7864 138.93C82.5854 139.17 81.1442 139.41 79.8232 139.53ZM77.4212 142.41L77.3011 142.53C77.9016 143.25 78.6222 144.09 79.2227 144.81C80.0634 143.73 80.904 142.77 81.7447 141.69C80.1834 142.05 78.8624 142.29 77.4212 142.41ZM76.5805 143.37C75.98 144.09 75.2594 144.81 74.6589 145.65C75.98 145.65 77.3011 145.65 78.6222 145.65C78.6222 145.65 78.6222 145.65 78.7423 145.53C78.0217 144.81 77.3011 144.09 76.5805 143.37ZM73.8183 146.61C72.9776 147.57 72.1369 148.53 71.2962 149.49C72.8575 149.25 74.2986 149.13 75.8599 149.01C76.5805 148.05 77.4212 147.09 78.1418 146.13C76.7006 146.37 75.2594 146.49 73.8183 146.61ZM70.6957 150.33C71.2962 150.93 71.8967 151.53 72.4972 152.25C72.8575 152.25 73.0977 152.25 73.458 152.25C74.1786 151.41 74.779 150.57 75.4996 149.73C73.8183 149.97 72.257 150.09 70.6957 150.33ZM68.2937 154.53C68.1736 155.49 68.0535 156.57 67.9334 157.53C68.4138 157.53 68.7741 157.41 69.2545 157.41C70.2153 156.33 71.056 155.13 72.0168 154.05C70.6957 154.17 69.4947 154.29 68.2937 154.53ZM76.8207 122.49C78.5021 120.45 80.0633 118.41 81.7447 116.37C81.0241 115.77 80.3035 115.05 79.7031 114.33C79.583 114.33 79.4629 114.33 79.3428 114.33C77.7815 116.13 76.1001 117.93 74.5388 119.73C75.2594 120.69 75.98 121.53 76.8207 122.49ZM83.7864 113.13C85.708 113.01 87.6295 112.89 89.5511 112.77C90.1516 112.05 90.7521 111.45 91.4727 110.85C88.23 110.97 84.8673 111.09 81.6246 111.21C82.3452 111.81 83.0658 112.41 83.7864 113.13ZM89.3109 121.65L87.3893 123.81C87.5094 123.81 87.5094 123.93 87.3893 123.93H87.2692L82.7055 129.33C83.0658 129.81 83.4261 130.17 83.9065 130.65C84.507 130.65 85.1075 130.77 85.708 130.77C85.8281 130.77 85.9482 130.77 86.1884 130.77L92.3133 123.69C91.2325 123.09 90.2717 122.37 89.3109 121.65ZM87.2692 131.01C88.23 131.01 89.3109 131.13 90.2717 131.13C91.833 129.21 93.3942 127.29 94.9555 125.37C94.2349 125.13 93.6344 124.77 93.0339 124.29C91.1124 126.57 89.1908 128.73 87.2692 131.01ZM119.696 132.09C118.855 131.25 118.134 130.53 117.294 129.69C116.573 130.29 115.732 131.01 115.012 131.61C116.573 131.73 118.134 131.85 119.696 132.09ZM117.654 135.93C117.774 136.05 117.894 136.29 118.134 136.41C118.375 136.29 118.735 136.17 118.975 135.93C118.495 135.93 118.134 135.93 117.654 135.93ZM120.056 138.57C120.056 138.57 119.936 138.57 119.936 138.45C120.176 138.69 120.416 139.05 120.777 139.29C121.857 138.21 122.938 137.25 124.259 136.41C124.139 136.29 124.019 136.17 123.779 135.93C123.539 135.93 123.419 135.93 123.179 135.93C123.058 136.05 123.058 136.05 122.938 136.17C122.818 136.29 122.698 136.29 122.458 136.41C122.458 136.77 122.338 137.01 121.978 137.13C121.377 137.37 120.777 137.49 120.176 137.73C120.296 137.73 120.296 137.85 120.416 137.85C120.897 138.21 120.536 138.81 120.056 138.57ZM121.497 132.33C124.019 132.69 126.421 132.93 128.943 133.29L126.181 130.41C123.899 130.17 121.497 130.05 119.215 129.81C119.936 130.65 120.777 131.49 121.497 132.33ZM175.541 169.53C172.539 166.77 169.536 164.01 166.534 161.25C165.573 162.09 164.612 162.81 163.652 163.65C166.414 166.53 169.296 169.29 172.058 172.17C173.139 171.33 174.34 170.37 175.541 169.53ZM172.779 173.01C175.421 175.65 177.943 178.29 180.585 180.93C182.027 179.85 183.348 178.77 184.789 177.69C181.906 175.17 179.024 172.65 176.262 170.13C175.061 171.09 173.98 172.05 172.779 173.01ZM116.213 113.49C115.853 113.85 115.612 114.21 115.252 114.45L118.855 118.05C121.137 118.65 123.299 119.25 125.46 119.85C125.46 119.85 125.46 119.85 125.581 119.85C125.46 119.73 125.46 119.61 125.34 119.49C123.539 117.57 121.617 115.65 119.816 113.85C118.735 113.73 117.534 113.61 116.213 113.49ZM118.975 112.77C118.615 112.41 118.255 112.05 117.894 111.57C117.654 111.81 117.414 112.17 117.174 112.41C117.774 112.53 118.375 112.65 118.975 112.77ZM121.617 125.85C120.656 126.81 119.576 127.65 118.495 128.61C120.897 128.97 123.179 129.45 125.581 129.81L121.617 125.85ZM122.698 122.01C123.419 121.53 124.139 120.93 124.86 120.45C123.299 120.21 121.737 119.85 120.296 119.61L122.698 122.01ZM112.009 109.41C112.49 110.01 112.61 110.73 112.97 111.33C113.21 111.45 113.331 111.69 113.571 111.81C113.931 111.45 114.291 111.09 114.531 110.73C114.772 110.49 115.132 110.25 115.372 110.01C115.853 109.65 116.333 109.17 116.813 108.81C114.892 108.69 112.97 108.57 111.049 108.33C111.529 108.81 111.769 109.17 112.009 109.41ZM110.448 120.45C111.169 121.17 111.889 122.01 112.49 122.73C114.772 122.97 117.054 123.33 119.335 123.69L113.931 118.05C113.451 117.93 112.97 117.81 112.49 117.69C111.889 118.53 111.169 119.49 110.448 120.45ZM124.259 123.57L125.34 124.65C126.181 124.77 126.902 124.89 127.742 125.01C128.223 125.13 127.982 125.85 127.502 125.73C127.142 125.73 126.661 125.61 126.301 125.61L131.826 131.25C130.144 128.01 128.463 124.89 126.661 121.65C125.821 122.13 124.98 122.85 124.259 123.57ZM133.507 130.41C133.987 130.05 134.588 129.69 135.068 129.33C133.507 127.65 131.826 125.97 130.264 124.29C131.225 126.33 132.426 128.37 133.507 130.41ZM133.987 131.49C134.828 132.93 135.549 134.37 136.389 135.93L139.632 139.17C140.593 138.45 141.433 137.61 142.394 136.89C140.232 134.61 137.951 132.33 135.789 130.05C135.188 130.53 134.588 131.01 133.987 131.49ZM140.713 140.25L147.558 147.21C148.519 146.49 149.48 145.89 150.441 145.17C148.039 142.65 145.637 140.25 143.235 137.73C142.394 138.69 141.554 139.41 140.713 140.25ZM148.399 148.05L152.242 152.01C153.083 152.85 153.924 153.69 154.764 154.53C155.725 153.81 156.566 153.09 157.527 152.37C156.806 151.65 155.965 150.81 155.245 150.09C153.924 148.65 152.482 147.21 151.161 145.89C150.201 146.61 149.36 147.33 148.399 148.05ZM155.725 155.61C158.007 158.01 160.409 160.29 162.691 162.69C163.652 161.97 164.732 161.25 165.693 160.53C163.171 158.13 160.769 155.73 158.247 153.33C157.406 154.05 156.566 154.77 155.725 155.61ZM160.889 165.81C159.568 166.89 158.127 167.97 156.806 169.05C159.448 171.81 162.09 174.57 164.732 177.45C166.174 176.37 167.735 175.29 169.176 174.21C166.414 171.33 163.652 168.57 160.889 165.81ZM159.808 164.61C157.527 162.33 155.365 160.05 153.083 157.89C151.882 158.97 150.561 160.17 149.24 161.25C151.281 163.41 153.323 165.57 155.485 167.73C156.926 166.65 158.367 165.69 159.808 164.61ZM152.002 156.69C151.281 155.97 150.561 155.25 149.84 154.53L145.637 150.33C144.316 151.41 143.115 152.37 141.794 153.45C142.514 154.29 143.355 155.01 144.076 155.85C145.397 157.17 146.718 158.61 148.039 159.93C149.36 158.85 150.681 157.77 152.002 156.69ZM144.676 149.37L138.191 142.77C136.99 143.85 135.789 144.93 134.708 146.13C136.75 148.17 138.671 150.33 140.713 152.37C142.034 151.29 143.355 150.33 144.676 149.37ZM136.87 141.33L132.546 137.01C130.745 137.73 129.063 138.21 127.382 138.45C129.304 140.49 131.225 142.41 133.147 144.45C134.468 143.49 135.669 142.41 136.87 141.33ZM116.093 126.69C117.054 125.97 118.134 125.25 119.095 124.65C117.174 124.41 115.252 124.05 113.331 123.69C114.291 124.65 115.252 125.61 116.093 126.69ZM109.127 121.89C108.406 122.73 107.566 123.45 106.605 124.05C107.806 125.25 109.007 126.45 110.088 127.77C111.409 127.89 112.73 128.01 114.051 128.13C114.291 127.89 114.531 127.77 114.892 127.53C113.09 125.61 111.169 123.69 109.127 121.89ZM110.328 115.17C109.848 114.81 109.367 114.57 108.887 114.21C108.887 114.33 108.767 114.45 108.767 114.57C108.767 114.57 108.647 114.57 108.647 114.69C109.007 115.05 109.487 115.41 109.848 115.77L110.328 115.17ZM111.289 128.85C111.529 129.09 111.769 129.45 112.009 129.69C112.25 129.45 112.49 129.33 112.73 129.09C112.37 128.97 111.769 128.85 111.289 128.85ZM111.889 135.69C109.367 135.57 106.965 135.45 104.443 135.21C105.524 135.45 106.485 135.57 107.566 135.81C109.247 136.05 110.929 136.29 112.61 136.41L111.889 135.69ZM107.686 131.01C107.566 130.77 107.326 130.65 107.206 130.41C105.764 130.29 104.443 130.29 103.002 130.17C100.84 130.05 98.5584 130.41 96.757 129.33C96.5168 129.21 96.5168 128.97 96.3967 128.85C95.9163 129.69 95.4359 130.41 94.9555 131.25C95.7962 131.25 96.757 131.25 97.5977 131.25C100.96 131.01 104.323 130.89 107.686 131.01ZM101.561 123.57C99.3991 123.57 97.2374 123.57 95.1957 123.33C95.4359 123.57 95.556 123.81 95.7962 124.05C97.3575 123.81 98.9187 124.29 100.36 124.77C101.201 125.01 102.161 125.25 103.002 125.61C102.882 125.49 102.762 125.37 102.642 125.25C102.161 125.13 101.801 124.65 101.801 124.17C101.681 123.93 101.561 123.81 101.561 123.57ZM96.0364 127.17C96.3967 126.93 96.6369 126.69 96.9972 126.33C96.8771 126.33 96.8771 126.33 96.757 126.21C96.5168 126.57 96.2766 126.81 96.0364 127.17ZM100.96 126.93C99.8795 126.81 98.7986 126.69 97.5977 126.57C97.3575 127.05 96.9972 127.65 96.757 128.13C98.5584 127.65 100.36 128.13 102.161 128.61C103.482 128.97 104.804 129.21 106.125 129.45C105.524 128.73 104.924 128.13 104.323 127.41C103.242 127.17 102.161 127.05 100.96 126.93ZM93.2741 121.17C94.4751 121.17 95.6761 121.41 96.8771 121.65C98.7987 121.89 100.72 122.25 102.522 122.61C102.642 122.49 102.882 122.25 103.002 122.13C103.723 121.53 104.323 120.81 105.044 120.21C102.882 120.33 100.84 120.45 98.6786 120.45C96.9972 120.45 95.1957 120.57 93.5143 120.57C93.2741 120.69 92.9138 120.69 92.7937 120.57C92.9138 120.93 93.0339 121.05 93.2741 121.17ZM98.6786 119.37C101.081 119.37 103.362 119.49 105.764 119.61C106.485 118.89 107.326 118.17 108.046 117.45C104.443 117.69 100.72 117.93 96.9972 117.93C96.6369 118.41 96.1565 118.89 95.6761 119.25C96.757 119.25 97.7178 119.25 98.6786 119.37ZM106.725 115.89C106.365 115.65 106.125 115.29 105.764 115.05C105.284 114.81 104.804 114.45 104.323 114.21C102.762 114.21 101.321 114.21 99.7594 114.21C99.5192 114.57 99.279 114.93 99.0388 115.17C101.681 115.29 104.323 115.65 106.725 115.89ZM106.485 83.1304C106.605 83.2504 106.725 83.3704 106.725 83.4904C107.206 83.7304 107.806 84.0904 108.286 84.4504C110.808 81.5704 113.21 78.6904 115.732 75.8104C115.252 75.0904 114.652 74.4904 114.171 73.7704C111.649 76.8904 109.127 80.0104 106.485 83.1304ZM115.012 72.6904C115.612 73.2904 116.213 73.8904 116.813 74.4904C119.335 71.6104 121.737 68.7304 124.259 65.8504C123.659 65.0104 123.058 64.2904 122.338 63.4504C119.936 66.5704 117.534 69.5704 115.012 72.6904ZM134.828 60.2104L141.073 52.8904C140.353 51.9304 139.632 51.0904 138.911 50.1304C136.75 52.6504 134.468 55.2904 132.306 57.8104C133.147 58.6504 133.987 59.4904 134.828 60.2104ZM131.585 58.7704C129.544 61.1704 127.502 63.4504 125.46 65.8504C126.301 66.6904 127.022 67.6504 127.862 68.4904L133.867 61.4104C133.147 60.5704 132.306 59.6104 131.585 58.7704ZM141.914 52.0504L145.397 47.9704C146.117 47.1304 146.838 46.1704 147.679 45.3304C146.958 44.4904 146.237 43.6504 145.397 42.8104C144.676 43.6504 144.076 44.3704 143.355 45.2104C142.034 46.6504 140.833 48.0904 139.512 49.5304C140.353 50.3704 141.073 51.2104 141.914 52.0504ZM148.519 44.2504C150.681 41.7304 152.723 39.3304 154.884 36.9304C154.164 35.9704 153.323 35.0104 152.603 34.0504C150.441 36.6904 148.399 39.3304 146.117 41.9704C146.958 42.6904 147.679 43.5304 148.519 44.2504ZM155.725 35.8504C158.247 32.8504 160.769 29.9704 163.291 26.9704C162.331 25.8904 161.49 24.6904 160.529 23.6104C158.127 26.8504 155.725 29.9704 153.203 33.0904C154.044 34.0504 154.884 35.0104 155.725 35.8504ZM164.012 26.1304C166.414 23.3704 168.696 20.6104 171.098 17.8504C170.017 16.5304 168.816 15.2104 167.735 13.8904C165.573 16.8904 163.291 19.8904 161.13 22.8904C162.09 23.9704 163.051 25.0504 164.012 26.1304ZM157.887 38.3704C159.088 39.6904 160.169 40.8904 161.37 42.2104C163.892 39.3304 166.294 36.5704 168.816 33.6904C167.735 32.2504 166.534 30.9304 165.453 29.4904C162.931 32.6104 160.409 35.4904 157.887 38.3704ZM156.926 39.5704C154.884 41.9704 152.963 44.2504 150.921 46.6504C152.122 47.8504 153.203 49.0504 154.404 50.2504C156.326 48.0904 158.247 45.8104 160.169 43.6504C159.088 42.3304 158.007 41.0104 156.926 39.5704ZM149.84 47.8504C149.24 48.5704 148.519 49.4104 147.919 50.1304L144.196 54.5704C145.277 55.7704 146.357 56.9704 147.438 58.1704C148.159 57.3304 148.88 56.4904 149.6 55.6504C150.801 54.2104 152.002 52.8904 153.323 51.4504C152.122 50.3704 150.921 49.1704 149.84 47.8504ZM143.235 55.6504L137.35 62.6104C138.551 63.6904 139.632 64.7704 140.713 65.8504C142.514 63.6904 144.436 61.6504 146.237 59.4904C145.277 58.1704 144.316 56.9704 143.235 55.6504ZM136.149 63.9304L130.144 71.0104C131.225 72.0904 132.306 73.1704 133.387 74.2504C135.429 71.9704 137.35 69.6904 139.392 67.4104C138.311 66.2104 137.23 65.1304 136.149 63.9304ZM129.183 72.2104L122.458 80.1304C123.419 81.2104 124.5 82.1704 125.581 83.2504C127.742 80.8504 129.904 78.4504 131.946 76.0504C130.985 74.8504 130.024 73.5304 129.183 72.2104ZM127.022 69.4504C126.301 68.4904 125.581 67.5304 124.74 66.5704L117.414 75.0904C118.255 75.9304 119.095 76.7704 119.936 77.7304L127.022 69.4504ZM122.818 62.9704C123.539 63.6904 124.139 64.4104 124.86 65.2504C126.902 62.8504 128.943 60.5704 130.985 58.1704C130.264 57.3304 129.424 56.4904 128.703 55.6504C126.781 58.0504 124.86 60.4504 122.818 62.9704ZM129.183 54.9304C130.024 55.6504 130.865 56.4904 131.706 57.2104C133.987 54.5704 136.149 52.0504 138.431 49.4104C137.59 48.3304 136.87 47.3704 136.029 46.2904C133.747 49.2904 131.465 52.0504 129.183 54.9304ZM139.872 41.7304C138.671 43.1704 137.59 44.6104 136.389 46.0504C137.23 47.0104 138.071 47.9704 138.911 48.9304C139.632 48.0904 140.353 47.2504 141.073 46.4104C142.274 44.9704 143.475 43.5304 144.676 42.2104C143.715 41.1304 142.875 40.1704 141.914 39.0904C141.313 39.8104 140.593 40.7704 139.872 41.7304ZM142.514 38.3704C143.475 39.3304 144.436 40.2904 145.397 41.2504C147.558 38.6104 149.72 35.9704 151.882 33.2104C151.041 32.1304 150.081 31.0504 149.24 29.8504C147.078 32.7304 144.796 35.6104 142.514 38.3704ZM149.84 29.3704C150.801 30.4504 151.642 31.4104 152.603 32.4904C155.125 29.3704 157.527 26.1304 159.929 23.0104C159.088 21.9304 158.247 20.9704 157.406 19.8904C154.884 23.0104 152.362 26.2504 149.84 29.3704ZM157.887 19.2904C158.728 20.2504 159.568 21.2104 160.529 22.1704C162.811 19.1704 165.093 16.1704 167.255 13.2904C166.534 12.4504 165.813 11.6104 165.093 10.7704C162.691 13.6504 160.169 16.5304 157.887 19.2904ZM172.058 3.21037C171.698 2.85037 171.458 2.49037 171.098 2.13037C169.536 5.13037 167.495 7.89036 165.213 10.6504C165.933 11.3704 166.774 12.2104 167.495 12.9304C169.416 10.4104 171.338 7.77037 173.259 5.25037C172.779 4.53037 172.419 3.93037 172.058 3.21037ZM176.262 8.13037C175.301 7.29037 174.46 6.45037 173.62 5.61037C171.818 8.25037 169.897 10.8904 167.975 13.5304C169.176 14.7304 170.497 16.0504 171.698 17.2504C171.938 17.0104 172.179 16.7704 172.419 16.5304C174.46 14.2504 175.902 11.9704 178.424 10.6504C177.703 9.69036 176.982 8.85037 176.262 8.13037ZM183.468 28.2904C185.509 26.1304 187.311 23.8504 189.593 22.1704C187.431 20.9704 185.389 18.9304 183.588 16.7704C182.387 18.0904 181.306 19.4104 180.105 20.7304C181.186 19.4104 182.387 18.0904 183.468 16.7704C182.147 15.0904 180.826 13.4104 179.625 11.9704C178.664 14.6104 176.742 16.2904 174.821 18.5704C174.581 18.9304 174.34 19.1704 174.1 19.5304C177.103 22.6504 180.105 25.7704 183.107 28.8904C183.228 28.6504 183.348 28.5304 183.468 28.2904ZM181.786 30.0904C178.904 26.9704 176.022 23.7304 173.259 20.3704C170.978 23.1304 168.576 25.8904 166.294 28.6504C167.495 29.9704 168.696 31.2904 169.897 32.6104C170.377 32.0104 170.857 31.4104 171.458 30.9304C170.978 31.5304 170.497 32.1304 170.017 32.7304C171.578 34.4104 173.139 36.2104 174.701 37.8904C176.982 35.2504 179.384 32.6104 181.786 30.0904ZM173.259 39.2104C171.818 37.4104 170.377 35.6104 168.936 33.8104C166.534 36.6904 164.132 39.5704 161.61 42.4504C163.051 44.0104 164.372 45.5704 165.813 47.2504C168.215 44.6104 170.737 41.8504 173.259 39.2104ZM158.728 54.9304C160.649 52.8904 162.451 50.8504 164.372 48.8104C163.051 47.2504 161.73 45.5704 160.409 43.8904C158.487 46.1704 156.686 48.3304 154.764 50.6104C156.085 52.0504 157.406 53.4904 158.728 54.9304ZM155.365 58.5304C156.085 57.6904 156.806 56.9704 157.527 56.2504C156.206 54.9304 154.884 53.4904 153.683 52.0504C152.963 52.8904 152.362 53.7304 151.642 54.4504C150.441 55.8904 149.24 57.3304 147.919 58.7704C149.12 60.0904 150.201 61.4104 151.402 62.8504C152.723 61.4104 154.044 59.9704 155.365 58.5304ZM150.081 64.1704C149 62.8504 147.799 61.4104 146.718 60.0904C144.916 62.2504 143.115 64.2904 141.313 66.4504C142.514 67.6504 143.715 68.7304 144.796 69.9304C146.598 68.0104 148.399 66.0904 150.081 64.1704ZM143.355 71.4904C142.274 70.2904 141.073 69.2104 139.992 68.0104C138.071 70.2904 136.029 72.5704 134.107 74.9704C135.188 76.0504 136.149 77.2504 136.99 78.5704C139.031 76.1704 141.193 73.8904 143.355 71.4904ZM135.429 80.1304C134.348 79.1704 133.387 78.0904 132.426 76.8904C130.384 79.2904 128.343 81.8104 126.301 84.2104C127.142 85.1704 128.103 86.1304 128.823 87.0904C131.105 84.6904 133.267 82.4104 135.429 80.1304ZM121.617 95.1304C123.299 93.2104 124.98 91.2904 126.781 89.3704C125.941 88.5304 125.22 87.5704 124.5 86.6104C122.818 88.6504 121.137 90.6904 119.456 92.7304C120.176 93.4504 121.017 94.2904 121.617 95.1304ZM117.894 91.6504C119.816 89.6104 121.617 87.5704 123.419 85.5304C122.458 84.3304 121.617 83.1304 120.656 82.0504L114.531 89.2504C115.612 89.9704 116.813 90.8104 117.894 91.6504ZM118.615 79.2904C117.894 78.3304 117.054 77.3704 116.333 76.4104C113.931 79.1704 111.529 82.0504 109.127 84.8104C110.088 85.5304 111.049 86.3704 112.009 87.0904L118.615 79.2904ZM109.367 88.8904C109.607 89.1304 109.728 89.4904 109.968 89.7304C110.088 89.6104 110.088 89.6104 110.208 89.4904C109.968 89.3704 109.728 89.1304 109.367 88.8904ZM111.769 95.8504L111.529 96.0904C111.289 96.4504 111.169 96.9304 110.929 97.2904C110.929 97.4104 110.929 97.4104 110.929 97.5304C110.929 98.6104 110.088 99.2104 109.247 99.4504C110.929 99.5704 112.73 99.9304 114.411 100.29C113.571 98.8504 112.61 97.2904 111.769 95.8504ZM115.012 101.25C113.21 101.13 111.409 101.01 109.607 100.65C109.728 100.77 109.728 101.01 109.848 101.13C109.968 101.49 110.088 101.85 110.088 102.21C112.25 102.57 114.411 103.29 116.573 103.77C115.973 102.93 115.492 102.09 115.012 101.25ZM117.294 105.21C114.892 104.85 112.37 104.61 109.968 104.13C109.728 104.97 109.367 105.69 108.887 106.41C109.127 106.65 109.247 106.77 109.487 107.01C112.25 107.37 115.012 107.97 117.654 108.57C118.014 108.33 118.375 108.09 118.855 107.85C118.375 106.89 117.894 106.05 117.294 105.21ZM119.576 109.17C119.095 109.77 118.735 110.37 118.375 110.97C119.095 111.69 119.816 112.41 120.416 113.13C120.897 113.25 121.497 113.37 121.978 113.37C121.257 111.93 120.416 110.61 119.576 109.17ZM122.338 113.97C121.978 113.97 121.617 113.97 121.257 113.85C122.098 114.69 122.938 115.65 123.779 116.49C123.299 115.65 122.818 114.81 122.338 113.97ZM123.899 113.25C124.019 113.49 124.139 113.61 124.259 113.85C124.38 113.85 124.5 113.85 124.62 113.97C124.38 113.61 124.139 113.37 123.899 113.25ZM124.98 114.21H124.5C125.34 115.77 126.301 117.33 127.142 118.89C127.622 118.53 128.103 118.17 128.703 117.81C127.382 116.61 126.181 115.41 124.98 114.21ZM129.664 118.77C129.063 119.25 128.463 119.73 127.982 120.33C127.982 120.45 128.103 120.57 128.223 120.69H128.463C128.583 120.69 128.583 120.93 128.463 120.93C128.583 121.05 128.583 121.17 128.703 121.41C131.105 123.93 133.507 126.33 135.909 128.85C136.75 128.25 137.59 127.65 138.431 127.05C135.429 124.29 132.546 121.53 129.664 118.77ZM138.791 127.53C137.951 128.13 137.23 128.85 136.389 129.45C138.551 131.73 140.833 134.01 142.995 136.29C143.835 135.57 144.796 134.85 145.637 134.13C143.475 131.97 141.073 129.81 138.791 127.53ZM146.357 134.73C145.517 135.57 144.676 136.29 143.835 137.13C146.237 139.65 148.759 142.17 151.161 144.69C152.242 143.97 153.323 143.13 154.404 142.41C151.762 139.89 149.12 137.37 146.357 134.73ZM158.968 146.73C157.647 145.41 156.206 144.09 154.884 142.89C153.804 143.73 152.843 144.57 151.882 145.41C152.723 146.25 153.443 147.09 154.284 147.93C155.605 149.25 156.926 150.69 158.247 152.01C159.328 151.17 160.529 150.33 161.61 149.37C160.649 148.41 159.808 147.57 158.968 146.73ZM162.09 149.73C161.009 150.69 160.049 151.65 158.968 152.61C161.49 155.13 164.012 157.53 166.534 159.93C167.735 159.09 168.816 158.25 170.017 157.41L162.09 149.73ZM170.617 158.01C169.536 158.85 168.456 159.81 167.375 160.65C170.377 163.41 173.38 166.29 176.382 168.93C177.463 168.09 178.544 167.37 179.625 166.53C176.622 163.77 173.62 160.89 170.617 158.01ZM180.105 167.13C179.024 167.97 178.063 168.81 176.982 169.65C179.745 172.17 182.627 174.81 185.509 177.33C186.35 176.61 187.311 176.01 188.152 175.29C185.389 172.53 182.747 169.65 180.105 167.13ZM196.558 182.49C196.679 182.49 196.799 182.37 196.919 182.37C196.799 182.25 196.679 182.25 196.558 182.13C196.558 182.25 196.558 182.37 196.558 182.49ZM195.237 182.97C195.598 182.73 196.078 182.37 196.438 182.13C193.556 180.21 190.914 177.93 188.392 175.41C187.551 176.13 186.71 176.85 185.87 177.69C188.272 179.85 190.794 182.13 193.196 184.29C193.796 183.69 194.517 183.21 195.237 182.97ZM187.551 189.09C188.392 188.37 189.232 187.77 190.073 187.05C190.914 186.21 191.875 185.25 192.835 184.53C190.313 182.37 187.791 180.33 185.389 178.17C184.068 179.37 182.747 180.57 181.426 181.77C181.666 182.01 181.906 182.25 182.147 182.49C184.188 184.65 186.35 186.33 187.551 189.09ZM169.296 193.05C171.338 195.33 173.5 197.37 175.061 199.89C176.382 197.73 178.544 195.81 180.946 194.01C179.745 192.69 178.544 191.49 177.223 190.17C178.424 191.49 179.745 192.69 180.946 194.01C182.747 192.69 184.549 191.49 185.99 190.29C183.468 189.09 181.786 186.93 179.625 184.77C179.384 184.53 179.024 184.17 178.784 183.93C175.541 186.93 172.179 189.81 168.816 192.57C169.056 192.69 169.176 192.93 169.296 193.05ZM167.615 191.25C170.978 188.49 174.46 185.73 177.943 182.97C175.301 180.33 172.779 177.69 170.137 175.17C168.696 176.37 167.255 177.45 165.933 178.65C164.132 180.09 162.21 181.65 160.409 183.09C162.811 185.73 165.213 188.49 167.615 191.25ZM159.088 181.65C161.009 180.21 162.811 178.89 164.732 177.45C161.97 174.69 159.328 171.93 156.566 169.29C154.884 170.61 153.203 171.93 151.522 173.25C154.044 176.01 156.566 178.89 159.088 181.65ZM150.081 171.69C151.762 170.49 153.443 169.17 155.245 167.97C153.083 165.81 151.041 163.77 148.88 161.61C147.438 162.93 145.877 164.13 144.316 165.45C146.357 167.49 148.159 169.53 150.081 171.69ZM140.953 161.61C141.674 162.45 142.394 163.17 143.115 164.01C144.556 162.69 145.997 161.49 147.558 160.29C146.838 159.57 145.997 158.73 145.277 158.01C143.956 156.69 142.514 155.25 141.193 153.81C139.752 154.89 138.311 156.09 136.87 157.17C138.311 158.61 139.632 160.17 140.953 161.61ZM135.669 155.85C137.11 154.77 138.551 153.69 139.992 152.61C137.951 150.57 136.029 148.53 133.987 146.49C132.786 147.69 131.465 148.77 130.264 149.85C132.066 151.89 133.867 153.81 135.669 155.85ZM128.823 148.29C130.024 147.21 131.345 146.13 132.546 145.05C130.505 142.89 128.343 140.73 126.301 138.69C126.181 138.69 125.941 138.69 125.821 138.69C124.74 139.65 123.539 140.49 122.338 141.09C124.38 143.49 126.661 145.89 128.823 148.29ZM127.622 215.13C126.661 215.01 125.821 214.89 124.86 214.77C125.941 215.97 126.781 216.93 127.622 215.85C127.622 215.49 127.622 215.25 127.622 215.13ZM126.421 218.37C126.421 218.37 126.781 218.49 127.142 218.49C126.541 217.77 124.259 214.41 123.539 215.25C122.338 216.81 122.818 216.45 120.897 217.17H120.777C122.698 217.53 124.62 218.01 126.421 218.37ZM119.816 217.05C118.255 216.09 117.534 212.97 116.453 216.57C117.534 216.69 118.615 216.93 119.816 217.05ZM115.853 214.17C115.853 214.05 116.093 213.93 116.213 213.69C115.372 213.57 114.652 213.57 113.811 213.45C114.531 214.65 115.372 215.73 115.853 214.17ZM114.772 216.33C113.21 214.29 112.73 213.45 111.169 215.97C112.25 216.09 113.451 216.21 114.772 216.33ZM111.049 213.21C109.487 213.09 107.926 212.97 106.365 212.85C107.926 214.17 109.367 214.89 111.049 213.21ZM107.686 215.73C105.884 214.05 104.443 212.73 103.603 215.49C105.044 215.49 106.365 215.61 107.686 215.73ZM104.083 211.05C104.323 211.17 104.563 211.41 104.683 211.53C107.085 211.77 109.487 212.01 111.889 212.25C111.889 212.25 111.889 212.25 112.009 212.13C112.25 211.89 112.61 211.65 112.97 212.01C113.09 212.13 113.09 212.25 113.21 212.37C114.772 212.61 116.333 212.73 117.774 212.97C118.255 212.85 118.615 212.73 118.375 212.85C118.615 212.73 118.975 212.97 119.095 213.21C119.576 213.33 120.056 213.33 120.536 213.45L123.179 213.57C123.179 213.33 123.539 213.21 123.779 213.45C124.019 213.69 124.139 213.93 124.38 214.17C125.46 214.41 126.541 214.53 127.622 214.77C127.622 214.41 127.502 214.05 127.502 213.57C124.5 213.33 121.617 212.97 118.735 212.37C118.375 212.25 118.495 211.77 118.855 211.77C121.737 212.01 124.74 212.37 127.502 212.97C127.382 211.53 127.262 210.09 127.022 208.65C123.899 208.17 120.897 207.57 117.894 206.73C117.654 206.61 117.774 206.25 118.014 206.25C121.017 206.73 124.019 207.45 127.022 208.17C126.902 206.61 126.781 204.93 126.541 203.37C122.578 203.25 118.615 202.77 114.652 201.93C114.291 201.81 114.411 201.33 114.772 201.33C118.735 201.45 122.698 202.05 126.541 202.89C126.421 201.09 126.181 199.17 126.061 197.37C123.058 197.13 120.056 196.77 117.174 196.05C116.933 196.05 116.933 195.57 117.294 195.57C120.296 195.81 123.179 196.29 126.061 197.01C125.941 195.57 125.701 194.01 125.581 192.57C125.581 192.09 125.46 191.61 125.46 191.13C122.698 191.13 119.936 190.77 117.294 190.41C117.054 190.41 117.054 189.93 117.414 189.93C120.176 190.05 122.818 190.29 125.46 190.77C125.1 187.53 124.62 184.29 124.259 181.17C121.377 181.05 118.495 180.93 115.732 180.45C115.372 180.45 115.492 179.85 115.853 179.85C118.615 179.85 121.497 180.09 124.259 180.33C124.019 178.89 123.899 177.45 123.659 175.89C120.536 175.53 117.294 175.17 114.171 174.45C114.051 174.45 114.051 174.09 114.171 174.09C117.294 174.45 120.416 174.93 123.539 175.53C123.299 173.73 123.058 172.05 122.818 170.25C120.176 170.13 117.534 170.01 114.892 169.53C114.531 169.41 114.652 168.93 115.012 168.93C117.654 168.81 120.176 169.17 122.818 169.53C122.578 167.37 122.218 165.21 121.978 163.05C118.855 163.05 115.732 163.29 112.61 163.17C112.37 163.17 112.37 162.81 112.61 162.69C115.732 162.57 118.855 162.81 121.978 162.81C121.857 161.49 121.617 160.05 121.497 158.73C118.495 158.25 115.492 157.89 112.61 157.17C112.49 157.17 112.49 156.81 112.61 156.81C115.612 157.17 118.495 157.77 121.377 158.37C121.137 156.33 120.897 154.29 120.777 152.25C117.774 151.65 114.772 150.93 111.769 149.97C111.529 149.85 111.649 149.49 111.889 149.61C114.892 150.21 117.774 151.05 120.777 151.89C120.656 150.45 120.536 149.01 120.416 147.57C118.375 147.21 116.333 146.73 114.171 146.13C113.931 146.01 114.051 145.77 114.291 145.77C116.333 146.01 118.375 146.49 120.296 146.97C120.176 146.01 120.176 144.93 120.056 143.97C119.816 143.73 119.696 143.49 119.456 143.37C118.855 142.77 118.255 142.05 117.774 141.45C117.654 141.45 117.654 141.45 117.534 141.45C116.693 141.57 115.853 141.45 114.892 141.45C114.652 141.45 114.652 141.09 114.892 141.09C115.612 141.09 116.333 141.09 117.054 141.09C117.174 141.09 117.174 141.09 117.294 141.09C116.573 140.25 115.732 139.41 114.892 138.57C111.289 138.45 107.686 138.09 104.203 137.97C99.9996 137.85 95.0756 138.09 91.2325 136.29C90.3918 137.37 89.431 138.57 88.5903 139.65C90.8722 139.41 93.2741 139.17 95.556 138.93C95.7962 138.93 95.7962 139.29 95.556 139.29C93.0339 139.65 90.3918 140.13 87.8697 140.49C87.1491 141.45 86.3084 142.41 85.5879 143.37C88.1099 143.01 90.632 142.89 93.154 142.89C93.5143 142.89 93.6344 143.49 93.2741 143.49C90.5119 143.97 87.7496 144.21 84.9874 144.21C84.6271 144.69 84.2668 145.17 83.7864 145.65C83.6663 145.77 83.5462 145.89 83.4261 146.01C86.3084 146.73 89.5511 146.49 92.1933 145.17C92.3134 145.17 92.3133 145.17 92.3133 145.29C89.3109 147.45 86.0682 148.05 82.8256 146.85C82.4653 147.33 82.105 147.81 81.7447 148.29C85.5879 148.17 89.6712 148.65 93.2741 149.01C89.1908 149.49 84.7472 150.09 80.5437 149.85C79.9432 150.57 79.3428 151.29 78.7423 152.01H78.8624C78.9825 152.01 79.1026 152.13 79.2227 152.25C83.306 151.41 87.6295 151.77 91.7129 151.77C91.833 151.77 91.833 151.89 91.7129 151.89C87.5094 152.37 83.1859 153.33 78.8624 152.97C78.7423 152.97 78.6222 152.85 78.6222 152.85C78.382 152.85 78.1418 152.97 78.0217 152.97C77.5413 153.57 77.0609 154.17 76.5805 154.77C81.7447 153.93 87.3893 154.77 92.5535 155.13C92.6736 155.13 92.6736 155.25 92.5535 155.25C87.3893 155.49 81.6246 156.45 76.4604 155.49C76.3403 155.49 76.2202 155.37 76.2202 155.25C75.6197 155.97 75.1393 156.57 74.5388 157.29C75.7398 157.29 76.9408 157.29 78.1418 157.41C78.2619 157.41 78.2619 157.53 78.1418 157.53C78.0217 157.53 77.7815 157.65 77.6614 157.65C83.1859 157.41 88.8305 157.77 94.1148 157.89C94.2349 157.89 94.1148 158.01 94.1148 158.01C87.2692 158.61 79.9433 159.45 72.9776 159.09C72.4972 159.69 71.8967 160.41 71.4163 161.01C78.9825 160.17 87.3893 161.49 94.9555 161.37C95.0756 161.37 95.0756 161.61 94.9555 161.61C87.8697 161.85 80.1834 163.29 72.8575 163.17C71.5364 163.53 70.2153 163.89 68.8942 164.13C68.8942 164.13 68.8942 164.13 68.7741 164.25C76.8207 163.65 85.4678 164.85 93.2741 164.73C93.3942 164.73 93.3942 164.97 93.2741 164.97C84.9874 165.21 75.6197 166.89 67.2129 166.17C67.0928 166.29 67.0928 166.29 66.9727 166.41C66.9727 166.53 66.9727 166.65 66.8526 166.77C67.4531 166.89 68.0535 167.37 68.1736 167.97C68.1736 168.09 68.1736 168.33 68.1736 168.45C70.3354 168.33 72.4972 168.33 74.5388 168.21C78.8624 168.09 83.1859 167.73 87.5094 167.25C83.1859 167.85 78.9825 168.81 74.779 169.53C72.6173 169.89 70.4555 170.49 68.2937 170.85C68.2937 171.33 68.2937 171.81 68.2937 172.29C77.0609 171.57 86.1884 172.77 94.8354 172.65C94.9555 172.65 94.9555 172.77 94.8354 172.77C86.1884 172.89 76.9408 174.33 68.1736 173.85C68.1736 174.09 68.1736 174.33 68.1736 174.45C68.5339 174.69 68.5339 175.29 68.1736 175.53C75.8599 175.05 84.1467 175.77 91.7129 175.65C84.0266 176.13 75.8599 177.57 67.9334 177.57C67.9334 177.69 67.9334 177.93 67.9334 178.05C67.9334 178.65 67.5732 179.01 67.2129 179.25C76.1001 178.65 85.3477 179.61 94.2349 179.61C94.4751 179.61 94.4751 179.85 94.2349 179.85C85.2276 180.09 75.8599 181.17 66.8526 180.69C66.8526 180.93 66.8526 181.05 66.8526 181.29C66.9727 181.29 67.0928 181.29 67.2129 181.41C67.6933 181.53 67.9334 182.13 67.9334 182.49C70.8158 182.37 73.8183 182.61 76.8207 182.61C82.9457 182.61 89.0707 182.49 95.0756 182.25C95.1957 182.25 95.1957 182.37 95.0756 182.37C89.7913 182.49 84.3869 182.97 79.1026 183.33C75.0192 183.57 70.9359 184.29 66.8526 184.29C66.8526 185.01 66.8526 185.61 66.7325 186.33C76.3403 185.73 86.5486 187.05 95.9163 187.17V187.29C86.4285 187.53 76.2202 188.85 66.6124 188.13C66.6124 188.85 66.4923 189.57 66.4923 190.41C75.8599 189.69 85.8281 191.25 95.1957 191.13C95.3158 191.13 95.3158 191.25 95.1957 191.25C85.8281 191.37 75.7398 193.05 66.3722 192.45C66.3722 192.81 66.3722 193.05 66.2521 193.41C66.4923 193.65 66.4923 193.89 66.4923 194.13C69.855 194.01 73.458 194.49 76.8207 194.61C83.1859 194.97 89.6712 194.97 96.0364 195.09C96.1565 195.09 96.1565 195.33 96.0364 195.33C90.3918 195.45 84.8673 195.33 79.2227 195.57C74.8991 195.69 70.3354 196.41 66.0119 196.05C65.8918 196.65 65.8918 197.25 65.7717 197.97C66.2521 198.09 66.4923 198.69 66.3722 199.05C75.6197 198.45 85.2276 199.29 94.355 199.29C94.4751 199.29 94.4751 199.41 94.355 199.41C84.8673 199.77 75.0192 201.09 65.5315 200.73C65.5315 200.97 65.5315 201.09 65.5315 201.33C65.6516 201.57 65.6516 201.81 65.4114 202.05C65.4114 202.29 65.4114 202.53 65.2913 202.77C74.2986 201.33 84.3869 202.65 93.5143 202.77C93.6344 202.77 93.6344 202.89 93.5143 202.89C84.3869 203.37 74.5388 205.29 65.5315 204.21C65.4114 204.21 65.2913 204.09 65.1712 204.09C65.1712 204.69 65.0511 205.17 65.0511 205.77C65.0511 206.25 64.931 206.73 64.931 207.21C68.7741 206.97 72.6173 207.33 76.3403 207.33C82.3452 207.21 88.3501 207.09 94.2349 206.97C94.355 206.97 94.355 207.09 94.2349 207.09C88.9506 207.45 83.7864 207.81 78.5021 208.17C74.0584 208.53 69.2545 209.37 64.6908 209.49C64.6908 209.97 64.5707 210.57 64.5707 211.05C69.7349 210.81 74.8991 210.81 79.4629 210.69C87.5094 210.45 95.556 210.69 103.482 211.29C103.242 211.05 103.723 210.81 104.083 211.05ZM102.642 212.61C101.561 212.49 100.48 212.49 99.3991 212.49C100.84 213.69 101.921 214.53 102.642 212.61ZM100.84 215.25C99.5192 213.93 98.5584 212.97 97.1173 215.01C97.1173 215.01 97.1173 215.01 96.9972 215.13C98.3183 215.13 99.5192 215.13 100.84 215.25ZM90.632 215.01C89.3109 213.57 88.5903 212.01 86.7888 215.01C88.1099 215.01 89.431 215.01 90.632 215.01ZM76.1001 214.29C77.181 213.09 78.8624 212.49 80.3035 212.25C81.3844 212.13 83.0658 212.73 84.0266 213.57H84.1467C84.2668 213.57 84.2668 213.69 84.1467 213.69C84.2668 213.81 84.507 214.05 84.6271 214.17C84.8673 214.53 85.1075 214.77 85.2276 215.01C85.4678 215.01 85.5879 215.01 85.8281 215.01C85.9482 214.77 86.3084 214.17 86.7888 213.57C87.1491 213.09 87.7496 212.61 88.3501 212.13C86.7888 212.13 85.3477 212.13 83.7864 212.13C80.4236 212.13 77.0609 212.25 73.6982 212.37C74.0584 212.73 74.6589 213.57 75.1393 214.29C75.3795 214.29 75.7398 214.29 76.1001 214.29ZM73.9383 215.49C73.8182 215.37 73.8182 215.37 73.6982 215.25C72.9776 215.37 72.257 215.49 71.5364 215.61C72.257 215.61 73.0977 215.61 73.9383 215.49ZM72.8575 214.41C71.8967 213.69 71.1761 213.81 70.4555 214.53C71.1761 214.53 72.0168 214.53 72.8575 214.41ZM64.3305 213.09C65.4114 213.69 66.132 214.41 66.6124 214.89C67.2129 214.89 67.8134 214.77 68.2937 214.77C68.5339 214.29 68.7741 213.69 69.1344 212.73C67.4531 212.85 65.7717 212.97 64.0903 213.09C64.2104 212.97 64.3305 213.09 64.3305 213.09ZM63.9702 163.17C63.9702 162.45 64.0903 161.73 64.0903 161.01C63.73 160.65 63.4898 160.29 63.1295 160.05C62.7692 160.17 62.4089 160.17 62.0486 160.29C61.5683 160.89 60.9678 161.49 60.4874 162.09C59.7668 163.05 58.9261 163.89 58.2055 164.85C59.2864 164.49 60.3673 164.25 61.5683 164.01C61.5683 163.89 61.6883 163.89 61.8084 163.89C62.529 163.53 63.2496 163.29 63.9702 163.17ZM62.2888 175.29C62.529 174.21 62.8893 173.13 63.2496 172.17C62.6491 172.29 62.0486 172.41 61.4482 172.53C60.007 174.21 58.5658 175.89 57.2447 177.69C57.8452 177.45 58.4457 177.21 59.0462 177.09C58.9261 176.85 58.9261 176.37 59.4065 176.25C60.2472 175.89 61.328 175.65 62.2888 175.29ZM65.1712 242.25C64.0903 242.37 63.0094 242.37 61.9285 242.49C61.9285 242.61 61.9285 242.85 61.9285 242.97C63.0094 242.61 64.0903 242.37 65.1712 242.25ZM61.8084 177.57C61.6883 177.57 61.5682 177.45 61.4482 177.33C59.7668 177.57 58.0854 177.93 56.5241 178.65C55.9236 179.37 55.2031 180.21 54.6026 180.93C56.6442 180.33 58.6859 179.61 60.8477 179.01C61.0879 179.01 61.3281 178.89 61.5683 178.77C61.5683 178.41 61.6883 177.93 61.8084 177.57ZM60.8477 182.25C60.8477 182.13 60.8477 182.01 60.8477 181.89C58.4457 181.89 56.1638 181.77 53.7619 181.77C52.8011 182.85 51.9604 183.93 50.9996 185.13C53.4016 184.29 55.9237 183.57 58.4457 182.97C59.1663 182.73 60.007 182.49 60.8477 182.25ZM60.3673 185.73C60.3673 185.61 60.3673 185.49 60.3673 185.37C60.007 185.37 59.5266 185.49 59.1663 185.49C56.1638 185.97 53.1614 186.33 50.0388 186.33C49.9188 186.45 49.9187 186.45 49.7986 186.57C49.7986 187.29 49.6785 188.01 49.6785 188.73C52.2006 188.13 54.7227 187.29 57.2447 186.57C58.2055 186.21 59.2864 185.97 60.3673 185.73ZM59.8869 189.09C59.5266 189.09 59.1663 189.09 58.806 189.21C55.6835 189.45 52.681 189.33 49.5585 189.57C49.4384 190.89 49.3182 192.33 49.1982 193.65C51.7202 192.33 54.4825 191.73 57.1246 191.01C57.9653 190.77 58.806 190.53 59.6467 190.29C59.8869 189.81 59.8869 189.45 59.8869 189.09ZM59.5266 193.17C59.2864 193.17 59.0462 193.17 58.806 193.29C55.6835 193.65 52.4408 194.13 49.1982 193.77C49.0781 194.85 48.958 195.81 48.8379 196.89C51.48 196.05 54.1222 195.09 56.8844 194.49C57.7251 194.25 58.5658 194.13 59.4065 193.89C59.5266 193.65 59.5266 193.41 59.5266 193.17ZM59.1663 196.89C58.6859 197.01 58.0854 197.01 57.605 197.13C54.6026 197.61 51.6001 197.73 48.7178 197.97C48.5977 198.81 48.4776 199.65 48.3575 200.49C51.1197 199.65 54.0021 199.17 56.8844 198.81C57.605 198.69 58.3256 198.57 59.0462 198.45C59.1663 197.85 59.1663 197.37 59.1663 196.89ZM58.806 200.97C58.6859 200.97 58.5658 200.97 58.4457 200.97C54.9629 201.21 51.6001 201.45 48.1173 201.21C47.9972 201.81 47.9972 202.41 47.8771 203.13L47.9972 203.01C50.8795 202.53 53.6418 202.17 56.404 201.57C57.3648 201.33 58.0854 201.21 58.806 200.97ZM58.5658 204.33C58.5658 204.09 58.6859 203.73 58.6859 203.49C58.5658 203.49 58.3256 203.49 58.2055 203.49C54.9629 203.49 51.6001 203.49 48.3575 203.61C48.2374 203.61 48.1173 203.49 47.9972 203.37C47.8771 204.21 47.757 205.17 47.6369 206.01C50.279 205.29 53.0413 205.05 55.8035 204.81C56.6442 204.69 57.605 204.45 58.5658 204.33ZM57.605 206.97C57.0045 206.97 56.2839 206.85 55.6834 206.85C52.9212 206.85 50.1589 206.85 47.5168 206.37C47.3967 207.45 47.1565 208.65 47.0364 209.73C49.7986 209.01 52.4408 208.29 55.203 207.57C56.0437 207.45 56.7643 207.21 57.605 206.97ZM46.9163 210.45C46.9163 210.81 46.7962 211.05 46.7962 211.41C49.4383 210.81 52.0805 210.45 54.7227 209.85C52.0805 210.09 49.5584 210.33 46.9163 210.45ZM57.2447 215.25C56.1638 215.49 55.203 215.61 54.1222 215.85C54.2423 216.21 54.3624 216.69 54.3624 217.05C54.6026 216.93 54.7227 216.93 54.9629 216.81C55.6834 216.57 56.404 216.21 57.1246 215.97C57.1246 215.73 57.1246 215.49 57.2447 215.25ZM51.3599 214.77C53.0413 214.29 54.6026 213.93 56.2839 213.69C54.6026 213.93 52.8011 214.17 51.1197 214.41C51.1197 214.53 51.2398 214.65 51.3599 214.77ZM50.9996 216.21C50.8795 216.21 50.7594 216.21 50.6393 216.21C50.5192 216.93 50.3991 217.77 50.1589 218.49C50.7594 218.25 51.3599 218.01 51.9604 217.77C51.6001 217.41 51.2398 216.81 50.9996 216.21ZM52.3207 216.09C52.5609 216.45 52.9212 216.81 53.1614 217.17C53.2815 216.69 53.2815 216.33 53.4016 215.85C53.1614 215.97 52.8011 215.97 52.3207 216.09ZM43.6736 246.57C44.9947 246.69 45.8354 247.41 46.0756 248.49C47.5168 248.01 48.958 247.65 50.3991 247.05C51.48 246.69 52.5609 246.09 53.7619 245.73C53.4016 245.73 53.0413 245.73 52.5609 245.73C49.5584 245.73 46.6761 245.85 43.6736 245.61C43.6736 245.97 43.6736 246.33 43.6736 246.57ZM43.9138 244.41C45.9555 244.05 47.8771 243.93 49.9187 243.69C51.2398 243.57 52.681 243.33 54.1222 243.09C54.1222 242.73 54.2423 242.37 54.2423 242.01C53.6418 242.01 52.9212 242.01 52.3207 242.01C49.5584 242.13 46.7962 242.61 44.154 242.97C44.0339 243.45 43.9138 243.93 43.9138 244.41ZM51.48 240.69C50.1589 240.69 48.8378 240.57 47.5168 240.57C46.7962 241.05 45.9555 241.53 45.2349 242.13C47.1565 241.77 49.0781 241.29 50.8795 240.93C51.1197 240.81 51.2398 240.69 51.48 240.69ZM44.154 242.25C44.2741 242.25 44.5143 242.13 44.6344 242.13C44.5143 242.01 44.5143 241.89 44.6344 241.77C45.1148 241.29 45.5952 240.81 46.0756 240.45C45.4751 240.45 44.8746 240.33 44.2741 240.33C44.2741 240.93 44.154 241.65 44.154 242.25ZM44.2741 239.85C46.6761 239.25 48.958 238.53 51.3599 238.05C52.4408 237.81 53.5217 237.45 54.6026 237.33C54.6026 237.21 54.6026 237.21 54.6026 237.09C54.0021 237.09 53.5217 237.09 52.9212 237.09C50.0388 237.33 47.2766 237.81 44.3942 237.57C44.3942 238.29 44.3942 239.01 44.2741 239.85ZM44.6344 236.61C46.4359 235.89 48.2374 235.41 50.1589 234.93C48.4776 234.81 46.6761 234.57 44.9947 234.21C44.8746 234.21 44.8746 234.09 44.8746 234.09C44.7545 234.93 44.6344 235.77 44.6344 236.61ZM44.7545 233.85L44.8746 233.73C47.5168 233.01 50.0388 232.41 52.681 232.29C53.5217 232.17 54.2423 232.17 55.083 232.05C55.083 231.57 55.203 231.09 55.203 230.61C54.7227 230.61 54.1222 230.61 53.6418 230.61C50.7594 230.73 47.757 230.85 44.8746 230.85C44.9947 231.81 44.8746 232.89 44.7545 233.85ZM44.9947 230.37C47.3967 229.77 49.9188 229.29 52.4408 228.69C53.4016 228.45 54.4825 228.21 55.5634 227.97C54.9629 227.85 54.4825 227.85 53.882 227.85C50.9996 227.61 48.1173 227.61 45.2349 227.25C45.2349 228.21 45.1148 229.29 44.9947 230.37ZM45.355 226.41C47.8771 225.93 50.5192 225.57 53.0413 225.21C50.6393 225.09 48.2374 224.85 45.8354 224.85C45.5952 224.85 45.4751 224.37 45.7153 224.37C48.9579 223.77 52.0805 223.05 55.3232 222.33C55.6834 222.21 56.0437 222.21 56.404 222.09C56.404 221.97 56.404 221.73 56.5241 221.61C52.9212 222.21 49.3182 222.81 45.7153 223.53C45.4751 224.49 45.355 225.45 45.355 226.41ZM45.8354 219.69C46.556 219.57 47.2766 219.33 47.8771 219.21C47.6369 218.61 47.5168 218.01 47.3967 217.41C47.3967 217.17 47.6369 216.93 47.8771 217.17C48.2374 217.53 48.4776 217.77 48.7178 218.13C48.8379 217.53 49.0781 217.05 49.1982 216.45C48.1173 216.57 47.0364 216.69 45.9555 216.81C46.0756 217.65 45.9555 218.61 45.8354 219.69ZM46.1957 216.21C47.3967 215.85 48.5977 215.61 49.6785 215.25C49.6785 215.01 49.7986 214.89 49.7986 214.65C48.5977 214.89 47.3967 215.25 46.1957 215.49C46.3158 215.73 46.1957 215.97 46.1957 216.21ZM46.556 213.81C49.7986 212.85 53.2815 212.13 56.8844 211.77C56.2839 211.77 55.8035 211.65 55.203 211.65C52.4408 211.65 49.5584 211.77 46.7962 211.77C46.6761 212.49 46.556 213.09 46.556 213.81ZM47.757 183.93C47.8771 181.77 47.9972 179.49 48.1173 177.21C46.0756 179.85 44.0339 182.49 41.9923 185.13C42.833 186.09 43.5535 186.93 44.3942 187.89C45.5952 186.57 46.6761 185.25 47.757 183.93ZM44.0339 188.49C43.1932 187.65 42.3526 186.81 41.5119 185.85C39.3501 188.73 37.0682 191.73 34.9065 194.73C35.6271 195.57 36.3477 196.29 37.0683 197.01C39.3501 194.25 41.7521 191.37 44.0339 188.49ZM30.3428 204.69C30.4629 204.81 30.583 204.93 30.703 204.93C32.7447 202.41 34.9065 199.77 36.9482 197.25C36.2276 196.53 35.3869 195.81 34.6663 195.09C32.7447 197.61 30.8231 200.13 28.9016 202.77C29.5021 203.37 29.9825 203.97 30.3428 204.69ZM25.8991 200.01C26.8599 200.73 27.7006 201.57 28.5413 202.41C30.3427 199.77 32.1442 197.25 34.0658 194.61C32.8648 193.41 31.5437 192.21 30.3428 191.13C30.1026 191.37 29.8624 191.61 29.7423 191.85C27.8207 194.13 26.3795 196.29 23.8575 197.73C24.458 198.45 25.1785 199.17 25.8991 200.01ZM18.3329 180.45C16.2913 182.61 14.4898 184.89 12.328 186.57C14.4898 187.65 16.5315 189.69 18.453 191.73C19.5339 190.41 20.7349 189.09 21.8158 187.89C20.7349 189.21 19.654 190.53 18.453 191.85C19.8942 193.41 21.2153 195.09 22.4163 196.41C23.3771 193.89 25.2986 192.09 27.1001 189.81C27.3403 189.57 27.5805 189.21 27.8207 188.97C24.6982 186.09 21.6957 183.09 18.6933 179.97C18.6933 180.09 18.5731 180.33 18.3329 180.45ZM20.0143 178.65C23.0168 181.65 25.8991 184.77 28.7815 187.89C31.0634 185.13 33.3452 182.37 35.6271 179.73C34.4261 178.41 33.2251 177.21 31.904 175.89C31.4236 176.49 30.9433 177.09 30.4629 177.57C30.9433 176.97 31.4236 176.37 31.904 175.77C30.3428 174.09 28.7815 172.53 27.1001 170.85C24.8183 173.61 22.4163 176.13 20.0143 178.65ZM28.5413 169.65C29.9825 171.33 31.5437 173.13 32.9849 174.81C35.3869 171.93 37.7889 169.05 40.1908 166.17C38.7496 164.61 37.3085 163.17 35.9874 161.61C33.4653 164.25 30.9432 166.89 28.5413 169.65ZM37.3084 160.05C38.6295 161.61 39.9506 163.17 41.3918 164.73C43.1933 162.57 45.1148 160.29 46.9163 158.13C45.5952 156.81 44.2741 155.49 42.953 154.05C41.0315 156.09 39.1099 158.01 37.3084 160.05ZM46.1957 150.45C45.4751 151.17 44.7545 152.01 44.0339 152.73C45.355 154.05 46.6761 155.37 47.9972 156.69C48.7178 155.85 49.3183 155.13 50.0388 154.29C50.5192 153.69 50.9996 153.21 51.3599 152.61C51.48 151.77 51.7202 150.93 51.9604 150.09C51.8403 150.09 51.6001 150.21 51.48 150.21C51.2398 150.33 51.1197 149.85 51.3599 149.73C51.6001 149.61 51.8403 149.49 52.2006 149.49C52.3207 149.13 52.3207 148.77 52.4408 148.41C51.7202 147.57 50.9996 146.85 50.1589 146.01C48.8379 147.57 47.5168 149.01 46.1957 150.45ZM49.5585 137.85C49.7987 137.97 50.0388 138.21 50.1589 138.45C50.1589 137.97 50.279 137.49 50.279 137.01C49.9187 137.13 49.5584 137.25 49.3183 137.25C49.4384 137.61 49.4384 137.73 49.5585 137.85ZM44.5143 130.53C43.7937 131.85 43.0731 133.29 42.3526 134.61C47.1565 131.97 53.2815 131.01 58.4457 130.41C59.6467 130.29 60.8477 130.17 62.0486 130.05C63.3697 128.73 64.6908 127.53 66.0119 126.21C62.529 127.05 58.9261 127.89 55.4433 128.61C52.0805 129.45 48.3575 130.77 44.8746 130.53C44.7545 130.65 44.6344 130.65 44.5143 130.53ZM49.9187 120.45C48.3575 123.21 46.9163 125.97 45.4751 128.73C47.9972 127.77 50.7594 127.77 53.5217 127.41L66.7325 125.61C67.6933 124.65 68.654 123.69 69.6148 122.85C63.2496 124.41 56.6442 125.49 50.1589 126.33C48.8379 126.57 48.2374 124.53 49.5585 124.29C56.404 123.33 63.3697 122.37 70.3354 122.13C71.1761 121.29 71.8967 120.57 72.7374 119.73C73.0977 119.25 73.5781 118.89 73.9383 118.41C66.3722 119.49 58.3256 120.45 50.6393 120.69C50.279 120.69 50.1589 120.57 49.9187 120.45ZM51.8403 116.97C51.6001 117.45 51.2398 117.93 50.9996 118.53C58.5658 117.93 66.4923 117.93 74.1786 118.05C75.2594 116.97 76.2202 115.77 77.3011 114.57C68.8942 115.53 60.6075 116.37 52.2006 116.97C52.0805 116.97 51.9604 116.97 51.8403 116.97ZM54.4825 112.41C53.882 113.37 53.4016 114.33 52.8011 115.41C61.2079 114.57 69.7349 114.09 78.1418 113.61C78.382 113.37 78.5021 113.13 78.7423 112.89C79.2227 112.41 79.583 111.81 80.0634 111.33C71.5364 111.57 63.0094 111.93 54.4825 112.41ZM55.083 111.33C63.6099 111.21 72.0168 110.97 80.5437 110.61C80.6638 110.49 80.6638 110.37 80.7839 110.25C80.904 110.37 81.0241 110.49 81.1442 110.49C84.8673 110.37 88.4702 110.25 92.1933 110.13C92.6736 109.65 93.2741 109.17 93.7545 108.69C93.0339 108.57 92.1933 108.45 91.4727 108.33C91.2325 108.33 91.1124 107.97 91.1124 107.85C80.1835 107.97 68.8942 109.17 57.9653 108.21C57.2447 108.21 57.2447 107.25 57.9653 107.13C68.8942 106.29 80.1834 107.37 91.2325 107.61C91.3526 107.49 91.4727 107.37 91.5928 107.37C92.7937 107.37 93.9947 107.37 95.1957 107.37C96.0364 106.65 96.9972 105.93 97.8379 105.21C94.8354 105.21 91.7129 105.09 88.8305 104.37C87.3893 104.37 86.0683 104.37 84.6271 104.37L84.507 104.49C83.6663 105.33 82.9457 106.17 82.2251 107.01C82.105 106.89 81.9849 106.77 81.7447 106.65C81.2643 106.65 80.904 106.29 80.6638 105.81C80.0634 105.33 79.4629 104.85 78.8624 104.37C77.7815 104.37 76.7006 104.37 75.6197 104.37C70.2153 104.49 64.5707 105.09 59.1663 104.49C57.605 106.89 56.404 109.05 55.083 111.33ZM63.0094 97.7704C62.0486 99.4504 60.9678 101.13 60.007 102.81C65.1712 102.57 70.4555 103.29 75.4996 103.53C76.3403 103.53 77.181 103.65 78.0217 103.65C77.0609 102.81 76.1001 101.97 75.0192 101.13C72.9776 101.37 70.9359 101.61 68.8942 101.85C66.4923 102.09 63.9702 102.69 61.6884 101.97C61.208 101.85 60.8477 100.89 61.5683 100.65C63.6099 99.8104 65.6516 99.9304 67.8134 99.9304C69.855 99.9304 71.8967 99.9304 73.8183 99.9304C73.0977 99.2104 72.257 98.4904 71.5364 97.8904C70.4555 98.0104 69.3746 98.0104 68.4138 98.1304C66.7325 98.2504 65.0511 98.4904 63.4898 98.0104C63.1295 98.0104 63.0094 97.8904 63.0094 97.7704ZM63.4898 96.9304C65.0511 96.4504 66.6124 96.6904 68.1736 96.8104C68.8942 96.8104 69.4947 96.9304 70.2153 96.9304C69.6148 96.4504 69.1344 95.9704 68.5339 95.3704C67.8133 95.3704 67.0928 95.2504 66.6124 95.2504C65.4114 95.2504 65.2913 93.5704 66.3722 93.3304L65.8918 92.9704C65.1712 94.2904 64.3305 95.6104 63.4898 96.9304ZM64.5707 86.3704C65.2913 85.0504 66.2521 83.7304 67.2129 82.5304C65.0511 80.3704 62.7692 78.2104 60.6075 76.0504C59.5266 77.2504 58.4457 78.5704 57.3648 79.7704C59.7668 82.0504 62.1687 84.2104 64.5707 86.3704ZM55.6834 78.3304C56.7643 77.1304 57.9653 75.8104 59.0462 74.6104C57.0045 72.5704 54.9629 70.6504 52.9212 68.6104C51.8403 70.0504 50.7594 71.4904 49.6785 72.9304C51.8403 74.7304 53.7619 76.5304 55.6834 78.3304ZM44.0339 67.6504C45.4751 68.9704 47.0364 70.2904 48.4776 71.7304C49.5585 70.2904 50.6393 68.8504 51.8403 67.4104C50.3991 66.0904 49.0781 64.6504 47.6369 63.3304C46.9163 62.6104 46.0756 61.7704 45.355 61.0504C44.154 62.4904 42.833 64.0504 41.632 65.4904C42.3526 66.2104 43.1932 66.9304 44.0339 67.6504ZM40.1908 64.1704C41.3918 62.6104 42.7129 61.1704 44.0339 59.6104C41.8722 57.4504 39.8305 55.4104 37.6687 53.2504C36.4678 54.9304 35.1467 56.7304 33.9457 58.4104C36.1075 60.4504 38.1491 62.3704 40.1908 64.1704ZM32.3844 57.0904C33.7055 55.4104 35.0266 53.7304 36.3477 52.0504C33.5854 49.2904 30.9433 46.6504 28.181 43.8904C26.7398 45.8104 25.4187 47.6104 23.9776 49.5304C26.7398 52.0504 29.6222 54.5704 32.3844 57.0904ZM22.5364 48.2104C23.9776 46.4104 25.5388 44.4904 26.98 42.6904C28.181 41.2504 29.2619 39.8104 30.4629 38.4904C27.8207 35.8504 25.1785 33.3304 22.6565 30.6904C20.0143 34.1704 17.2521 37.6504 14.3697 41.0104C17.132 43.4104 19.7741 45.8104 22.5364 48.2104ZM12.5683 39.3304C12.6884 39.4504 12.9285 39.5704 13.0486 39.8104C15.8109 36.4504 18.8133 33.0904 21.6957 29.8504C21.4555 29.6104 21.0952 29.2504 20.855 29.0104C18.6932 26.8504 16.6516 25.2904 15.3305 22.6504C14.1295 24.2104 12.9285 26.0104 11.6075 27.6904C9.806 29.9704 8.00452 32.2504 5.72266 33.5704C8.24471 35.1304 10.2864 37.4104 12.5683 39.3304Z" fill="#B69D86"/>
</svg>
