<?xml version="1.0" encoding="UTF-8"?><!DOCTYPE svg PUBLIC "-//W3C//DTD SVG 1.1//EN" "http://www.w3.org/Graphics/SVG/1.1/DTD/svg11.dtd"><svg xmlns="http://www.w3.org/2000/svg" xmlns:xlink="http://www.w3.org/1999/xlink"><symbol id="arr-down" viewBox="0 0 16 17"><g style="enable-background:new 0 0 16 17;">
<style type="text/css">
	.st0{fill-rule:evenodd;clip-rule:evenodd;}
</style>
<path class="st0" d="M16,8.5l-8,8l-8-8l2-2l4.6,4.6V0.5h2.8v10.6L14,6.5L16,8.5z"/>
</g></symbol><symbol id="arr-long" viewBox="0 0 44 24"><g style="enable-background:new 0 0 44 24;">
<polygon points="32.9,23.1 30.8,21 38.3,13.5 0.4,13.5 0.4,10.5 38.3,10.5 30.8,3 32.9,0.9 42.5,10.5 43.4,11.4 44,12 43.4,12.6 
  42.5,13.5 "/>
</g></symbol><symbol id="arr-short" viewBox="0 0 16 17"><g style="enable-background:new 0 0 16 17;">
<style type="text/css">
	.st0{fill-rule:evenodd;clip-rule:evenodd;}
</style>
<path class="st0" d="M8,0.5l8,8l-8,8l-2-2l4.6-4.6H0V7.1h10.6L6,2.5L8,0.5z"/>
</g></symbol><symbol id="cart" viewBox="0 0 24 24">
<path d="M1.01053 2.00004C0.454737 2.00004 0 2.45004 0 3.00004C0 3.55004 0.454737 4.00004 1.01053 4.00004H3.25288L5.90552 14.5C6.12985 15.39 6.93625 16 7.86291 16H19.4526C20.3641 16 21.1382 15.402 21.3787 14.531L24 5.00003H7.07368L7.57895 7.00003H21.3787L19.4526 14H7.86291L5.21027 3.50004C5.10098 3.06935 4.84878 2.68742 4.49405 2.41545C4.13933 2.14348 3.70262 1.99719 3.25389 2.00004H1.01053ZM18.1895 16C16.5272 16 15.1579 17.355 15.1579 19C15.1579 20.645 16.5272 22 18.1895 22C19.8518 22 21.2211 20.645 21.2211 19C21.2211 17.355 19.8518 16 18.1895 16ZM9.09474 16C7.43242 16 6.06316 17.355 6.06316 19C6.06316 20.645 7.43242 22 9.09474 22C10.7571 22 12.1263 20.645 12.1263 19C12.1263 17.355 10.7571 16 9.09474 16ZM9.09474 18C9.66366 18 10.1053 18.438 10.1053 19C10.1053 19.563 9.66265 20 9.09474 20C8.52581 20 8.08421 19.562 8.08421 19C8.08421 18.437 8.52682 18 9.09474 18ZM18.1895 18C18.7584 18 19.2 18.438 19.2 19C19.2 19.563 18.7574 20 18.1895 20C17.6205 20 17.1789 19.562 17.1789 19C17.1789 18.437 17.6216 18 18.1895 18Z"/>
</symbol><symbol id="ig" viewBox="0 0 32 32">
<path fill-rule="evenodd" clip-rule="evenodd" d="M16 32C24.8366 32 32 24.8366 32 16C32 7.16344 24.8366 0 16 0C7.16344 0 0 7.16344 0 16C0 24.8366 7.16344 32 16 32ZM12.8851 16C12.8851 14.2862 14.2837 12.8876 15.9975 12.8876C17.7113 12.8876 19.1099 14.2862 19.1099 16C19.1099 17.7138 17.7113 19.1124 15.9975 19.1124C14.2837 19.1124 12.8851 17.7138 12.8851 16ZM25.3326 15.5285C25.3325 15.6855 25.3323 15.8427 25.3323 16C25.3323 16.1759 25.3326 16.3516 25.3328 16.5272C25.3345 17.6377 25.3361 18.7417 25.2716 19.8526C25.1992 21.3469 24.8606 22.6708 23.7656 23.7659C22.6729 24.8587 21.3467 25.1995 19.8524 25.2719C18.7229 25.3355 17.6006 25.3342 16.4712 25.333C16.3142 25.3328 16.1571 25.3326 15.9998 25.3326C15.8428 25.3326 15.686 25.3328 15.5293 25.333C14.4015 25.3342 13.2789 25.3355 12.1473 25.2719C10.653 25.1995 9.32911 24.861 8.23406 23.7659C7.14134 22.6732 6.80045 21.3469 6.72807 19.8526C6.66452 18.723 6.66576 17.5989 6.66701 16.4706C6.66719 16.3138 6.66736 16.157 6.66736 16C6.66736 15.843 6.66719 15.6861 6.66701 15.5294C6.66576 14.4016 6.66452 13.279 6.72807 12.1474C6.80045 10.6531 7.139 9.32916 8.23406 8.23409C9.32678 7.14135 10.653 6.80045 12.1473 6.72807C13.2768 6.66452 14.3991 6.66576 15.5284 6.66701C15.6854 6.66719 15.8425 6.66736 15.9998 6.66736C16.1568 6.66736 16.3137 6.66719 16.4704 6.66701C17.5982 6.66576 18.7208 6.66452 19.8524 6.72807C21.3467 6.80045 22.6705 7.13901 23.7656 8.23409C24.8583 9.32682 25.1992 10.6531 25.2716 12.1474C25.3351 13.2769 25.3339 14.3992 25.3326 15.5285ZM11.2087 16C11.2087 18.6501 13.3474 20.7889 15.9975 20.7889C18.6476 20.7889 20.7863 18.6501 20.7863 16C20.7863 13.3499 18.6476 11.2111 15.9975 11.2111C13.3474 11.2111 11.2087 13.3499 11.2087 16ZM19.864 11.015C19.864 11.6337 20.3637 12.1334 20.9824 12.1334C21.1294 12.1336 21.2749 12.1048 21.4106 12.0486C21.5464 11.9925 21.6698 11.9101 21.7737 11.8062C21.8776 11.7023 21.9599 11.579 22.0161 11.4432C22.0722 11.3074 22.101 11.1619 22.1008 11.015C22.1008 10.3962 21.6012 9.89654 20.9824 9.89654C20.3637 9.89654 19.864 10.3962 19.864 11.015Z"/>
</symbol><symbol id="play" viewBox="0 0 54 54"><g style="enable-background:new 0 0 54 54;">
<style type="text/css">
	.st0{fill-rule:evenodd;clip-rule:evenodd;}
</style>
<path class="st0" d="M27,0C12.1,0,0,12.1,0,27c0,14.9,12.1,27,27,27s27-12.1,27-27C54,12.1,41.9,0,27,0z M20.7,37.9V16.1L39.6,27
	L20.7,37.9z"/>
</g></symbol><symbol id="prod-auto" viewBox="0 0 24 15">
<path d="M23.2852 6.47658L21.7243 5.80766L20.4096 3.26844C20.2437 2.94656 19.9915 2.67674 19.681 2.48894C19.3704 2.30114 19.0136 2.20272 18.6503 2.2046H15.9329C15.8426 2.20555 15.7551 2.23571 15.6836 2.29053C15.612 2.34535 15.5603 2.42184 15.5363 2.50847C15.2349 1.76735 14.7181 1.13269 14.0521 0.685791C13.3861 0.238889 12.6012 9.93797e-05 11.798 1.15699e-05H4.01143C3.48424 -0.00125323 2.962 0.101193 2.47471 0.301465C1.98741 0.501737 1.54468 0.795887 1.17193 1.16702C0.799183 1.53814 0.503775 1.97893 0.302677 2.46406C0.101579 2.94919 -0.00124423 3.46909 0.000114282 3.9939V4.55341C-0.0047222 5.18682 0.144019 5.81204 0.433715 6.37601C0.723411 6.93998 1.14551 7.42605 1.66419 7.79297H0.567199C0.339459 7.79297 0.154619 7.99759 0.154619 8.22409V11.898C0.154726 11.9517 0.165494 12.0048 0.186303 12.0544C0.207111 12.1039 0.237551 12.1489 0.275872 12.1867C0.314193 12.2245 0.35964 12.2543 0.409601 12.2746C0.459561 12.2948 0.51305 12.3051 0.566993 12.3047H1.36527C1.36069 12.356 1.35754 12.4297 1.35754 12.4923C1.35607 12.8211 1.41986 13.147 1.54525 13.4512C1.67064 13.7554 1.85515 14.0319 2.08819 14.2649C2.32123 14.4979 2.59822 14.6828 2.90324 14.809C3.20826 14.9351 3.5353 15 3.8656 15C4.19589 15 4.52293 14.935 4.82793 14.8088C5.13293 14.6826 5.40988 14.4977 5.64289 14.2646C5.87589 14.0316 6.06036 13.755 6.18569 13.4508C6.31103 13.1466 6.37476 12.8207 6.37324 12.4919C6.37324 12.4293 6.37015 12.356 6.36557 12.3047H6.55612C6.55154 12.356 6.5484 12.4297 6.5484 12.4923C6.54693 12.8211 6.61072 13.147 6.7361 13.4512C6.86149 13.7554 7.046 14.0319 7.27904 14.2649C7.51209 14.4979 7.78907 14.6828 8.09409 14.809C8.39911 14.9351 8.72616 15 9.05645 15C9.38675 15 9.71378 14.935 10.0188 14.8088C10.3238 14.6826 10.6007 14.4977 10.8337 14.2646C11.0667 14.0316 11.2512 13.755 11.3765 13.4508C11.5019 13.1466 11.5656 12.8207 11.5641 12.4919C11.5641 12.4293 11.561 12.356 11.5564 12.3047H17.0801C17.0755 12.356 17.0724 12.4297 17.0724 12.4923C17.0709 12.8211 17.1347 13.147 17.2601 13.4512C17.3854 13.7554 17.57 14.0319 17.803 14.2649C18.036 14.4979 18.313 14.6828 18.618 14.809C18.9231 14.9351 19.2501 15 19.5804 15C19.9107 15 20.2377 14.935 20.5427 14.8088C20.8477 14.6826 21.1247 14.4977 21.3577 14.2646C21.5907 14.0316 21.7752 13.755 21.9005 13.4508C22.0258 13.1466 22.0896 12.8207 22.0881 12.4919C22.0881 12.4293 22.0849 12.356 22.0804 12.3047H22.8235C22.9794 12.3045 23.1337 12.2735 23.2775 12.2135C23.4213 12.1535 23.5516 12.0657 23.661 11.9552C23.7705 11.8447 23.8568 11.7136 23.9149 11.5696C23.9731 11.4257 24.002 11.2716 23.9999 11.1165V7.57164C24.0021 7.33938 23.9355 7.11162 23.8084 6.91685C23.6813 6.72207 23.4993 6.56893 23.2852 6.47658ZM8.24038 0.820323H11.798C12.2171 0.818928 12.6323 0.900055 13.0198 1.05903C13.4073 1.21801 13.7594 1.45171 14.0558 1.74666C14.3522 2.04162 14.587 2.39202 14.7469 2.77769C14.9067 3.16337 14.9884 3.5767 14.9871 3.9939V4.55341C14.9886 4.97139 14.9073 5.38556 14.7478 5.77219C14.5882 6.15882 14.3536 6.5103 14.0573 6.80649C13.7611 7.10268 13.409 7.33775 13.0213 7.49824C12.6336 7.65872 12.2179 7.74145 11.798 7.7417H8.24038V0.820323ZM6.59233 0.820323H7.41636V7.7417H6.59233V0.820323ZM4.99578 0.820323H5.7683V7.7417H4.99578V0.820323ZM0.824141 4.55346V3.9939C0.822685 3.57679 0.904128 3.16352 1.06378 2.77787C1.22343 2.39222 1.45814 2.04182 1.75439 1.74685C2.05064 1.45187 2.40257 1.21815 2.78993 1.05914C3.17729 0.900124 3.59243 0.818961 4.01143 0.820323H4.17175V7.7417H4.01143C3.59165 7.74142 3.17605 7.65865 2.78848 7.49814C2.4009 7.33763 2.04896 7.10253 1.75285 6.80633C1.45674 6.51013 1.22228 6.15865 1.06291 5.77205C0.903539 5.38545 0.822399 4.97134 0.824141 4.55346ZM3.86552 14.1703C3.5325 14.1703 3.20695 14.072 2.93005 13.8878C2.65316 13.7036 2.43734 13.4418 2.3099 13.1355C2.18245 12.8292 2.14911 12.4922 2.21408 12.1671C2.27905 11.8419 2.43941 11.5432 2.6749 11.3088C2.91038 11.0744 3.2104 10.9148 3.53703 10.8501C3.86365 10.7854 4.20221 10.8186 4.50988 10.9455C4.81756 11.0723 5.08053 11.2872 5.26555 11.5628C5.45056 11.8385 5.54932 12.1625 5.54932 12.4941C5.54881 12.9385 5.37125 13.3645 5.05559 13.6788C4.73992 13.993 4.31194 14.1698 3.86552 14.1703ZM9.05622 14.1703C8.7232 14.1703 8.39765 14.072 8.12075 13.8878C7.84385 13.7036 7.62804 13.4418 7.5006 13.1355C7.37315 12.8292 7.33981 12.4922 7.40478 12.1671C7.46975 11.8419 7.63011 11.5432 7.8656 11.3088C8.10108 11.0744 8.4011 10.9148 8.72773 10.8501C9.05435 10.7854 9.39291 10.8186 9.70058 10.9455C10.0083 11.0723 10.2712 11.2872 10.4562 11.5628C10.6413 11.8385 10.74 12.1625 10.74 12.4941C10.7395 12.9385 10.562 13.3645 10.2463 13.6788C9.93062 13.993 9.50264 14.1698 9.05622 14.1703ZM15.5021 11.4844H11.3506C11.1547 11.0411 10.8334 10.6641 10.426 10.3995C10.0186 10.1348 9.54264 9.99392 9.05617 9.99392C8.56969 9.99392 8.09373 10.1348 7.68633 10.3995C7.27892 10.6641 6.95767 11.0411 6.76177 11.4844H6.15972C5.96381 11.0411 5.64256 10.6641 5.23516 10.3995C4.82775 10.1348 4.35179 9.99392 3.86532 9.99392C3.37884 9.99392 2.90288 10.1348 2.49547 10.3995C2.08807 10.6641 1.76682 11.0411 1.57092 11.4844H0.978646V8.61328H15.5021V11.4844ZM15.5021 7.79297H14.1453C14.7624 7.37901 15.2362 6.7856 15.5021 6.09369V7.79297ZM16.3261 3.02491H18.6503C18.8615 3.02084 19.0697 3.07544 19.2516 3.18259C19.4334 3.28974 19.5816 3.4452 19.6797 3.63153L20.7553 5.69092H16.3261V3.02491ZM19.5802 14.1703C19.2472 14.1703 18.9217 14.072 18.6448 13.8878C18.3679 13.7036 18.152 13.4418 18.0246 13.1355C17.8972 12.8292 17.8638 12.4922 17.9288 12.1671C17.9938 11.8419 18.1541 11.5432 18.3896 11.3088C18.6251 11.0744 18.9251 10.9148 19.2517 10.8501C19.5784 10.7854 19.9169 10.8186 20.2246 10.9455C20.5323 11.0723 20.7952 11.2872 20.9803 11.5628C21.1653 11.8385 21.264 12.1625 21.264 12.4941C21.2635 12.9385 21.086 13.3645 20.7703 13.6788C20.4546 13.993 20.0266 14.1698 19.5802 14.1703ZM23.1759 11.1165C23.1781 11.1639 23.1706 11.2113 23.1539 11.2558C23.1372 11.3003 23.1116 11.341 23.0786 11.3753C23.0457 11.4097 23.0061 11.4371 22.9623 11.4558C22.9185 11.4746 22.8713 11.4843 22.8235 11.4844H21.8745C21.6786 11.0411 21.3574 10.6641 20.95 10.3995C20.5426 10.1348 20.0666 9.99392 19.5801 9.99392C19.0937 9.99392 18.6177 10.1348 18.2103 10.3995C17.8029 10.6641 17.4816 11.0411 17.2857 11.4844H16.3261V6.51123H21.3464L22.9602 7.21773C23.0267 7.24966 23.0825 7.3001 23.1207 7.36293C23.159 7.42576 23.1782 7.49829 23.1759 7.57174V11.1165Z"/>
</symbol><symbol id="prod-bag" viewBox="0 0 24 24">
<path d="M22.4557 21.9766C22.143 20.4911 22.0035 18.9743 22.0399 17.4567C22.0399 6.94391 17.9501 4.82529 16.8692 4.44932L16.5505 3.81017L17.1531 1.69498C17.2088 1.50194 17.2052 1.2966 17.1426 1.10568C17.08 0.914753 16.9614 0.747076 16.8023 0.624456C16.6431 0.501837 16.4508 0.42995 16.2502 0.418148C16.0496 0.406345 15.8501 0.455172 15.6777 0.558278L15.3447 0.758468L14.4388 0.214288C14.2063 0.0740501 13.9399 -4.31566e-05 13.6684 1.88585e-08C13.3968 4.31943e-05 13.1304 0.0742212 12.898 0.214533L11.9951 0.758213L11.0929 0.215023C10.8602 0.0745478 10.5935 0.000322978 10.3217 0.000366157C10.0499 0.000409336 9.78323 0.0747188 9.55057 0.215268L8.64914 0.757983L8.32296 0.561453C8.15057 0.458051 7.95104 0.408955 7.75035 0.42056C7.54967 0.432164 7.35713 0.503932 7.1978 0.626515C7.03848 0.749098 6.91976 0.916816 6.85711 1.10783C6.79446 1.29884 6.79078 1.50429 6.84655 1.69742L7.44839 3.81017L7.12977 4.44932C6.04889 4.82529 1.95902 6.94391 1.95902 17.4567C1.99543 18.9743 1.8559 20.4911 1.54322 21.9766C1.48594 22.2104 1.48559 22.4545 1.5422 22.6885C1.5988 22.9225 1.71071 23.1394 1.86852 23.3212C2.02634 23.503 2.22546 23.6442 2.44916 23.7331C2.67287 23.822 2.91463 23.8559 3.15416 23.832L6.47836 23.499L11.9541 23.998C11.9692 23.9995 11.9843 24 11.9995 24C12.0146 24 12.0298 23.9995 12.0449 23.998L17.5206 23.499L20.8448 23.832C21.0843 23.8559 21.3261 23.822 21.5498 23.7331C21.7735 23.6442 21.9726 23.503 22.1304 23.3212C22.2882 23.1394 22.4002 22.9225 22.4568 22.6885C22.5134 22.4545 22.513 22.2104 22.4557 21.9766H22.4557ZM21.3766 22.6641C21.3241 22.726 21.2573 22.7742 21.182 22.8043C21.1066 22.8344 21.0251 22.8457 20.9444 22.8369L17.5726 22.4991C17.5409 22.4957 17.509 22.4956 17.4774 22.4986L11.9995 22.9981L6.52156 22.4986C6.50642 22.4971 6.49128 22.4966 6.47615 22.4966C6.45954 22.4966 6.44294 22.4976 6.42634 22.499L3.05453 22.8369C2.97441 22.8449 2.89355 22.8335 2.81871 22.8038C2.74386 22.7742 2.6772 22.727 2.6243 22.6663C2.57139 22.6056 2.53377 22.5332 2.51457 22.455C2.49538 22.3768 2.49517 22.2951 2.51396 22.2168C2.84658 20.6528 2.99595 19.0553 2.95906 17.4567C2.95906 6.51276 7.53749 5.3663 7.57875 5.35702C7.65346 5.34207 7.72376 5.31023 7.78428 5.26394C7.84479 5.21765 7.89392 5.15813 7.9279 5.08994L8.2218 4.50035H14.4996V3.50035H8.39996L7.80678 1.41785L8.39105 1.76989C8.46894 1.81685 8.55817 1.84167 8.64912 1.84167C8.74008 1.84167 8.8293 1.81685 8.9072 1.76989L10.0665 1.07189C10.1436 1.02553 10.2319 1.00103 10.3218 1.00103C10.4118 1.00103 10.5001 1.02553 10.5772 1.07189L11.7372 1.77012C11.8151 1.81685 11.9042 1.84153 11.9951 1.84153C12.0859 1.84153 12.175 1.81685 12.2529 1.77012L13.4136 1.0714C13.4905 1.0249 13.5787 1.0003 13.6686 1.00026C13.7585 1.00023 13.8467 1.02476 13.9237 1.07121L15.0871 1.77018C15.1648 1.81702 15.2539 1.84177 15.3447 1.84177C15.4354 1.84177 15.5245 1.81702 15.6022 1.77018L16.1911 1.42106L15.5356 3.72277C15.5014 3.84278 15.5134 3.97121 15.569 4.08287L16.071 5.08994C16.1053 5.15684 16.1539 5.21537 16.2134 5.26136C16.2728 5.30735 16.3417 5.33968 16.415 5.35604C16.4614 5.3663 21.0399 6.51276 21.0399 17.4567C21.003 19.0553 21.1523 20.6528 21.485 22.2168C21.5046 22.2946 21.505 22.3759 21.4861 22.4539C21.4672 22.5318 21.4296 22.604 21.3766 22.6641V22.6641Z"/>
<path d="M11.9995 17.9999C10.9386 17.9999 9.92125 17.5784 9.17112 16.8283C8.42098 16.0782 7.99956 15.0608 7.99956 13.9999C7.99956 12.9391 8.42098 11.9217 9.17112 11.1716C9.92125 10.4214 10.9386 10 11.9995 10V9C11.0106 9.00008 10.044 9.29339 9.22181 9.84284C8.39963 10.3923 7.75884 11.1732 7.38048 12.0868C7.00211 13.0004 6.90316 14.0057 7.09613 14.9756C7.2891 15.9455 7.76532 16.8363 8.46459 17.5355C9.16386 18.2347 10.0548 18.7109 11.0246 18.9038C11.9945 19.0967 12.9998 18.9976 13.9134 18.6192C14.827 18.2407 15.6078 17.5999 16.1572 16.7777C16.7066 15.9554 16.9998 14.9888 16.9998 13.9999H15.9998C15.9985 15.0604 15.5766 16.0772 14.8267 16.827C14.0768 17.5769 13.06 17.9987 11.9995 17.9999Z"/>
<path d="M14 9H13V10H14V9Z"/>
<path d="M17 12H16V13H17V12Z"/>
<path d="M16 10H15V11H16V10Z"/>
</symbol><symbol id="prod-carriage" viewBox="0 0 24 24">
<path fill-rule="evenodd" clip-rule="evenodd" d="M4.5 3C3.11929 3 2 4.11929 2 5.5V14H22V5.5C22 4.11929 20.8807 3 19.5 3H4.5ZM23 14.0854V5.5C23 3.567 21.433 2 19.5 2H4.5C2.567 2 1 3.567 1 5.5V14.0854C0.417404 14.2913 0 14.8469 0 15.5V16.5C0 17.3284 0.671572 18 1.5 18H22.5C23.3284 18 24 17.3284 24 16.5V15.5C24 14.8469 23.5826 14.2913 23 14.0854ZM1.5 15C1.22386 15 1 15.2239 1 15.5V16.5C1 16.7761 1.22386 17 1.5 17H22.5C22.7761 17 23 16.7761 23 16.5V15.5C23 15.2239 22.7761 15 22.5 15H1.5Z"/>
<path fill-rule="evenodd" clip-rule="evenodd" d="M5 15V3H6V15H5Z"/>
<path fill-rule="evenodd" clip-rule="evenodd" d="M18 14V2H19V14H18Z"/>
<path fill-rule="evenodd" clip-rule="evenodd" d="M15 14V2H16V14H15Z"/>
<path fill-rule="evenodd" clip-rule="evenodd" d="M8 15V3H9V15H8Z"/>
<path fill-rule="evenodd" clip-rule="evenodd" d="M3.5 21C4.32843 21 5 20.3284 5 19.5C5 18.6716 4.32843 18 3.5 18C2.67157 18 2 18.6716 2 19.5C2 20.3284 2.67157 21 3.5 21ZM3.5 22C4.88071 22 6 20.8807 6 19.5C6 18.1193 4.88071 17 3.5 17C2.11929 17 1 18.1193 1 19.5C1 20.8807 2.11929 22 3.5 22Z"/>
<path fill-rule="evenodd" clip-rule="evenodd" d="M16.5 21C17.3284 21 18 20.3284 18 19.5C18 18.6716 17.3284 18 16.5 18C15.6716 18 15 18.6716 15 19.5C15 20.3284 15.6716 21 16.5 21ZM16.5 22C17.8807 22 19 20.8807 19 19.5C19 18.1193 17.8807 17 16.5 17C15.1193 17 14 18.1193 14 19.5C14 20.8807 15.1193 22 16.5 22Z"/>
<path fill-rule="evenodd" clip-rule="evenodd" d="M7.5 21C8.32843 21 9 20.3284 9 19.5C9 18.6716 8.32843 18 7.5 18C6.67157 18 6 18.6716 6 19.5C6 20.3284 6.67157 21 7.5 21ZM7.5 22C8.88071 22 10 20.8807 10 19.5C10 18.1193 8.88071 17 7.5 17C6.11929 17 5 18.1193 5 19.5C5 20.8807 6.11929 22 7.5 22Z"/>
<path fill-rule="evenodd" clip-rule="evenodd" d="M20.5 21C21.3284 21 22 20.3284 22 19.5C22 18.6716 21.3284 18 20.5 18C19.6716 18 19 18.6716 19 19.5C19 20.3284 19.6716 21 20.5 21ZM20.5 22C21.8807 22 23 20.8807 23 19.5C23 18.1193 21.8807 17 20.5 17C19.1193 17 18 18.1193 18 19.5C18 20.8807 19.1193 22 20.5 22Z"/>
</symbol><symbol id="prod-pack" viewBox="0 0 24 24">
<path d="M5.53779 1.44142C4.54044 1.44142 3.64322 2.06144 3.29154 2.99485L1.95092 6.55173C1.91678 6.64206 1.91068 6.74058 1.93341 6.83443C1.95614 6.92828 2.00665 7.0131 2.07833 7.0778C2.15002 7.1425 2.23955 7.18407 2.33523 7.19709C2.43091 7.21012 2.5283 7.19398 2.61467 7.15079L5.18529 5.86548L6.38061 7.06079C6.45184 7.13203 6.54367 7.17906 6.64311 7.19521C6.74255 7.21137 6.84455 7.19582 6.93467 7.15079L9.50529 5.86548L10.7006 7.06079C10.7718 7.13203 10.8637 7.17906 10.9631 7.19521C11.0626 7.21137 11.1646 7.19582 11.2547 7.15079L13.8253 5.86548L15.0206 7.06079C15.0773 7.1175 15.1474 7.1591 15.2243 7.18178C15.3012 7.20446 15.3826 7.2075 15.461 7.19062C15.5394 7.17374 15.6124 7.13749 15.6732 7.08517C15.734 7.03285 15.7807 6.96613 15.809 6.8911L17.324 2.8711C17.3244 2.87048 17.3247 2.86986 17.325 2.86923C17.4267 2.59716 17.6865 2.40142 18 2.40142C18.4036 2.40142 18.72 2.71783 18.72 3.12142V5.18485L16.3565 10.8567C16.3321 10.9153 16.32 10.9781 16.32 11.0414V21.6014H2.87998V11.138L4.49529 7.28392L3.17811 7.94204L1.95748 10.8558C1.93252 10.9144 1.91998 10.9776 1.91998 11.0414V22.0814C1.91998 22.3469 2.13502 22.5614 2.39998 22.5614H16.8H21.6C21.7273 22.5614 21.8494 22.5108 21.9394 22.4208C22.0294 22.3308 22.08 22.2087 22.08 22.0814V11.0414C22.0801 10.978 22.0677 10.9153 22.0434 10.8567L19.68 5.18485V3.12142C19.68 2.22623 18.9641 1.49241 18.0787 1.44985C18.0706 1.44808 18.0625 1.44652 18.0544 1.44517C18.0385 1.44312 18.0225 1.44187 18.0065 1.44142C18.0044 1.4414 18.0022 1.4414 18 1.44142H5.53779ZM5.53779 2.40142H16.5281C16.5028 2.45237 16.446 2.47986 16.4259 2.5336V2.53173L15.1734 5.8561L14.2594 4.94204C14.1881 4.8708 14.0963 4.82377 13.9969 4.80762C13.8974 4.79147 13.7954 4.80701 13.7053 4.85204L11.1347 6.13735L9.93936 4.94204C9.86813 4.8708 9.77629 4.82377 9.67685 4.80762C9.57741 4.79147 9.47541 4.80701 9.38529 4.85204L6.81467 6.13735L5.61936 4.94204C5.54813 4.8708 5.45629 4.82377 5.35685 4.80762C5.25741 4.79147 5.15541 4.80701 5.06529 4.85204L3.28123 5.7436L4.19061 3.33329C4.40245 2.77102 4.93674 2.40142 5.53779 2.40142ZM19.2 6.53017L21.12 11.137V21.6014H17.28V11.137L19.2 6.53017ZM6.23998 13.4414C6.11268 13.4414 5.9906 13.492 5.90058 13.582C5.81057 13.672 5.75999 13.7941 5.75998 13.9214V18.7214C5.75999 18.8487 5.81057 18.9708 5.90058 19.0608C5.9906 19.1508 6.11268 19.2014 6.23998 19.2014H12.96C13.0873 19.2014 13.2094 19.1508 13.2994 19.0608C13.3894 18.9708 13.44 18.8487 13.44 18.7214V13.9214C13.44 13.7941 13.3894 13.672 13.2994 13.582C13.2094 13.492 13.0873 13.4414 12.96 13.4414H6.23998ZM6.71998 14.4014H12.48V18.2414H6.71998V14.4014Z"/>
</symbol><symbol id="prod-user" viewBox="0 0 24 24">
<path fill-rule="evenodd" clip-rule="evenodd" d="M12 3C9.44031 3 7.36528 5.0902 7.36528 7.6686C7.36528 9.79732 8.77965 11.5933 10.7134 12.155C9.18681 12.3424 7.87742 12.8863 6.89103 13.8655C5.63561 15.1118 5 16.9672 5 19.3883C5 19.7262 5.27191 20 5.60731 20C5.94272 20 6.21461 19.7262 6.21461 19.3883C6.21461 17.1731 6.79359 15.68 7.74361 14.7369C8.69542 13.792 10.1164 13.3031 11.9999 13.3031C13.8835 13.3031 15.3045 13.792 16.2564 14.7369C17.2063 15.68 17.7854 17.1731 17.7854 19.3883C17.7854 19.7262 18.0572 20 18.3927 20C18.7281 20.0001 19 19.7262 19 19.3884C19 16.9672 18.3643 15.1118 17.1089 13.8655C16.1225 12.8863 14.8131 12.3424 13.2865 12.155C15.2202 11.5933 16.6347 9.79733 16.6347 7.6686C16.6347 5.0902 14.5597 3 12 3ZM8.57989 7.6686C8.57989 5.76592 10.1111 4.22349 12 4.22349C13.8889 4.22349 15.4201 5.76592 15.4201 7.6686C15.4201 9.57127 13.8889 11.1137 12 11.1137C10.1111 11.1137 8.57989 9.57127 8.57989 7.6686Z"/>
</symbol><symbol id="search" viewBox="0 0 22 24">
<path d="M21.2,21.7l-5.5-5.5c1.8-1.7,3-4.1,3-6.8c0-5.1-4.2-9.3-9.3-9.3C4.2,0,0,4.2,0,9.3c0,5.1,4.2,9.3,9.3,9.3
	c1.7,0,3.3-0.5,4.7-1.3l5.7,5.7L21.2,21.7z M2,9.3C2,5.3,5.3,2,9.3,2s7.3,3.3,7.3,7.3s-3.3,7.3-7.3,7.3S2,13.4,2,9.3z"/>
</symbol><symbol id="telegram" viewBox="0 0 24 24">
<path d="M12 0C5.37097 0 0 5.37097 0 12C0 18.629 5.37097 24 12 24C18.629 24 24 18.629 24 12C24 5.37097 18.629 0 12 0ZM17.8935 8.22097L15.9242 17.5016C15.779 18.1597 15.3871 18.3194 14.8403 18.0097L11.8403 15.7984L10.3935 17.1919C10.2339 17.3516 10.0984 17.4871 9.78871 17.4871L10.0016 14.4339L15.5613 9.41129C15.8032 9.19839 15.5081 9.07742 15.1887 9.29032L8.31774 13.6161L5.35645 12.6919C4.7129 12.4887 4.69839 12.0484 5.49194 11.7387L17.0613 7.27742C17.5984 7.08387 18.0677 7.40806 17.8935 8.22097V8.22097Z"/>
</symbol><symbol id="vch" viewBox="0 0 32 32">
<path fill-rule="evenodd" clip-rule="evenodd" d="M16 32C24.8366 32 32 24.8366 32 16C32 7.16344 24.8366 0 16 0C7.16344 0 0 7.16344 0 16C0 24.8366 7.16344 32 16 32ZM7.11133 15.9187C7.11133 18.1339 8.31844 20.1579 10.1842 21.4983C10.3487 21.6076 10.4304 21.7712 10.4304 21.9899C10.4304 22.0174 10.4238 22.0516 10.4171 22.0859C10.4104 22.1201 10.4038 22.1543 10.4038 22.1819C10.266 22.7285 10.0189 23.6316 9.99222 23.6583C9.98687 23.6738 9.98159 23.6884 9.97654 23.7023C9.95469 23.7623 9.93711 23.8107 9.93711 23.8779C9.93804 23.9576 9.97023 24.0337 10.0268 24.0899C10.0833 24.1461 10.1596 24.1778 10.2393 24.1783C10.2976 24.1725 10.3538 24.1536 10.4038 24.1232L12.3513 23.0023C12.4891 22.9196 12.6536 22.8663 12.818 22.8663C12.8998 22.8663 13.01 22.8663 13.0918 22.893C14.0361 23.1706 15.0159 23.3086 16.0002 23.3027C20.9113 23.3027 24.8891 19.9934 24.8891 15.9187C24.8891 11.8432 20.9113 8.53385 16.0002 8.53385C11.0891 8.53385 7.11133 11.8432 7.11133 15.9187ZM14.1798 13.5347C14.1798 14.1721 13.6749 14.677 13.0375 14.677C12.3993 14.677 11.8953 14.1721 11.8953 13.5347C11.8953 12.8965 12.3993 12.3916 13.0375 12.3916C13.6749 12.3916 14.1798 12.8965 14.1798 13.5347ZM20.1051 13.5347C20.1051 14.1721 19.6011 14.677 18.9629 14.677C18.3256 14.677 17.8207 14.1721 17.8207 13.5347C17.8207 12.8965 18.3256 12.3916 18.9629 12.3916C19.6011 12.3916 20.1051 12.8965 20.1051 13.5347Z"/>
</symbol><symbol id="vk" viewBox="0 0 24 24">
<path d="M12 0C5.3725 0 0 5.3725 0 12C0 18.6275 5.3725 24 12 24C18.6275 24 24 18.6275 24 12C24 5.3725 18.6275 0 12 0ZM16.615 13.5388C16.615 13.5388 17.6763 14.5863 17.9375 15.0725C17.945 15.0825 17.9487 15.0925 17.9513 15.0975C18.0575 15.2762 18.0825 15.415 18.03 15.5188C17.9425 15.6912 17.6425 15.7763 17.54 15.7838H15.665C15.535 15.7838 15.2625 15.75 14.9325 15.5225C14.6788 15.345 14.4288 15.0538 14.185 14.77C13.8213 14.3475 13.5063 13.9825 13.1888 13.9825C13.1484 13.9824 13.1083 13.9888 13.07 14.0013C12.83 14.0788 12.5225 14.4213 12.5225 15.3337C12.5225 15.6188 12.2975 15.7825 12.1388 15.7825H11.28C10.9875 15.7825 9.46375 15.68 8.11375 14.2563C6.46125 12.5125 4.97375 9.015 4.96125 8.9825C4.8675 8.75625 5.06125 8.635 5.2725 8.635H7.16625C7.41875 8.635 7.50125 8.78875 7.55875 8.925C7.62625 9.08375 7.87375 9.715 8.28 10.425C8.93875 11.5825 9.3425 12.0525 9.66625 12.0525C9.72696 12.0518 9.78658 12.0363 9.84 12.0075C10.2625 11.7725 10.1838 10.2662 10.165 9.95375C10.165 9.895 10.1637 9.28 9.9475 8.985C9.7925 8.77125 9.52875 8.69 9.36875 8.66C9.43351 8.57064 9.51883 8.49818 9.6175 8.44875C9.9075 8.30375 10.43 8.2825 10.9488 8.2825H11.2375C11.8 8.29 11.945 8.32625 12.1488 8.3775C12.5613 8.47625 12.57 8.7425 12.5338 9.65375C12.5225 9.9125 12.5113 10.205 12.5113 10.55C12.5113 10.625 12.5075 10.705 12.5075 10.79C12.495 11.2537 12.48 11.78 12.8075 11.9963C12.8502 12.023 12.8996 12.0373 12.95 12.0375C13.0638 12.0375 13.4062 12.0375 14.3337 10.4463C14.6198 9.93407 14.8684 9.40185 15.0775 8.85375C15.0963 8.82125 15.1513 8.72125 15.2163 8.6825C15.2642 8.65804 15.3174 8.64561 15.3713 8.64625H17.5975C17.84 8.64625 18.0063 8.6825 18.0375 8.77625C18.0925 8.925 18.0275 9.37875 17.0112 10.755L16.5575 11.3538C15.6363 12.5613 15.6363 12.6225 16.615 13.5388Z"/>
</symbol><symbol id="yt" viewBox="0 0 32 32">
<path d="M18.6717 15.7217L14.9283 13.975C14.6017 13.8233 14.3333 13.9933 14.3333 14.355V17.645C14.3333 18.0067 14.6017 18.1767 14.9283 18.025L18.67 16.2783C18.9983 16.125 18.9983 15.875 18.6717 15.7217ZM16 0C7.16333 0 0 7.16333 0 16C0 24.8367 7.16333 32 16 32C24.8367 32 32 24.8367 32 16C32 7.16333 24.8367 0 16 0ZM16 22.5C7.81 22.5 7.66667 21.7617 7.66667 16C7.66667 10.2383 7.81 9.5 16 9.5C24.19 9.5 24.3333 10.2383 24.3333 16C24.3333 21.7617 24.19 22.5 16 22.5Z"/>
</symbol></svg>