<?xml version="1.0" encoding="UTF-8"?><!DOCTYPE svg PUBLIC "-//W3C//DTD SVG 1.1//EN" "http://www.w3.org/Graphics/SVG/1.1/DTD/svg11.dtd"><svg xmlns="http://www.w3.org/2000/svg" xmlns:xlink="http://www.w3.org/1999/xlink"><symbol id="cart" viewBox="0 0 24 24">
<path d="M1.01053 2.00004C0.454737 2.00004 0 2.45004 0 3.00004C0 3.55004 0.454737 4.00004 1.01053 4.00004H3.25288L5.90552 14.5C6.12985 15.39 6.93625 16 7.86291 16H19.4526C20.3641 16 21.1382 15.402 21.3787 14.531L24 5.00003H7.07368L7.57895 7.00003H21.3787L19.4526 14H7.86291L5.21027 3.50004C5.10098 3.06935 4.84878 2.68742 4.49405 2.41545C4.13933 2.14348 3.70262 1.99719 3.25389 2.00004H1.01053ZM18.1895 16C16.5272 16 15.1579 17.355 15.1579 19C15.1579 20.645 16.5272 22 18.1895 22C19.8518 22 21.2211 20.645 21.2211 19C21.2211 17.355 19.8518 16 18.1895 16ZM9.09474 16C7.43242 16 6.06316 17.355 6.06316 19C6.06316 20.645 7.43242 22 9.09474 22C10.7571 22 12.1263 20.645 12.1263 19C12.1263 17.355 10.7571 16 9.09474 16ZM9.09474 18C9.66366 18 10.1053 18.438 10.1053 19C10.1053 19.563 9.66265 20 9.09474 20C8.52581 20 8.08421 19.562 8.08421 19C8.08421 18.437 8.52682 18 9.09474 18ZM18.1895 18C18.7584 18 19.2 18.438 19.2 19C19.2 19.563 18.7574 20 18.1895 20C17.6205 20 17.1789 19.562 17.1789 19C17.1789 18.437 17.6216 18 18.1895 18Z"/>
</symbol><symbol id="ig" viewBox="0 0 32 32">
<path fill-rule="evenodd" clip-rule="evenodd" d="M16 32C24.8366 32 32 24.8366 32 16C32 7.16344 24.8366 0 16 0C7.16344 0 0 7.16344 0 16C0 24.8366 7.16344 32 16 32ZM12.8851 16C12.8851 14.2862 14.2837 12.8876 15.9975 12.8876C17.7113 12.8876 19.1099 14.2862 19.1099 16C19.1099 17.7138 17.7113 19.1124 15.9975 19.1124C14.2837 19.1124 12.8851 17.7138 12.8851 16ZM25.3326 15.5285C25.3325 15.6855 25.3323 15.8427 25.3323 16C25.3323 16.1759 25.3326 16.3516 25.3328 16.5272C25.3345 17.6377 25.3361 18.7417 25.2716 19.8526C25.1992 21.3469 24.8606 22.6708 23.7656 23.7659C22.6729 24.8587 21.3467 25.1995 19.8524 25.2719C18.7229 25.3355 17.6006 25.3342 16.4712 25.333C16.3142 25.3328 16.1571 25.3326 15.9998 25.3326C15.8428 25.3326 15.686 25.3328 15.5293 25.333C14.4015 25.3342 13.2789 25.3355 12.1473 25.2719C10.653 25.1995 9.32911 24.861 8.23406 23.7659C7.14134 22.6732 6.80045 21.3469 6.72807 19.8526C6.66452 18.723 6.66576 17.5989 6.66701 16.4706C6.66719 16.3138 6.66736 16.157 6.66736 16C6.66736 15.843 6.66719 15.6861 6.66701 15.5294C6.66576 14.4016 6.66452 13.279 6.72807 12.1474C6.80045 10.6531 7.139 9.32916 8.23406 8.23409C9.32678 7.14135 10.653 6.80045 12.1473 6.72807C13.2768 6.66452 14.3991 6.66576 15.5284 6.66701C15.6854 6.66719 15.8425 6.66736 15.9998 6.66736C16.1568 6.66736 16.3137 6.66719 16.4704 6.66701C17.5982 6.66576 18.7208 6.66452 19.8524 6.72807C21.3467 6.80045 22.6705 7.13901 23.7656 8.23409C24.8583 9.32682 25.1992 10.6531 25.2716 12.1474C25.3351 13.2769 25.3339 14.3992 25.3326 15.5285ZM11.2087 16C11.2087 18.6501 13.3474 20.7889 15.9975 20.7889C18.6476 20.7889 20.7863 18.6501 20.7863 16C20.7863 13.3499 18.6476 11.2111 15.9975 11.2111C13.3474 11.2111 11.2087 13.3499 11.2087 16ZM19.864 11.015C19.864 11.6337 20.3637 12.1334 20.9824 12.1334C21.1294 12.1336 21.2749 12.1048 21.4106 12.0486C21.5464 11.9925 21.6698 11.9101 21.7737 11.8062C21.8776 11.7023 21.9599 11.579 22.0161 11.4432C22.0722 11.3074 22.101 11.1619 22.1008 11.015C22.1008 10.3962 21.6012 9.89654 20.9824 9.89654C20.3637 9.89654 19.864 10.3962 19.864 11.015Z"/>
</symbol><symbol id="play" viewBox="0 0 54 54"><g style="enable-background:new 0 0 54 54;">
<style type="text/css">
	.st0{fill-rule:evenodd;clip-rule:evenodd;}
</style>
<path class="st0" d="M27,0C12.1,0,0,12.1,0,27c0,14.9,12.1,27,27,27s27-12.1,27-27C54,12.1,41.9,0,27,0z M20.7,37.9V16.1L39.6,27
	L20.7,37.9z"/>
</g></symbol><symbol id="search" viewBox="0 0 22 24">
<path d="M21.2,21.7l-5.5-5.5c1.8-1.7,3-4.1,3-6.8c0-5.1-4.2-9.3-9.3-9.3C4.2,0,0,4.2,0,9.3c0,5.1,4.2,9.3,9.3,9.3
	c1.7,0,3.3-0.5,4.7-1.3l5.7,5.7L21.2,21.7z M2,9.3C2,5.3,5.3,2,9.3,2s7.3,3.3,7.3,7.3s-3.3,7.3-7.3,7.3S2,13.4,2,9.3z"/>
</symbol><symbol id="telegram" viewBox="0 0 24 24">
<path d="M12 0C5.37097 0 0 5.37097 0 12C0 18.629 5.37097 24 12 24C18.629 24 24 18.629 24 12C24 5.37097 18.629 0 12 0ZM17.8935 8.22097L15.9242 17.5016C15.779 18.1597 15.3871 18.3194 14.8403 18.0097L11.8403 15.7984L10.3935 17.1919C10.2339 17.3516 10.0984 17.4871 9.78871 17.4871L10.0016 14.4339L15.5613 9.41129C15.8032 9.19839 15.5081 9.07742 15.1887 9.29032L8.31774 13.6161L5.35645 12.6919C4.7129 12.4887 4.69839 12.0484 5.49194 11.7387L17.0613 7.27742C17.5984 7.08387 18.0677 7.40806 17.8935 8.22097V8.22097Z"/>
</symbol><symbol id="vch" viewBox="0 0 32 32">
<path fill-rule="evenodd" clip-rule="evenodd" d="M16 32C24.8366 32 32 24.8366 32 16C32 7.16344 24.8366 0 16 0C7.16344 0 0 7.16344 0 16C0 24.8366 7.16344 32 16 32ZM7.11133 15.9187C7.11133 18.1339 8.31844 20.1579 10.1842 21.4983C10.3487 21.6076 10.4304 21.7712 10.4304 21.9899C10.4304 22.0174 10.4238 22.0516 10.4171 22.0859C10.4104 22.1201 10.4038 22.1543 10.4038 22.1819C10.266 22.7285 10.0189 23.6316 9.99222 23.6583C9.98687 23.6738 9.98159 23.6884 9.97654 23.7023C9.95469 23.7623 9.93711 23.8107 9.93711 23.8779C9.93804 23.9576 9.97023 24.0337 10.0268 24.0899C10.0833 24.1461 10.1596 24.1778 10.2393 24.1783C10.2976 24.1725 10.3538 24.1536 10.4038 24.1232L12.3513 23.0023C12.4891 22.9196 12.6536 22.8663 12.818 22.8663C12.8998 22.8663 13.01 22.8663 13.0918 22.893C14.0361 23.1706 15.0159 23.3086 16.0002 23.3027C20.9113 23.3027 24.8891 19.9934 24.8891 15.9187C24.8891 11.8432 20.9113 8.53385 16.0002 8.53385C11.0891 8.53385 7.11133 11.8432 7.11133 15.9187ZM14.1798 13.5347C14.1798 14.1721 13.6749 14.677 13.0375 14.677C12.3993 14.677 11.8953 14.1721 11.8953 13.5347C11.8953 12.8965 12.3993 12.3916 13.0375 12.3916C13.6749 12.3916 14.1798 12.8965 14.1798 13.5347ZM20.1051 13.5347C20.1051 14.1721 19.6011 14.677 18.9629 14.677C18.3256 14.677 17.8207 14.1721 17.8207 13.5347C17.8207 12.8965 18.3256 12.3916 18.9629 12.3916C19.6011 12.3916 20.1051 12.8965 20.1051 13.5347Z"/>
</symbol><symbol id="vk" viewBox="0 0 24 24">
<path d="M12 0C5.3725 0 0 5.3725 0 12C0 18.6275 5.3725 24 12 24C18.6275 24 24 18.6275 24 12C24 5.3725 18.6275 0 12 0ZM16.615 13.5388C16.615 13.5388 17.6763 14.5863 17.9375 15.0725C17.945 15.0825 17.9487 15.0925 17.9513 15.0975C18.0575 15.2762 18.0825 15.415 18.03 15.5188C17.9425 15.6912 17.6425 15.7763 17.54 15.7838H15.665C15.535 15.7838 15.2625 15.75 14.9325 15.5225C14.6788 15.345 14.4288 15.0538 14.185 14.77C13.8213 14.3475 13.5063 13.9825 13.1888 13.9825C13.1484 13.9824 13.1083 13.9888 13.07 14.0013C12.83 14.0788 12.5225 14.4213 12.5225 15.3337C12.5225 15.6188 12.2975 15.7825 12.1388 15.7825H11.28C10.9875 15.7825 9.46375 15.68 8.11375 14.2563C6.46125 12.5125 4.97375 9.015 4.96125 8.9825C4.8675 8.75625 5.06125 8.635 5.2725 8.635H7.16625C7.41875 8.635 7.50125 8.78875 7.55875 8.925C7.62625 9.08375 7.87375 9.715 8.28 10.425C8.93875 11.5825 9.3425 12.0525 9.66625 12.0525C9.72696 12.0518 9.78658 12.0363 9.84 12.0075C10.2625 11.7725 10.1838 10.2662 10.165 9.95375C10.165 9.895 10.1637 9.28 9.9475 8.985C9.7925 8.77125 9.52875 8.69 9.36875 8.66C9.43351 8.57064 9.51883 8.49818 9.6175 8.44875C9.9075 8.30375 10.43 8.2825 10.9488 8.2825H11.2375C11.8 8.29 11.945 8.32625 12.1488 8.3775C12.5613 8.47625 12.57 8.7425 12.5338 9.65375C12.5225 9.9125 12.5113 10.205 12.5113 10.55C12.5113 10.625 12.5075 10.705 12.5075 10.79C12.495 11.2537 12.48 11.78 12.8075 11.9963C12.8502 12.023 12.8996 12.0373 12.95 12.0375C13.0638 12.0375 13.4062 12.0375 14.3337 10.4463C14.6198 9.93407 14.8684 9.40185 15.0775 8.85375C15.0963 8.82125 15.1513 8.72125 15.2163 8.6825C15.2642 8.65804 15.3174 8.64561 15.3713 8.64625H17.5975C17.84 8.64625 18.0063 8.6825 18.0375 8.77625C18.0925 8.925 18.0275 9.37875 17.0112 10.755L16.5575 11.3538C15.6363 12.5613 15.6363 12.6225 16.615 13.5388Z"/>
</symbol><symbol id="yt" viewBox="0 0 32 32">
<path d="M18.6717 15.7217L14.9283 13.975C14.6017 13.8233 14.3333 13.9933 14.3333 14.355V17.645C14.3333 18.0067 14.6017 18.1767 14.9283 18.025L18.67 16.2783C18.9983 16.125 18.9983 15.875 18.6717 15.7217ZM16 0C7.16333 0 0 7.16333 0 16C0 24.8367 7.16333 32 16 32C24.8367 32 32 24.8367 32 16C32 7.16333 24.8367 0 16 0ZM16 22.5C7.81 22.5 7.66667 21.7617 7.66667 16C7.66667 10.2383 7.81 9.5 16 9.5C24.19 9.5 24.3333 10.2383 24.3333 16C24.3333 21.7617 24.19 22.5 16 22.5Z"/>
</symbol></svg>